CooperHewittInterpol1-Heavy.ufo
<glyph name="dollar" format="1">
  <advance width="600"/>
  <unicode hex="0024"/>
  <outline>
    <contour>
      <point x="301" y="200" type="line" smooth="yes"/>
      <point x="243" y="221" type="line" smooth="yes"/>
      <point x="224" y="283" type="line" smooth="yes"/>
      <point x="37" y="283" type="line" smooth="yes"/>
      <point x="37" y="278" type="line" smooth="yes"/>
      <point x="68" y="147" type="line" smooth="yes"/>
      <point x="157" y="72" type="line" smooth="yes"/>
      <point x="126" y="-60" type="line" smooth="yes"/>
      <point x="266" y="-60" type="line" smooth="yes"/>
      <point x="292" y="49" type="line" smooth="yes"/>
      <point x="300" y="49" type="line" smooth="yes"/>
      <point x="498" y="105" type="line" smooth="yes"/>
      <point x="564" y="262" type="line" smooth="yes"/>
      <point x="564" y="273" type="line" smooth="yes"/>
      <point x="509" y="405" type="line" smooth="yes"/>
      <point x="348" y="459" type="line" smooth="yes"/>
      <point x="253" y="480" type="line" smooth="yes"/>
      <point x="229" y="525" type="line" smooth="yes"/>
      <point x="244" y="564" type="line" smooth="yes"/>
      <point x="294" y="581" type="line" smooth="yes"/>
      <point x="299" y="581" type="line" smooth="yes"/>
      <point x="357" y="554" type="line" smooth="yes"/>
      <point x="373" y="490" type="line" smooth="yes"/>
      <point x="558" y="490" type="line" smooth="yes"/>
      <point x="558" y="503" type="line" smooth="yes"/>
      <point x="531" y="628" type="line" smooth="yes"/>
      <point x="449" y="705" type="line" smooth="yes"/>
      <point x="481" y="840" type="line" smooth="yes"/>
      <point x="341" y="840" type="line" smooth="yes"/>
      <point x="315" y="732" type="line" smooth="yes"/>
      <point x="300" y="732" type="line" smooth="yes"/>
      <point x="113" y="679" type="line" smooth="yes"/>
      <point x="43" y="522" type="line" smooth="yes"/>
      <point x="43" y="511" type="line" smooth="yes"/>
      <point x="97" y="380" type="line" smooth="yes"/>
      <point x="252" y="325" type="line" smooth="yes"/>
      <point x="351" y="299" type="line" smooth="yes"/>
      <point x="376" y="251" type="line" smooth="yes"/>
      <point x="359" y="217" type="line" smooth="yes"/>
      <point x="306" y="200" type="line" smooth="yes"/>
    </contour>
  </outline>
</glyph>
<glyph name="percent" format="1">
  <advance width="1000"/>
  <unicode hex="0025"/>
  <outline>
    <contour>
      <point x="281" y="600" type="line" smooth="yes"/>
      <point x="281" y="588" type="line" smooth="yes"/>
      <point x="266" y="547" type="line" smooth="yes"/>
      <point x="223" y="530" type="line" smooth="yes"/>
      <point x="217" y="530" type="line" smooth="yes"/>
      <point x="174" y="547" type="line" smooth="yes"/>
      <point x="159" y="588" type="line" smooth="yes"/>
      <point x="159" y="600" type="line" smooth="yes"/>
      <point x="174" y="641" type="line" smooth="yes"/>
      <point x="217" y="658" type="line" smooth="yes"/>
      <point x="223" y="658" type="line" smooth="yes"/>
      <point x="266" y="641" type="line" smooth="yes"/>
    </contour>
    <contour>
      <point x="719" y="180" type="line" smooth="yes"/>
      <point x="719" y="192" type="line" smooth="yes"/>
      <point x="734" y="233" type="line" smooth="yes"/>
      <point x="777" y="250" type="line" smooth="yes"/>
      <point x="783" y="250" type="line" smooth="yes"/>
      <point x="826" y="233" type="line" smooth="yes"/>
      <point x="841" y="192" type="line" smooth="yes"/>
      <point x="841" y="180" type="line" smooth="yes"/>
      <point x="826" y="139" type="line" smooth="yes"/>
      <point x="783" y="122" type="line" smooth="yes"/>
      <point x="777" y="122" type="line" smooth="yes"/>
      <point x="734" y="139" type="line" smooth="yes"/>
    </contour>
    <contour>
      <point x="584" y="192" type="line" smooth="yes"/>
      <point x="584" y="180" type="line" smooth="yes"/>
      <point x="639" y="36" type="line" smooth="yes"/>
      <point x="780" y="-14" type="line" smooth="yes"/>
      <point x="921" y="36" type="line" smooth="yes"/>
      <point x="976" y="180" type="line" smooth="yes"/>
      <point x="976" y="192" type="line" smooth="yes"/>
      <point x="921" y="336" type="line" smooth="yes"/>
      <point x="780" y="386" type="line" smooth="yes"/>
      <point x="639" y="336" type="line" smooth="yes"/>
    </contour>
    <contour>
      <point x="417" y="0" type="line" smooth="yes"/>
      <point x="709" y="700" type="line" smooth="yes"/>
      <point x="709" y="784" type="line" smooth="yes"/>
      <point x="622" y="764" type="line" smooth="yes"/>
      <point x="490" y="752" type="line" smooth="yes"/>
      <point x="384" y="758" type="line" smooth="yes"/>
      <point x="303" y="780" type="line" smooth="yes"/>
      <point x="263" y="790" type="line" smooth="yes"/>
      <point x="220" y="794" type="line" smooth="yes"/>
      <point x="79" y="744" type="line" smooth="yes"/>
      <point x="24" y="600" type="line" smooth="yes"/>
      <point x="24" y="588" type="line" smooth="yes"/>
      <point x="79" y="444" type="line" smooth="yes"/>
      <point x="220" y="394" type="line" smooth="yes"/>
      <point x="361" y="444" type="line" smooth="yes"/>
      <point x="416" y="588" type="line" smooth="yes"/>
      <point x="416" y="608" type="line" smooth="yes"/>
      <point x="435" y="607" type="line" smooth="yes"/>
      <point x="455" y="606" type="line" smooth="yes"/>
      <point x="485" y="607" type="line" smooth="yes"/>
      <point x="512" y="611" type="line" smooth="yes"/>
      <point x="257" y="0" type="line" smooth="yes"/>
    </contour>
  </outline>
</glyph>
<glyph name="ampersand" format="1">
  <advance width="700"/>
  <unicode hex="0026"/>
  <outline>
    <contour>
      <point x="250" y="602" type="line" smooth="yes"/>
      <point x="260" y="632" type="line" smooth="yes"/>
      <point x="286" y="643" type="line" smooth="yes"/>
      <point x="292" y="643" type="line" smooth="yes"/>
      <point x="318" y="632" type="line" smooth="yes"/>
      <point x="328" y="602" type="line" smooth="yes"/>
      <point x="328" y="597" type="line" smooth="yes"/>
      <point x="312" y="553" type="line" smooth="yes"/>
      <point x="271" y="518" type="line" smooth="yes"/>
      <point x="256" y="557" type="line" smooth="yes"/>
      <point x="250" y="597" type="line" smooth="yes"/>
    </contour>
    <contour>
      <point x="278" y="144" type="line" smooth="yes"/>
      <point x="221" y="167" type="line" smooth="yes"/>
      <point x="201" y="231" type="line" smooth="yes"/>
      <point x="201" y="236" type="line" smooth="yes"/>
      <point x="207" y="271" type="line" smooth="yes"/>
      <point x="222" y="300" type="line" smooth="yes"/>
      <point x="342" y="153" type="line" smooth="yes"/>
      <point x="314" y="146" type="line" smooth="yes"/>
      <point x="283" y="144" type="line" smooth="yes"/>
    </contour>
    <contour>
      <point x="246" y="-14" type="line" smooth="yes"/>
      <point x="353" y="-3" type="line" smooth="yes"/>
      <point x="444" y="28" type="line" smooth="yes"/>
      <point x="467" y="0" type="line" smooth="yes"/>
      <point x="688" y="0" type="line" smooth="yes"/>
      <point x="580" y="132" type="line" smooth="yes"/>
      <point x="656" y="263" type="line" smooth="yes"/>
      <point x="681" y="390" type="line" smooth="yes"/>
      <point x="681" y="395" type="line" smooth="yes"/>
      <point x="486" y="395" type="line" smooth="yes"/>
      <point x="486" y="393" type="line" smooth="yes"/>
      <point x="480" y="335" type="line" smooth="yes"/>
      <point x="462" y="276" type="line" smooth="yes"/>
      <point x="366" y="394" type="line" smooth="yes"/>
      <point x="468" y="469" type="line" smooth="yes"/>
      <point x="514" y="598" type="line" smooth="yes"/>
      <point x="514" y="609" type="line" smooth="yes"/>
      <point x="463" y="738" type="line" smooth="yes"/>
      <point x="289" y="794" type="line" smooth="yes"/>
      <point x="115" y="738" type="line" smooth="yes"/>
      <point x="64" y="609" type="line" smooth="yes"/>
      <point x="64" y="598" type="line" smooth="yes"/>
      <point x="78" y="505" type="line" smooth="yes"/>
      <point x="118" y="430" type="line" smooth="yes"/>
      <point x="43" y="350" type="line" smooth="yes"/>
      <point x="12" y="224" type="line" smooth="yes"/>
      <point x="12" y="213" type="line" smooth="yes"/>
      <point x="73" y="49" type="line" smooth="yes"/>
    </contour>
  </outline>
</glyph>
<glyph name="parenleft" format="1">
  <advance width="380"/>
  <unicode hex="0028"/>
  <outline>
    <contour>
      <point x="35" y="350" type="line" smooth="yes"/>
      <point x="75" y="72" type="line" smooth="yes"/>
      <point x="175" y="-120" type="line" smooth="yes"/>
      <point x="366" y="-120" type="line" smooth="yes"/>
      <point x="263" y="87" type="line" smooth="yes"/>
      <point x="220" y="350" type="line" smooth="yes"/>
      <point x="220" y="370" type="line" smooth="yes"/>
      <point x="263" y="633" type="line" smooth="yes"/>
      <point x="366" y="840" type="line" smooth="yes"/>
      <point x="175" y="840" type="line" smooth="yes"/>
      <point x="75" y="648" type="line" smooth="yes"/>
      <point x="35" y="370" type="line" smooth="yes"/>
    </contour>
  </outline>
</glyph>
<glyph name="parenright" format="1">
  <advance width="380"/>
  <unicode hex="0029"/>
  <outline>
    <contour>
      <point x="345" y="370" type="line" smooth="yes"/>
      <point x="305" y="648" type="line" smooth="yes"/>
      <point x="205" y="840" type="line" smooth="yes"/>
      <point x="14" y="840" type="line" smooth="yes"/>
      <point x="117" y="633" type="line" smooth="yes"/>
      <point x="160" y="370" type="line" smooth="yes"/>
      <point x="160" y="350" type="line" smooth="yes"/>
      <point x="117" y="87" type="line" smooth="yes"/>
      <point x="14" y="-120" type="line" smooth="yes"/>
      <point x="205" y="-120" type="line" smooth="yes"/>
      <point x="305" y="72" type="line" smooth="yes"/>
      <point x="345" y="350" type="line" smooth="yes"/>
    </contour>
  </outline>
</glyph>
<glyph name="zero" format="1">
  <advance width="600"/>
  <unicode hex="0030"/>
  <outline>
    <contour>
      <point x="374" y="560" type="line" smooth="yes"/>
      <point x="374" y="220" type="line" smooth="yes"/>
      <point x="356" y="168" type="line" smooth="yes"/>
      <point x="302" y="148" type="line" smooth="yes"/>
      <point x="298" y="148" type="line" smooth="yes"/>
      <point x="244" y="168" type="line" smooth="yes"/>
      <point x="226" y="220" type="line" smooth="yes"/>
      <point x="226" y="560" type="line" smooth="yes"/>
      <point x="244" y="612" type="line" smooth="yes"/>
      <point x="298" y="632" type="line" smooth="yes"/>
      <point x="302" y="632" type="line" smooth="yes"/>
      <point x="356" y="612" type="line" smooth="yes"/>
    </contour>
    <contour>
      <point x="560" y="220" type="line" smooth="yes"/>
      <point x="560" y="560" type="line" smooth="yes"/>
      <point x="494" y="728" type="line" smooth="yes"/>
      <point x="300" y="794" type="line" smooth="yes"/>
      <point x="106" y="728" type="line" smooth="yes"/>
      <point x="40" y="560" type="line" smooth="yes"/>
      <point x="40" y="220" type="line" smooth="yes"/>
      <point x="106" y="52" type="line" smooth="yes"/>
      <point x="300" y="-14" type="line" smooth="yes"/>
      <point x="494" y="52" type="line" smooth="yes"/>
    </contour>
  </outline>
</glyph>
<glyph name="one" format="1">
  <advance width="600"/>
  <unicode hex="0031"/>
  <outline>
    <contour>
      <point x="565" y="0" type="line" smooth="yes"/>
      <point x="565" y="162" type="line" smooth="yes"/>
      <point x="403" y="162" type="line" smooth="yes"/>
      <point x="403" y="780" type="line" smooth="yes"/>
      <point x="263" y="780" type="line" smooth="yes"/>
      <point x="20" y="615" type="line" smooth="yes"/>
      <point x="111" y="481" type="line" smooth="yes"/>
      <point x="217" y="552" type="line" smooth="yes"/>
      <point x="217" y="162" type="line" smooth="yes"/>
      <point x="55" y="162" type="line" smooth="yes"/>
      <point x="55" y="0" type="line" smooth="yes"/>
    </contour>
  </outline>
</glyph>
<glyph name="three" format="1">
  <advance width="600"/>
  <unicode hex="0033"/>
  <outline>
    <contour>
      <point x="221" y="250" type="line" smooth="yes"/>
      <point x="35" y="250" type="line" smooth="yes"/>
      <point x="35" y="236" type="line" smooth="yes"/>
      <point x="102" y="51" type="line" smooth="yes"/>
      <point x="300" y="-14" type="line" smooth="yes"/>
      <point x="507" y="64" type="line" smooth="yes"/>
      <point x="565" y="211" type="line" smooth="yes"/>
      <point x="565" y="231" type="line" smooth="yes"/>
      <point x="539" y="335" type="line" smooth="yes"/>
      <point x="476" y="399" type="line" smooth="yes"/>
      <point x="536" y="464" type="line" smooth="yes"/>
      <point x="560" y="565" type="line" smooth="yes"/>
      <point x="560" y="585" type="line" smooth="yes"/>
      <point x="505" y="722" type="line" smooth="yes"/>
      <point x="300" y="794" type="line" smooth="yes"/>
      <point x="104" y="731" type="line" smooth="yes"/>
      <point x="40" y="539" type="line" smooth="yes"/>
      <point x="40" y="520" type="line" smooth="yes"/>
      <point x="226" y="520" type="line" smooth="yes"/>
      <point x="246" y="608" type="line" smooth="yes"/>
      <point x="295" y="632" type="line" smooth="yes"/>
      <point x="305" y="632" type="line" smooth="yes"/>
      <point x="354" y="613" type="line" smooth="yes"/>
      <point x="374" y="563" type="line" smooth="yes"/>
      <point x="374" y="553" type="line" smooth="yes"/>
      <point x="356" y="498" type="line" smooth="yes"/>
      <point x="302" y="479" type="line" smooth="yes"/>
      <point x="200" y="479" type="line" smooth="yes"/>
      <point x="200" y="317" type="line" smooth="yes"/>
      <point x="305" y="317" type="line" smooth="yes"/>
      <point x="360" y="298" type="line" smooth="yes"/>
      <point x="379" y="243" type="line" smooth="yes"/>
      <point x="379" y="233" type="line" smooth="yes"/>
      <point x="357" y="168" type="line" smooth="yes"/>
      <point x="305" y="148" type="line" smooth="yes"/>
      <point x="295" y="148" type="line" smooth="yes"/>
      <point x="243" y="169" type="line" smooth="yes"/>
    </contour>
  </outline>
</glyph>
<glyph name="five" format="1">
  <advance width="600"/>
  <unicode hex="0035"/>
  <outline>
    <contour>
      <point x="35" y="250" type="line" smooth="yes"/>
      <point x="35" y="236" type="line" smooth="yes"/>
      <point x="102" y="51" type="line" smooth="yes"/>
      <point x="300" y="-14" type="line" smooth="yes"/>
      <point x="500" y="55" type="line" smooth="yes"/>
      <point x="565" y="238" type="line" smooth="yes"/>
      <point x="565" y="258" type="line" smooth="yes"/>
      <point x="501" y="441" type="line" smooth="yes"/>
      <point x="310" y="510" type="line" smooth="yes"/>
      <point x="257" y="505" type="line" smooth="yes"/>
      <point x="209" y="492" type="line" smooth="yes"/>
      <point x="214" y="618" type="line" smooth="yes"/>
      <point x="555" y="618" type="line" smooth="yes"/>
      <point x="555" y="780" type="line" smooth="yes"/>
      <point x="59" y="780" type="line" smooth="yes"/>
      <point x="41" y="355" type="line" smooth="yes"/>
      <point x="201" y="300" type="line" smooth="yes"/>
      <point x="240" y="336" type="line" smooth="yes"/>
      <point x="290" y="348" type="line" smooth="yes"/>
      <point x="295" y="348" type="line" smooth="yes"/>
      <point x="355" y="327" type="line" smooth="yes"/>
      <point x="379" y="253" type="line" smooth="yes"/>
      <point x="379" y="243" type="line" smooth="yes"/>
      <point x="357" y="169" type="line" smooth="yes"/>
      <point x="305" y="148" type="line" smooth="yes"/>
      <point x="295" y="148" type="line" smooth="yes"/>
      <point x="243" y="169" type="line" smooth="yes"/>
      <point x="221" y="250" type="line" smooth="yes"/>
    </contour>
  </outline>
</glyph>
<glyph name="six" format="1">
  <advance width="600"/>
  <unicode hex="0036"/>
  <outline>
    <contour>
      <point x="302" y="331" type="line" smooth="yes"/>
      <point x="307" y="331" type="line" smooth="yes"/>
      <point x="358" y="313" type="line" smooth="yes"/>
      <point x="379" y="251" type="line" smooth="yes"/>
      <point x="379" y="231" type="line" smooth="yes"/>
      <point x="356" y="169" type="line" smooth="yes"/>
      <point x="303" y="148" type="line" smooth="yes"/>
      <point x="297" y="148" type="line" smooth="yes"/>
      <point x="243" y="176" type="line" smooth="yes"/>
      <point x="221" y="260" type="line" smooth="yes"/>
      <point x="221" y="286" type="line" smooth="yes"/>
      <point x="259" y="321" type="line" smooth="yes"/>
    </contour>
    <contour>
      <point x="525" y="794" type="line" smooth="yes"/>
      <point x="305" y="765" type="line" smooth="yes"/>
      <point x="145" y="650" type="line" smooth="yes"/>
      <point x="59" y="475" type="line" smooth="yes"/>
      <point x="35" y="290" type="line" smooth="yes"/>
      <point x="35" y="276" type="line" smooth="yes"/>
      <point x="102" y="67" type="line" smooth="yes"/>
      <point x="300" y="-14" type="line" smooth="yes"/>
      <point x="500" y="54" type="line" smooth="yes"/>
      <point x="565" y="236" type="line" smooth="yes"/>
      <point x="565" y="246" type="line" smooth="yes"/>
      <point x="507" y="426" type="line" smooth="yes"/>
      <point x="351" y="492" type="line" smooth="yes"/>
      <point x="292" y="484" type="line" smooth="yes"/>
      <point x="244" y="464" type="line" smooth="yes"/>
      <point x="263" y="509" type="line" smooth="yes"/>
      <point x="288" y="547" type="line" smooth="yes"/>
      <point x="380" y="610" type="line" smooth="yes"/>
      <point x="525" y="630" type="line" smooth="yes"/>
    </contour>
  </outline>
</glyph>
<glyph name="nine" format="1">
  <advance width="600"/>
  <unicode hex="0039"/>
  <outline>
    <contour>
      <point x="298" y="449" type="line" smooth="yes"/>
      <point x="293" y="449" type="line" smooth="yes"/>
      <point x="242" y="467" type="line" smooth="yes"/>
      <point x="221" y="529" type="line" smooth="yes"/>
      <point x="221" y="549" type="line" smooth="yes"/>
      <point x="244" y="611" type="line" smooth="yes"/>
      <point x="297" y="632" type="line" smooth="yes"/>
      <point x="303" y="632" type="line" smooth="yes"/>
      <point x="357" y="604" type="line" smooth="yes"/>
      <point x="379" y="520" type="line" smooth="yes"/>
      <point x="379" y="493" type="line" smooth="yes"/>
      <point x="341" y="459" type="line" smooth="yes"/>
    </contour>
    <contour>
      <point x="75" y="-14" type="line" smooth="yes"/>
      <point x="295" y="15" type="line" smooth="yes"/>
      <point x="455" y="130" type="line" smooth="yes"/>
      <point x="541" y="305" type="line" smooth="yes"/>
      <point x="565" y="490" type="line" smooth="yes"/>
      <point x="565" y="504" type="line" smooth="yes"/>
      <point x="499" y="713" type="line" smooth="yes"/>
      <point x="300" y="794" type="line" smooth="yes"/>
      <point x="100" y="726" type="line" smooth="yes"/>
      <point x="35" y="544" type="line" smooth="yes"/>
      <point x="35" y="534" type="line" smooth="yes"/>
      <point x="93" y="354" type="line" smooth="yes"/>
      <point x="249" y="288" type="line" smooth="yes"/>
      <point x="307" y="295" type="line" smooth="yes"/>
      <point x="356" y="315" type="line" smooth="yes"/>
      <point x="337" y="270" type="line" smooth="yes"/>
      <point x="312" y="233" type="line" smooth="yes"/>
      <point x="220" y="170" type="line" smooth="yes"/>
      <point x="75" y="150" type="line" smooth="yes"/>
    </contour>
  </outline>
</glyph>
<glyph name="semicolon" format="1">
  <advance width="280"/>
  <unicode hex="003B"/>
  <outline>
    <contour>
      <point x="235" y="485" type="line" smooth="yes"/>
      <point x="45" y="485" type="line" smooth="yes"/>
      <point x="45" y="295" type="line" smooth="yes"/>
      <point x="235" y="295" type="line" smooth="yes"/>
    </contour>
    <contour>
      <point x="235" y="190" type="line" smooth="yes"/>
      <point x="45" y="190" type="line" smooth="yes"/>
      <point x="45" y="0" type="line" smooth="yes"/>
      <point x="139" y="0" type="line" smooth="yes"/>
      <point x="106" y="-45" type="line" smooth="yes"/>
      <point x="45" y="-60" type="line" smooth="yes"/>
      <point x="45" y="-150" type="line" smooth="yes"/>
      <point x="187" y="-102" type="line" smooth="yes"/>
      <point x="235" y="40" type="line" smooth="yes"/>
    </contour>
  </outline>
</glyph>
<glyph name="less" format="1">
  <advance width="600"/>
  <unicode hex="003C"/>
  <outline>
    <contour>
      <point x="40" y="480" type="line" smooth="yes"/>
      <point x="40" y="300" type="line" smooth="yes"/>
      <point x="560" y="104" type="line" smooth="yes"/>
      <point x="560" y="286" type="line" smooth="yes"/>
      <point x="261" y="390" type="line" smooth="yes"/>
      <point x="560" y="494" type="line" smooth="yes"/>
      <point x="560" y="676" type="line" smooth="yes"/>
    </contour>
  </outline>
</glyph>
<glyph name="equal" format="1">
  <advance width="600"/>
  <unicode hex="003D"/>
  <outline>
    <contour>
      <point x="40" y="198" type="line" smooth="yes"/>
      <point x="560" y="198" type="line" smooth="yes"/>
      <point x="560" y="362" type="line" smooth="yes"/>
      <point x="40" y="362" type="line" smooth="yes"/>
    </contour>
    <contour>
      <point x="40" y="418" type="line" smooth="yes"/>
      <point x="560" y="418" type="line" smooth="yes"/>
      <point x="560" y="582" type="line" smooth="yes"/>
      <point x="40" y="582" type="line" smooth="yes"/>
    </contour>
  </outline>
</glyph>
<glyph name="greater" format="1">
  <advance width="600"/>
  <unicode hex="003E"/>
  <outline>
    <contour>
      <point x="560" y="480" type="line" smooth="yes"/>
      <point x="40" y="676" type="line" smooth="yes"/>
      <point x="40" y="494" type="line" smooth="yes"/>
      <point x="339" y="390" type="line" smooth="yes"/>
      <point x="40" y="286" type="line" smooth="yes"/>
      <point x="40" y="104" type="line" smooth="yes"/>
      <point x="560" y="300" type="line" smooth="yes"/>
    </contour>
  </outline>
</glyph>
<glyph name="question" format="1">
  <advance width="510"/>
  <unicode hex="003F"/>
  <outline>
    <contour>
      <point x="345" y="190" type="line" smooth="yes"/>
      <point x="155" y="190" type="line" smooth="yes"/>
      <point x="155" y="0" type="line" smooth="yes"/>
      <point x="345" y="0" type="line" smooth="yes"/>
    </contour>
    <contour>
      <point x="260" y="632" type="line" smooth="yes"/>
      <point x="298" y="618" type="line" smooth="yes"/>
      <point x="309" y="580" type="line" smooth="yes"/>
      <point x="241" y="452" type="line" smooth="yes"/>
      <point x="185" y="240" type="line" smooth="yes"/>
      <point x="315" y="240" type="line" smooth="yes"/>
      <point x="411" y="411" type="line" smooth="yes"/>
      <point x="495" y="595" type="line" smooth="yes"/>
      <point x="448" y="729" type="line" smooth="yes"/>
      <point x="260" y="794" type="line" smooth="yes"/>
      <point x="74" y="731" type="line" smooth="yes"/>
      <point x="20" y="539" type="line" smooth="yes"/>
      <point x="20" y="520" type="line" smooth="yes"/>
      <point x="206" y="520" type="line" smooth="yes"/>
      <point x="218" y="608" type="line" smooth="yes"/>
    </contour>
  </outline>
</glyph>
<glyph name="at" format="1">
  <advance width="1000"/>
  <unicode hex="0040"/>
  <outline>
    <contour>
      <point x="483" y="187" type="line" smooth="yes"/>
      <point x="434" y="210" type="line" smooth="yes"/>
      <point x="418" y="277" type="line" smooth="yes"/>
      <point x="418" y="313" type="line" smooth="yes"/>
      <point x="434" y="380" type="line" smooth="yes"/>
      <point x="483" y="403" type="line" smooth="yes"/>
      <point x="528" y="390" type="line" smooth="yes"/>
      <point x="552" y="366" type="line" smooth="yes"/>
      <point x="552" y="224" type="line" smooth="yes"/>
      <point x="528" y="200" type="line" smooth="yes"/>
    </contour>
    <contour>
      <point x="517" y="-96" type="line" smooth="yes"/>
      <point x="249" y="-6" type="line" smooth="yes"/>
      <point x="145" y="270" type="line" smooth="yes"/>
      <point x="145" y="310" type="line" smooth="yes"/>
      <point x="249" y="586" type="line" smooth="yes"/>
      <point x="512" y="676" type="line" smooth="yes"/>
      <point x="518" y="676" type="line" smooth="yes"/>
      <point x="746" y="624" type="line" smooth="yes"/>
      <point x="853" y="401" type="line" smooth="yes"/>
      <point x="853" y="371" type="line" smooth="yes"/>
      <point x="824" y="225" type="line" smooth="yes"/>
      <point x="712" y="178" type="line" smooth="yes"/>
      <point x="712" y="396" type="line" smooth="yes"/>
      <point x="722" y="530" type="line" smooth="yes"/>
      <point x="577" y="530" type="line" smooth="yes"/>
      <point x="566" y="474" type="line" smooth="yes"/>
      <point x="513" y="524" type="line" smooth="yes"/>
      <point x="432" y="544" type="line" smooth="yes"/>
      <point x="296" y="480" type="line" smooth="yes"/>
      <point x="250" y="313" type="line" smooth="yes"/>
      <point x="250" y="277" type="line" smooth="yes"/>
      <point x="296" y="110" type="line" smooth="yes"/>
      <point x="432" y="46" type="line" smooth="yes"/>
      <point x="513" y="65" type="line" smooth="yes"/>
      <point x="566" y="115" type="line" smooth="yes"/>
      <point x="577" y="60" type="line" smooth="yes"/>
      <point x="700" y="60" type="line" smooth="yes"/>
      <point x="896" y="126" type="line" smooth="yes"/>
      <point x="975" y="371" type="line" smooth="yes"/>
      <point x="975" y="401" type="line" smooth="yes"/>
      <point x="837" y="704" type="line" smooth="yes"/>
      <point x="515" y="794" type="line" smooth="yes"/>
      <point x="165" y="670" type="line" smooth="yes"/>
      <point x="25" y="310" type="line" smooth="yes"/>
      <point x="25" y="270" type="line" smooth="yes"/>
      <point x="165" y="-90" type="line" smooth="yes"/>
      <point x="520" y="-214" type="line" smooth="yes"/>
      <point x="710" y="-189" type="line" smooth="yes"/>
      <point x="921" y="-77" type="line" smooth="yes"/>
      <point x="853" y="15" type="line" smooth="yes"/>
      <point x="697" y="-68" type="line" smooth="yes"/>
      <point x="523" y="-96" type="line" smooth="yes"/>
    </contour>
  </outline>
</glyph>
<glyph name="B" format="1">
  <advance width="645"/>
  <unicode hex="0042"/>
  <outline>
    <contour>
      <point x="322" y="616" type="line" smooth="yes"/>
      <point x="366" y="605" type="line" smooth="yes"/>
      <point x="388" y="554" type="line" smooth="yes"/>
      <point x="388" y="542" type="line" smooth="yes"/>
      <point x="366" y="491" type="line" smooth="yes"/>
      <point x="322" y="480" type="line" smooth="yes"/>
      <point x="240" y="480" type="line" smooth="yes"/>
      <point x="240" y="616" type="line" smooth="yes"/>
    </contour>
    <contour>
      <point x="335" y="316" type="line" smooth="yes"/>
      <point x="383" y="303" type="line" smooth="yes"/>
      <point x="408" y="244" type="line" smooth="yes"/>
      <point x="408" y="236" type="line" smooth="yes"/>
      <point x="383" y="177" type="line" smooth="yes"/>
      <point x="335" y="164" type="line" smooth="yes"/>
      <point x="240" y="164" type="line" smooth="yes"/>
      <point x="240" y="316" type="line" smooth="yes"/>
    </contour>
    <contour>
      <point x="50" y="780" type="line" smooth="yes"/>
      <point x="50" y="0" type="line" smooth="yes"/>
      <point x="330" y="0" type="line" smooth="yes"/>
      <point x="512" y="39" type="line" smooth="yes"/>
      <point x="600" y="230" type="line" smooth="yes"/>
      <point x="600" y="250" type="line" smooth="yes"/>
      <point x="576" y="346" type="line" smooth="yes"/>
      <point x="515" y="403" type="line" smooth="yes"/>
      <point x="562" y="456" type="line" smooth="yes"/>
      <point x="580" y="538" type="line" smooth="yes"/>
      <point x="580" y="558" type="line" smooth="yes"/>
      <point x="497" y="743" type="line" smooth="yes"/>
      <point x="325" y="780" type="line" smooth="yes"/>
    </contour>
  </outline>
</glyph>
<glyph name="C" format="1">
  <advance width="660"/>
  <unicode hex="0043"/>
  <outline>
    <contour>
      <point x="226" y="370" type="line" smooth="yes"/>
      <point x="226" y="410" type="line" smooth="yes"/>
      <point x="245" y="571" type="line" smooth="yes"/>
      <point x="335" y="630" type="line" smooth="yes"/>
      <point x="345" y="630" type="line" smooth="yes"/>
      <point x="418" y="589" type="line" smooth="yes"/>
      <point x="435" y="480" type="line" smooth="yes"/>
      <point x="625" y="480" type="line" smooth="yes"/>
      <point x="625" y="519" type="line" smooth="yes"/>
      <point x="552" y="732" type="line" smooth="yes"/>
      <point x="335" y="794" type="line" smooth="yes"/>
      <point x="105" y="703" type="line" smooth="yes"/>
      <point x="33" y="410" type="line" smooth="yes"/>
      <point x="33" y="370" type="line" smooth="yes"/>
      <point x="105" y="77" type="line" smooth="yes"/>
      <point x="335" y="-14" type="line" smooth="yes"/>
      <point x="552" y="48" type="line" smooth="yes"/>
      <point x="625" y="261" type="line" smooth="yes"/>
      <point x="625" y="270" type="line" smooth="yes"/>
      <point x="435" y="270" type="line" smooth="yes"/>
      <point x="415" y="184" type="line" smooth="yes"/>
      <point x="345" y="150" type="line" smooth="yes"/>
      <point x="335" y="150" type="line" smooth="yes"/>
      <point x="245" y="209" type="line" smooth="yes"/>
    </contour>
  </outline>
</glyph>
<glyph name="F" format="1">
  <advance width="560"/>
  <unicode hex="0046"/>
  <outline>
    <contour>
      <point x="50" y="780" type="line" smooth="yes"/>
      <point x="50" y="0" type="line" smooth="yes"/>
      <point x="240" y="0" type="line" smooth="yes"/>
      <point x="240" y="316" type="line" smooth="yes"/>
      <point x="490" y="316" type="line" smooth="yes"/>
      <point x="490" y="480" type="line" smooth="yes"/>
      <point x="240" y="480" type="line" smooth="yes"/>
      <point x="240" y="616" type="line" smooth="yes"/>
      <point x="540" y="616" type="line" smooth="yes"/>
      <point x="540" y="780" type="line" smooth="yes"/>
    </contour>
  </outline>
</glyph>
<glyph name="G" format="1">
  <advance width="680"/>
  <unicode hex="0047"/>
  <outline>
    <contour>
      <point x="350" y="-14" type="line" smooth="yes"/>
      <point x="521" y="13" type="line" smooth="yes"/>
      <point x="634" y="78" type="line" smooth="yes"/>
      <point x="634" y="434" type="line" smooth="yes"/>
      <point x="350" y="434" type="line" smooth="yes"/>
      <point x="350" y="270" type="line" smooth="yes"/>
      <point x="444" y="270" type="line" smooth="yes"/>
      <point x="444" y="170" type="line" smooth="yes"/>
      <point x="404" y="155" type="line" smooth="yes"/>
      <point x="355" y="150" type="line" smooth="yes"/>
      <point x="345" y="150" type="line" smooth="yes"/>
      <point x="246" y="209" type="line" smooth="yes"/>
      <point x="226" y="370" type="line" smooth="yes"/>
      <point x="226" y="410" type="line" smooth="yes"/>
      <point x="246" y="571" type="line" smooth="yes"/>
      <point x="340" y="630" type="line" smooth="yes"/>
      <point x="350" y="630" type="line" smooth="yes"/>
      <point x="428" y="589" type="line" smooth="yes"/>
      <point x="445" y="480" type="line" smooth="yes"/>
      <point x="635" y="480" type="line" smooth="yes"/>
      <point x="635" y="519" type="line" smooth="yes"/>
      <point x="559" y="732" type="line" smooth="yes"/>
      <point x="340" y="794" type="line" smooth="yes"/>
      <point x="108" y="703" type="line" smooth="yes"/>
      <point x="33" y="410" type="line" smooth="yes"/>
      <point x="33" y="370" type="line" smooth="yes"/>
      <point x="109" y="77" type="line" smooth="yes"/>
    </contour>
  </outline>
</glyph>
<glyph name="O" format="1">
  <advance width="680"/>
  <unicode hex="004F"/>
  <outline>
    <contour>
      <point x="335" y="150" type="line" smooth="yes"/>
      <point x="247" y="209" type="line" smooth="yes"/>
      <point x="226" y="370" type="line" smooth="yes"/>
      <point x="226" y="410" type="line" smooth="yes"/>
      <point x="247" y="571" type="line" smooth="yes"/>
      <point x="335" y="630" type="line" smooth="yes"/>
      <point x="345" y="630" type="line" smooth="yes"/>
      <point x="433" y="571" type="line" smooth="yes"/>
      <point x="454" y="410" type="line" smooth="yes"/>
      <point x="454" y="370" type="line" smooth="yes"/>
      <point x="433" y="209" type="line" smooth="yes"/>
      <point x="345" y="150" type="line" smooth="yes"/>
    </contour>
    <contour>
      <point x="340" y="-14" type="line" smooth="yes"/>
      <point x="572" y="77" type="line" smooth="yes"/>
      <point x="647" y="370" type="line" smooth="yes"/>
      <point x="647" y="410" type="line" smooth="yes"/>
      <point x="572" y="703" type="line" smooth="yes"/>
      <point x="340" y="794" type="line" smooth="yes"/>
      <point x="108" y="703" type="line" smooth="yes"/>
      <point x="33" y="410" type="line" smooth="yes"/>
      <point x="33" y="370" type="line" smooth="yes"/>
      <point x="108" y="77" type="line" smooth="yes"/>
    </contour>
  </outline>
</glyph>
<glyph name="P" format="1">
  <advance width="620"/>
  <unicode hex="0050"/>
  <outline>
    <contour>
      <point x="240" y="432" type="line" smooth="yes"/>
      <point x="240" y="616" type="line" smooth="yes"/>
      <point x="327" y="616" type="line" smooth="yes"/>
      <point x="381" y="600" type="line" smooth="yes"/>
      <point x="408" y="528" type="line" smooth="yes"/>
      <point x="408" y="520" type="line" smooth="yes"/>
      <point x="381" y="448" type="line" smooth="yes"/>
      <point x="327" y="432" type="line" smooth="yes"/>
    </contour>
    <contour>
      <point x="240" y="268" type="line" smooth="yes"/>
      <point x="319" y="268" type="line" smooth="yes"/>
      <point x="509" y="310" type="line" smooth="yes"/>
      <point x="600" y="514" type="line" smooth="yes"/>
      <point x="600" y="534" type="line" smooth="yes"/>
      <point x="509" y="738" type="line" smooth="yes"/>
      <point x="319" y="780" type="line" smooth="yes"/>
      <point x="50" y="780" type="line" smooth="yes"/>
      <point x="50" y="0" type="line" smooth="yes"/>
      <point x="240" y="0" type="line" smooth="yes"/>
    </contour>
  </outline>
</glyph>
<glyph name="Q" format="1">
  <advance width="680"/>
  <unicode hex="0051"/>
  <outline>
    <contour>
      <point x="400" y="273" type="line" smooth="yes"/>
      <point x="260" y="273" type="line" smooth="yes"/>
      <point x="306" y="153" type="line" smooth="yes"/>
      <point x="242" y="223" type="line" smooth="yes"/>
      <point x="226" y="370" type="line" smooth="yes"/>
      <point x="226" y="410" type="line" smooth="yes"/>
      <point x="247" y="571" type="line" smooth="yes"/>
      <point x="335" y="630" type="line" smooth="yes"/>
      <point x="345" y="630" type="line" smooth="yes"/>
      <point x="433" y="571" type="line" smooth="yes"/>
      <point x="454" y="410" type="line" smooth="yes"/>
      <point x="454" y="370" type="line" smooth="yes"/>
      <point x="449" y="272" type="line" smooth="yes"/>
      <point x="429" y="200" type="line" smooth="yes"/>
    </contour>
    <contour>
      <point x="340" y="-14" type="line" smooth="yes"/>
      <point x="356" y="-14" type="line" smooth="yes"/>
      <point x="371" y="-13" type="line" smooth="yes"/>
      <point x="405" y="-100" type="line" smooth="yes"/>
      <point x="550" y="-100" type="line" smooth="yes"/>
      <point x="502" y="19" type="line" smooth="yes"/>
      <point x="611" y="144" type="line" smooth="yes"/>
      <point x="647" y="370" type="line" smooth="yes"/>
      <point x="647" y="410" type="line" smooth="yes"/>
      <point x="572" y="703" type="line" smooth="yes"/>
      <point x="340" y="794" type="line" smooth="yes"/>
      <point x="108" y="703" type="line" smooth="yes"/>
      <point x="33" y="410" type="line" smooth="yes"/>
      <point x="33" y="370" type="line" smooth="yes"/>
      <point x="108" y="77" type="line" smooth="yes"/>
    </contour>
  </outline>
</glyph>
<glyph name="underscore" format="1">
  <advance width="320"/>
  <unicode hex="005F"/>
  <outline>
    <contour>
      <point x="40" y="-200" type="line" smooth="yes"/>
      <point x="280" y="-200" type="line" smooth="yes"/>
      <point x="280" y="-40" type="line" smooth="yes"/>
      <point x="40" y="-40" type="line" smooth="yes"/>
    </contour>
  </outline>
</glyph>
<glyph name="b" format="1">
  <advance width="585"/>
  <unicode hex="0062"/>
  <outline>
    <contour>
      <point x="233" y="345" type="line" smooth="yes"/>
      <point x="260" y="371" type="line" smooth="yes"/>
      <point x="310" y="386" type="line" smooth="yes"/>
      <point x="362" y="360" type="line" smooth="yes"/>
      <point x="377" y="285" type="line" smooth="yes"/>
      <point x="377" y="245" type="line" smooth="yes"/>
      <point x="362" y="170" type="line" smooth="yes"/>
      <point x="310" y="144" type="line" smooth="yes"/>
      <point x="260" y="159" type="line" smooth="yes"/>
      <point x="233" y="185" type="line" smooth="yes"/>
    </contour>
    <contour>
      <point x="233" y="800" type="line" smooth="yes"/>
      <point x="49" y="800" type="line" smooth="yes"/>
      <point x="49" y="150" type="line" smooth="yes"/>
      <point x="39" y="0" type="line" smooth="yes"/>
      <point x="205" y="0" type="line" smooth="yes"/>
      <point x="216" y="61" type="line" smooth="yes"/>
      <point x="275" y="7" type="line" smooth="yes"/>
      <point x="365" y="-14" type="line" smooth="yes"/>
      <point x="517" y="57" type="line" smooth="yes"/>
      <point x="560" y="245" type="line" smooth="yes"/>
      <point x="560" y="285" type="line" smooth="yes"/>
      <point x="517" y="473" type="line" smooth="yes"/>
      <point x="365" y="544" type="line" smooth="yes"/>
      <point x="288" y="529" type="line" smooth="yes"/>
      <point x="233" y="490" type="line" smooth="yes"/>
    </contour>
  </outline>
</glyph>
<glyph name="f" format="1">
  <advance width="420"/>
  <unicode hex="0066"/>
  <outline>
    <contour>
      <point x="279" y="585" type="line" smooth="yes"/>
      <point x="299" y="643" type="line" smooth="yes"/>
      <point x="350" y="656" type="line" smooth="yes"/>
      <point x="377" y="654" type="line" smooth="yes"/>
      <point x="396" y="650" type="line" smooth="yes"/>
      <point x="396" y="800" type="line" smooth="yes"/>
      <point x="367" y="809" type="line" smooth="yes"/>
      <point x="307" y="814" type="line" smooth="yes"/>
      <point x="153" y="768" type="line" smooth="yes"/>
      <point x="95" y="605" type="line" smooth="yes"/>
      <point x="95" y="530" type="line" smooth="yes"/>
      <point x="15" y="530" type="line" smooth="yes"/>
      <point x="15" y="370" type="line" smooth="yes"/>
      <point x="95" y="370" type="line" smooth="yes"/>
      <point x="95" y="0" type="line" smooth="yes"/>
      <point x="279" y="0" type="line" smooth="yes"/>
      <point x="279" y="370" type="line" smooth="yes"/>
      <point x="386" y="370" type="line" smooth="yes"/>
      <point x="386" y="530" type="line" smooth="yes"/>
      <point x="279" y="530" type="line" smooth="yes"/>
    </contour>
  </outline>
</glyph>
<glyph name="j" format="1">
  <advance width="280"/>
  <unicode hex="006A"/>
  <outline>
    <contour>
      <point x="235" y="780" type="line" smooth="yes"/>
      <point x="45" y="780" type="line" smooth="yes"/>
      <point x="45" y="590" type="line" smooth="yes"/>
      <point x="235" y="590" type="line" smooth="yes"/>
    </contour>
    <contour>
      <point x="48" y="15" type="line" smooth="yes"/>
      <point x="28" y="-43" type="line" smooth="yes"/>
      <point x="-23" y="-56" type="line" smooth="yes"/>
      <point x="-50" y="-54" type="line" smooth="yes"/>
      <point x="-69" y="-50" type="line" smooth="yes"/>
      <point x="-69" y="-200" type="line" smooth="yes"/>
      <point x="-40" y="-209" type="line" smooth="yes"/>
      <point x="20" y="-214" type="line" smooth="yes"/>
      <point x="174" y="-168" type="line" smooth="yes"/>
      <point x="232" y="-5" type="line" smooth="yes"/>
      <point x="232" y="530" type="line" smooth="yes"/>
      <point x="48" y="530" type="line" smooth="yes"/>
    </contour>
  </outline>
</glyph>
<glyph name="o" format="1">
  <advance width="560"/>
  <unicode hex="006F"/>
  <outline>
    <contour>
      <point x="280" y="144" type="line" smooth="yes"/>
      <point x="225" y="170" type="line" smooth="yes"/>
      <point x="208" y="245" type="line" smooth="yes"/>
      <point x="208" y="285" type="line" smooth="yes"/>
      <point x="225" y="360" type="line" smooth="yes"/>
      <point x="280" y="386" type="line" smooth="yes"/>
      <point x="335" y="360" type="line" smooth="yes"/>
      <point x="352" y="285" type="line" smooth="yes"/>
      <point x="352" y="245" type="line" smooth="yes"/>
      <point x="335" y="170" type="line" smooth="yes"/>
    </contour>
    <contour>
      <point x="280" y="-14" type="line" smooth="yes"/>
      <point x="473" y="57" type="line" smooth="yes"/>
      <point x="535" y="245" type="line" smooth="yes"/>
      <point x="535" y="285" type="line" smooth="yes"/>
      <point x="473" y="473" type="line" smooth="yes"/>
      <point x="280" y="544" type="line" smooth="yes"/>
      <point x="87" y="473" type="line" smooth="yes"/>
      <point x="25" y="285" type="line" smooth="yes"/>
      <point x="25" y="245" type="line" smooth="yes"/>
      <point x="87" y="57" type="line" smooth="yes"/>
    </contour>
  </outline>
</glyph>
<glyph name="p" format="1">
  <advance width="585"/>
  <unicode hex="0070"/>
  <outline>
    <contour>
      <point x="233" y="345" type="line" smooth="yes"/>
      <point x="260" y="371" type="line" smooth="yes"/>
      <point x="310" y="386" type="line" smooth="yes"/>
      <point x="362" y="360" type="line" smooth="yes"/>
      <point x="377" y="285" type="line" smooth="yes"/>
      <point x="377" y="245" type="line" smooth="yes"/>
      <point x="362" y="170" type="line" smooth="yes"/>
      <point x="310" y="144" type="line" smooth="yes"/>
      <point x="260" y="159" type="line" smooth="yes"/>
      <point x="233" y="185" type="line" smooth="yes"/>
    </contour>
    <contour>
      <point x="365" y="-14" type="line" smooth="yes"/>
      <point x="517" y="57" type="line" smooth="yes"/>
      <point x="560" y="245" type="line" smooth="yes"/>
      <point x="560" y="285" type="line" smooth="yes"/>
      <point x="517" y="473" type="line" smooth="yes"/>
      <point x="365" y="544" type="line" smooth="yes"/>
      <point x="275" y="523" type="line" smooth="yes"/>
      <point x="216" y="468" type="line" smooth="yes"/>
      <point x="205" y="530" type="line" smooth="yes"/>
      <point x="39" y="530" type="line" smooth="yes"/>
      <point x="49" y="380" type="line" smooth="yes"/>
      <point x="49" y="-200" type="line" smooth="yes"/>
      <point x="233" y="-200" type="line" smooth="yes"/>
      <point x="233" y="40" type="line" smooth="yes"/>
      <point x="288" y="1" type="line" smooth="yes"/>
    </contour>
  </outline>
</glyph>
<glyph name="q" format="1">
  <advance width="593"/>
  <unicode hex="0071"/>
  <outline>
    <contour>
      <point x="278" y="144" type="line" smooth="yes"/>
      <point x="226" y="170" type="line" smooth="yes"/>
      <point x="211" y="245" type="line" smooth="yes"/>
      <point x="211" y="285" type="line" smooth="yes"/>
      <point x="226" y="360" type="line" smooth="yes"/>
      <point x="278" y="386" type="line" smooth="yes"/>
      <point x="328" y="371" type="line" smooth="yes"/>
      <point x="355" y="345" type="line" smooth="yes"/>
      <point x="355" y="185" type="line" smooth="yes"/>
      <point x="328" y="159" type="line" smooth="yes"/>
    </contour>
    <contour>
      <point x="355" y="-200" type="line" smooth="yes"/>
      <point x="539" y="-200" type="line" smooth="yes"/>
      <point x="539" y="380" type="line" smooth="yes"/>
      <point x="549" y="530" type="line" smooth="yes"/>
      <point x="383" y="530" type="line" smooth="yes"/>
      <point x="371" y="468" type="line" smooth="yes"/>
      <point x="313" y="523" type="line" smooth="yes"/>
      <point x="223" y="544" type="line" smooth="yes"/>
      <point x="71" y="473" type="line" smooth="yes"/>
      <point x="28" y="285" type="line" smooth="yes"/>
      <point x="28" y="245" type="line" smooth="yes"/>
      <point x="71" y="57" type="line" smooth="yes"/>
      <point x="223" y="-14" type="line" smooth="yes"/>
      <point x="300" y="1" type="line" smooth="yes"/>
      <point x="355" y="40" type="line" smooth="yes"/>
    </contour>
  </outline>
</glyph>
<glyph name="t" format="1">
  <advance width="440"/>
  <unicode hex="0074"/>
  <outline>
    <contour>
      <point x="279" y="530" type="line" smooth="yes"/>
      <point x="279" y="680" type="line" smooth="yes"/>
      <point x="95" y="680" type="line" smooth="yes"/>
      <point x="95" y="530" type="line" smooth="yes"/>
      <point x="15" y="530" type="line" smooth="yes"/>
      <point x="15" y="370" type="line" smooth="yes"/>
      <point x="95" y="370" type="line" smooth="yes"/>
      <point x="95" y="195" type="line" smooth="yes"/>
      <point x="153" y="32" type="line" smooth="yes"/>
      <point x="307" y="-14" type="line" smooth="yes"/>
      <point x="367" y="-9" type="line" smooth="yes"/>
      <point x="396" y="0" type="line" smooth="yes"/>
      <point x="396" y="150" type="line" smooth="yes"/>
      <point x="377" y="146" type="line" smooth="yes"/>
      <point x="350" y="144" type="line" smooth="yes"/>
      <point x="299" y="157" type="line" smooth="yes"/>
      <point x="279" y="215" type="line" smooth="yes"/>
      <point x="279" y="370" type="line" smooth="yes"/>
      <point x="406" y="370" type="line" smooth="yes"/>
      <point x="406" y="530" type="line" smooth="yes"/>
    </contour>
  </outline>
</glyph>
<glyph name="braceright" format="1">
  <advance width="380"/>
  <unicode hex="007D"/>
  <outline>
    <contour>
      <point x="30" y="-120" type="line" smooth="yes"/>
      <point x="60" y="-120" type="line" smooth="yes"/>
      <point x="225" y="-78" type="line" smooth="yes"/>
      <point x="285" y="70" type="line" smooth="yes"/>
      <point x="285" y="208" type="line" smooth="yes"/>
      <point x="304" y="262" type="line" smooth="yes"/>
      <point x="356" y="280" type="line" smooth="yes"/>
      <point x="356" y="440" type="line" smooth="yes"/>
      <point x="302" y="459" type="line" smooth="yes"/>
      <point x="285" y="520" type="line" smooth="yes"/>
      <point x="285" y="650" type="line" smooth="yes"/>
      <point x="225" y="798" type="line" smooth="yes"/>
      <point x="60" y="840" type="line" smooth="yes"/>
      <point x="30" y="840" type="line" smooth="yes"/>
      <point x="30" y="680" type="line" smooth="yes"/>
      <point x="84" y="661" type="line" smooth="yes"/>
      <point x="101" y="600" type="line" smooth="yes"/>
      <point x="101" y="480" type="line" smooth="yes"/>
      <point x="117" y="407" type="line" smooth="yes"/>
      <point x="162" y="360" type="line" smooth="yes"/>
      <point x="117" y="313" type="line" smooth="yes"/>
      <point x="101" y="240" type="line" smooth="yes"/>
      <point x="101" y="120" type="line" smooth="yes"/>
      <point x="84" y="59" type="line" smooth="yes"/>
      <point x="30" y="40" type="line" smooth="yes"/>
    </contour>
  </outline>
</glyph>
<glyph name="asciitilde" format="1">
  <advance width="600"/>
  <unicode hex="007E"/>
  <outline>
    <contour>
      <point x="186" y="492" type="line" smooth="yes"/>
      <point x="92" y="463" type="line" smooth="yes"/>
      <point x="25" y="391" type="line" smooth="yes"/>
      <point x="110" y="306" type="line" smooth="yes"/>
      <point x="143" y="336" type="line" smooth="yes"/>
      <point x="195" y="352" type="line" smooth="yes"/>
      <point x="291" y="320" type="line" smooth="yes"/>
      <point x="414" y="288" type="line" smooth="yes"/>
      <point x="508" y="318" type="line" smooth="yes"/>
      <point x="575" y="389" type="line" smooth="yes"/>
      <point x="490" y="474" type="line" smooth="yes"/>
      <point x="457" y="444" type="line" smooth="yes"/>
      <point x="405" y="428" type="line" smooth="yes"/>
      <point x="309" y="460" type="line" smooth="yes"/>
    </contour>
  </outline>
</glyph>
<glyph name="cent" format="1">
  <advance width="600"/>
  <unicode hex="00A2"/>
  <outline>
    <contour>
      <point x="568" y="463" type="line" smooth="yes"/>
      <point x="568" y="494" type="line" smooth="yes"/>
      <point x="536" y="634" type="line" smooth="yes"/>
      <point x="442" y="710" type="line" smooth="yes"/>
      <point x="473" y="840" type="line" smooth="yes"/>
      <point x="333" y="840" type="line" smooth="yes"/>
      <point x="307" y="732" type="line" smooth="yes"/>
      <point x="305" y="732" type="line" smooth="yes"/>
      <point x="97" y="651" type="line" smooth="yes"/>
      <point x="32" y="410" type="line" smooth="yes"/>
      <point x="32" y="370" type="line" smooth="yes"/>
      <point x="61" y="191" type="line" smooth="yes"/>
      <point x="152" y="84" type="line" smooth="yes"/>
      <point x="118" y="-60" type="line" smooth="yes"/>
      <point x="258" y="-60" type="line" smooth="yes"/>
      <point x="284" y="49" type="line" smooth="yes"/>
      <point x="305" y="49" type="line" smooth="yes"/>
      <point x="501" y="106" type="line" smooth="yes"/>
      <point x="568" y="281" type="line" smooth="yes"/>
      <point x="568" y="298" type="line" smooth="yes"/>
      <point x="385" y="298" type="line" smooth="yes"/>
      <point x="366" y="234" type="line" smooth="yes"/>
      <point x="312" y="209" type="line" smooth="yes"/>
      <point x="304" y="209" type="line" smooth="yes"/>
      <point x="237" y="255" type="line" smooth="yes"/>
      <point x="219" y="371" type="line" smooth="yes"/>
      <point x="219" y="409" type="line" smooth="yes"/>
      <point x="237" y="525" type="line" smooth="yes"/>
      <point x="304" y="571" type="line" smooth="yes"/>
      <point x="312" y="571" type="line" smooth="yes"/>
      <point x="368" y="544" type="line" smooth="yes"/>
      <point x="386" y="463" type="line" smooth="yes"/>
    </contour>
  </outline>
</glyph>
<glyph name="sterling" format="1">
  <advance width="600"/>
  <unicode hex="00A3"/>
  <outline>
    <contour>
      <point x="320" y="632" type="line" smooth="yes"/>
      <point x="362" y="598" type="line" smooth="yes"/>
      <point x="374" y="500" type="line" smooth="yes"/>
      <point x="560" y="500" type="line" smooth="yes"/>
      <point x="560" y="519" type="line" smooth="yes"/>
      <point x="506" y="728" type="line" smooth="yes"/>
      <point x="320" y="794" type="line" smooth="yes"/>
      <point x="132" y="726" type="line" smooth="yes"/>
      <point x="85" y="585" type="line" smooth="yes"/>
      <point x="91" y="508" type="line" smooth="yes"/>
      <point x="105" y="440" type="line" smooth="yes"/>
      <point x="40" y="440" type="line" smooth="yes"/>
      <point x="40" y="280" type="line" smooth="yes"/>
      <point x="159" y="280" type="line" smooth="yes"/>
      <point x="176" y="223" type="line" smooth="yes"/>
      <point x="189" y="162" type="line" smooth="yes"/>
      <point x="40" y="162" type="line" smooth="yes"/>
      <point x="40" y="0" type="line" smooth="yes"/>
      <point x="560" y="0" type="line" smooth="yes"/>
      <point x="560" y="162" type="line" smooth="yes"/>
      <point x="351" y="162" type="line" smooth="yes"/>
      <point x="344" y="223" type="line" smooth="yes"/>
      <point x="334" y="280" type="line" smooth="yes"/>
      <point x="461" y="280" type="line" smooth="yes"/>
      <point x="461" y="440" type="line" smooth="yes"/>
      <point x="293" y="440" type="line" smooth="yes"/>
      <point x="277" y="507" type="line" smooth="yes"/>
      <point x="271" y="570" type="line" smooth="yes"/>
      <point x="282" y="615" type="line" smooth="yes"/>
    </contour>
  </outline>
</glyph>
<glyph name="section" format="1">
  <advance width="560"/>
  <unicode hex="00A7"/>
  <outline>
    <contour>
      <point x="280" y="444" type="line" smooth="yes"/>
      <point x="333" y="428" type="line" smooth="yes"/>
      <point x="348" y="390" type="line" smooth="yes"/>
      <point x="333" y="352" type="line" smooth="yes"/>
      <point x="280" y="336" type="line" smooth="yes"/>
      <point x="272" y="336" type="line" smooth="yes"/>
      <point x="226" y="353" type="line" smooth="yes"/>
      <point x="212" y="390" type="line" smooth="yes"/>
      <point x="226" y="427" type="line" smooth="yes"/>
      <point x="272" y="444" type="line" smooth="yes"/>
    </contour>
    <contour>
      <point x="532" y="394" type="line" smooth="yes"/>
      <point x="532" y="404" type="line" smooth="yes"/>
      <point x="467" y="531" type="line" smooth="yes"/>
      <point x="303" y="572" type="line" smooth="yes"/>
      <point x="257" y="588" type="line" smooth="yes"/>
      <point x="245" y="620" type="line" smooth="yes"/>
      <point x="258" y="646" type="line" smooth="yes"/>
      <point x="295" y="656" type="line" smooth="yes"/>
      <point x="332" y="643" type="line" smooth="yes"/>
      <point x="345" y="605" type="line" smooth="yes"/>
      <point x="525" y="605" type="line" smooth="yes"/>
      <point x="525" y="610" type="line" smooth="yes"/>
      <point x="470" y="746" type="line" smooth="yes"/>
      <point x="295" y="794" type="line" smooth="yes"/>
      <point x="133" y="753" type="line" smooth="yes"/>
      <point x="65" y="614" type="line" smooth="yes"/>
      <point x="65" y="604" type="line" smooth="yes"/>
      <point x="72" y="553" type="line" smooth="yes"/>
      <point x="93" y="511" type="line" smooth="yes"/>
      <point x="44" y="461" type="line" smooth="yes"/>
      <point x="28" y="386" type="line" smooth="yes"/>
      <point x="28" y="376" type="line" smooth="yes"/>
      <point x="93" y="249" type="line" smooth="yes"/>
      <point x="257" y="208" type="line" smooth="yes"/>
      <point x="303" y="192" type="line" smooth="yes"/>
      <point x="315" y="160" type="line" smooth="yes"/>
      <point x="302" y="134" type="line" smooth="yes"/>
      <point x="265" y="124" type="line" smooth="yes"/>
      <point x="228" y="138" type="line" smooth="yes"/>
      <point x="215" y="175" type="line" smooth="yes"/>
      <point x="35" y="175" type="line" smooth="yes"/>
      <point x="35" y="170" type="line" smooth="yes"/>
      <point x="90" y="34" type="line" smooth="yes"/>
      <point x="265" y="-14" type="line" smooth="yes"/>
      <point x="427" y="27" type="line" smooth="yes"/>
      <point x="495" y="166" type="line" smooth="yes"/>
      <point x="495" y="176" type="line" smooth="yes"/>
      <point x="488" y="227" type="line" smooth="yes"/>
      <point x="466" y="268" type="line" smooth="yes"/>
      <point x="515" y="319" type="line" smooth="yes"/>
    </contour>
  </outline>
</glyph>
<glyph name="ordfeminine" format="1">
  <advance width="440"/>
  <unicode hex="00AA"/>
  <outline>
    <contour>
      <point x="212" y="503" type="line" smooth="yes"/>
      <point x="190" y="511" type="line" smooth="yes"/>
      <point x="184" y="527" type="line" smooth="yes"/>
      <point x="184" y="530" type="line" smooth="yes"/>
      <point x="190" y="547" type="line" smooth="yes"/>
      <point x="211" y="557" type="line" smooth="yes"/>
      <point x="250" y="563" type="line" smooth="yes"/>
      <point x="250" y="516" type="line" smooth="yes"/>
      <point x="232" y="507" type="line" smooth="yes"/>
    </contour>
    <contour>
      <point x="37" y="172" type="line" smooth="yes"/>
      <point x="415" y="172" type="line" smooth="yes"/>
      <point x="415" y="309" type="line" smooth="yes"/>
      <point x="37" y="309" type="line" smooth="yes"/>
    </contour>
    <contour>
      <point x="273" y="387" type="line" smooth="yes"/>
      <point x="418" y="387" type="line" smooth="yes"/>
      <point x="410" y="499" type="line" smooth="yes"/>
      <point x="410" y="640" type="line" smooth="yes"/>
      <point x="370" y="755" type="line" smooth="yes"/>
      <point x="224" y="794" type="line" smooth="yes"/>
      <point x="80" y="755" type="line" smooth="yes"/>
      <point x="40" y="659" type="line" smooth="yes"/>
      <point x="40" y="652" type="line" smooth="yes"/>
      <point x="190" y="652" type="line" smooth="yes"/>
      <point x="196" y="668" type="line" smooth="yes"/>
      <point x="220" y="676" type="line" smooth="yes"/>
      <point x="241" y="670" type="line" smooth="yes"/>
      <point x="249" y="652" type="line" smooth="yes"/>
      <point x="175" y="640" type="line" smooth="yes"/>
      <point x="64" y="602" type="line" smooth="yes"/>
      <point x="25" y="509" type="line" smooth="yes"/>
      <point x="25" y="502" type="line" smooth="yes"/>
      <point x="51" y="415" type="line" smooth="yes"/>
      <point x="151" y="376" type="line" smooth="yes"/>
      <point x="217" y="388" type="line" smooth="yes"/>
      <point x="266" y="421" type="line" smooth="yes"/>
    </contour>
  </outline>
</glyph>
<glyph name="guillemotleft" format="1">
  <advance width="580"/>
  <unicode hex="00AB"/>
  <outline>
    <contour>
      <point x="530" y="575" type="line" smooth="yes"/>
      <point x="310" y="430" type="line" smooth="yes"/>
      <point x="310" y="250" type="line" smooth="yes"/>
      <point x="530" y="105" type="line" smooth="yes"/>
      <point x="530" y="265" type="line" smooth="yes"/>
      <point x="433" y="340" type="line" smooth="yes"/>
      <point x="530" y="415" type="line" smooth="yes"/>
    </contour>
    <contour>
      <point x="270" y="575" type="line" smooth="yes"/>
      <point x="50" y="430" type="line" smooth="yes"/>
      <point x="50" y="250" type="line" smooth="yes"/>
      <point x="270" y="105" type="line" smooth="yes"/>
      <point x="270" y="265" type="line" smooth="yes"/>
      <point x="173" y="340" type="line" smooth="yes"/>
      <point x="270" y="415" type="line" smooth="yes"/>
    </contour>
  </outline>
</glyph>
<glyph name="registered" format="1">
  <advance width="330"/>
  <unicode hex="00AE"/>
  <outline>
    <contour>
      <point x="184" y="691" type="line" smooth="yes"/>
      <point x="184" y="689" type="line" smooth="yes"/>
      <point x="179" y="676" type="line" smooth="yes"/>
      <point x="168" y="673" type="line" smooth="yes"/>
      <point x="146" y="673" type="line" smooth="yes"/>
      <point x="146" y="707" type="line" smooth="yes"/>
      <point x="168" y="707" type="line" smooth="yes"/>
      <point x="179" y="704" type="line" smooth="yes"/>
    </contour>
    <contour>
      <point x="245" y="688" type="line" smooth="yes"/>
      <point x="245" y="692" type="line" smooth="yes"/>
      <point x="225" y="740" type="line" smooth="yes"/>
      <point x="182" y="751" type="line" smooth="yes"/>
      <point x="85" y="751" type="line" smooth="yes"/>
      <point x="85" y="579" type="line" smooth="yes"/>
      <point x="146" y="579" type="line" smooth="yes"/>
      <point x="146" y="629" type="line" smooth="yes"/>
      <point x="162" y="629" type="line" smooth="yes"/>
      <point x="181" y="579" type="line" smooth="yes"/>
      <point x="245" y="579" type="line" smooth="yes"/>
      <point x="217" y="636" type="line" smooth="yes"/>
      <point x="237" y="654" type="line" smooth="yes"/>
    </contour>
    <contour>
      <point x="40" y="665" type="line" smooth="yes"/>
      <point x="77" y="753" type="line" smooth="yes"/>
      <point x="165" y="790" type="line" smooth="yes"/>
      <point x="253" y="753" type="line" smooth="yes"/>
      <point x="290" y="665" type="line" smooth="yes"/>
      <point x="253" y="577" type="line" smooth="yes"/>
      <point x="165" y="540" type="line" smooth="yes"/>
      <point x="77" y="577" type="line" smooth="yes"/>
    </contour>
    <contour>
      <point x="16" y="665" type="line" smooth="yes"/>
      <point x="60" y="560" type="line" smooth="yes"/>
      <point x="165" y="516" type="line" smooth="yes"/>
      <point x="270" y="560" type="line" smooth="yes"/>
      <point x="314" y="665" type="line" smooth="yes"/>
      <point x="270" y="770" type="line" smooth="yes"/>
      <point x="165" y="814" type="line" smooth="yes"/>
      <point x="60" y="770" type="line" smooth="yes"/>
    </contour>
  </outline>
</glyph>
<glyph name="degree" format="1">
  <advance width="400"/>
  <unicode hex="00B0"/>
  <outline>
    <contour>
      <point x="365" y="630" type="line" smooth="yes"/>
      <point x="318" y="750" type="line" smooth="yes"/>
      <point x="200" y="794" type="line" smooth="yes"/>
      <point x="82" y="750" type="line" smooth="yes"/>
      <point x="35" y="630" type="line" smooth="yes"/>
      <point x="35" y="625" type="line" smooth="yes"/>
      <point x="82" y="505" type="line" smooth="yes"/>
      <point x="200" y="461" type="line" smooth="yes"/>
      <point x="318" y="505" type="line" smooth="yes"/>
      <point x="365" y="625" type="line" smooth="yes"/>
    </contour>
    <contour>
      <point x="256" y="625" type="line" smooth="yes"/>
      <point x="240" y="586" type="line" smooth="yes"/>
      <point x="202" y="571" type="line" smooth="yes"/>
      <point x="198" y="571" type="line" smooth="yes"/>
      <point x="160" y="586" type="line" smooth="yes"/>
      <point x="144" y="625" type="line" smooth="yes"/>
      <point x="144" y="630" type="line" smooth="yes"/>
      <point x="160" y="669" type="line" smooth="yes"/>
      <point x="198" y="684" type="line" smooth="yes"/>
      <point x="202" y="684" type="line" smooth="yes"/>
      <point x="240" y="669" type="line" smooth="yes"/>
      <point x="256" y="630" type="line" smooth="yes"/>
    </contour>
  </outline>
</glyph>
<glyph name="twosuperior" format="1">
  <advance width="300"/>
  <unicode hex="00B2"/>
  <outline>
    <contour>
      <point x="285" y="503" type="line" smooth="yes"/>
      <point x="193" y="503" type="line" smooth="yes"/>
      <point x="243" y="560" type="line" smooth="yes"/>
      <point x="275" y="607" type="line" smooth="yes"/>
      <point x="285" y="662" type="line" smooth="yes"/>
      <point x="285" y="674" type="line" smooth="yes"/>
      <point x="260" y="746" type="line" smooth="yes"/>
      <point x="150" y="788" type="line" smooth="yes"/>
      <point x="49" y="757" type="line" smooth="yes"/>
      <point x="15" y="658" type="line" smooth="yes"/>
      <point x="15" y="650" type="line" smooth="yes"/>
      <point x="140" y="650" type="line" smooth="yes"/>
      <point x="140" y="674" type="line" smooth="yes"/>
      <point x="147" y="681" type="line" smooth="yes"/>
      <point x="154" y="674" type="line" smooth="yes"/>
      <point x="154" y="646" type="line" smooth="yes"/>
      <point x="151" y="633" type="line" smooth="yes"/>
      <point x="144" y="623" type="line" smooth="yes"/>
      <point x="15" y="473" type="line" smooth="yes"/>
      <point x="15" y="390" type="line" smooth="yes"/>
      <point x="285" y="390" type="line" smooth="yes"/>
    </contour>
  </outline>
</glyph>
<glyph name="threesuperior" format="1">
  <advance width="300"/>
  <unicode hex="00B3"/>
  <outline>
    <contour>
      <point x="144" y="515" type="line" smooth="yes"/>
      <point x="12" y="515" type="line" smooth="yes"/>
      <point x="12" y="506" type="line" smooth="yes"/>
      <point x="47" y="413" type="line" smooth="yes"/>
      <point x="150" y="381" type="line" smooth="yes"/>
      <point x="262" y="425" type="line" smooth="yes"/>
      <point x="287" y="494" type="line" smooth="yes"/>
      <point x="287" y="505" type="line" smooth="yes"/>
      <point x="274" y="558" type="line" smooth="yes"/>
      <point x="243" y="590" type="line" smooth="yes"/>
      <point x="274" y="622" type="line" smooth="yes"/>
      <point x="285" y="673" type="line" smooth="yes"/>
      <point x="285" y="684" type="line" smooth="yes"/>
      <point x="260" y="748" type="line" smooth="yes"/>
      <point x="150" y="788" type="line" smooth="yes"/>
      <point x="49" y="757" type="line" smooth="yes"/>
      <point x="15" y="658" type="line" smooth="yes"/>
      <point x="15" y="650" type="line" smooth="yes"/>
      <point x="140" y="650" type="line" smooth="yes"/>
      <point x="140" y="674" type="line" smooth="yes"/>
      <point x="147" y="681" type="line" smooth="yes"/>
      <point x="154" y="674" type="line" smooth="yes"/>
      <point x="154" y="648" type="line" smooth="yes"/>
      <point x="151" y="640" type="line" smooth="yes"/>
      <point x="142" y="638" type="line" smooth="yes"/>
      <point x="100" y="638" type="line" smooth="yes"/>
      <point x="100" y="532" type="line" smooth="yes"/>
      <point x="145" y="532" type="line" smooth="yes"/>
      <point x="155" y="529" type="line" smooth="yes"/>
      <point x="158" y="518" type="line" smooth="yes"/>
      <point x="158" y="496" type="line" smooth="yes"/>
      <point x="151" y="489" type="line" smooth="yes"/>
      <point x="144" y="496" type="line" smooth="yes"/>
    </contour>
  </outline>
</glyph>
<glyph name="cedilla" format="1">
  <advance width="602"/>
  <unicode hex="00B8"/>
  <outline>
    <contour>
      <point x="141" y="-190" type="line" smooth="yes"/>
      <point x="184" y="-208" type="line" smooth="yes"/>
      <point x="252" y="-216" type="line" smooth="yes"/>
      <point x="346" y="-192" type="line" smooth="yes"/>
      <point x="377" y="-125" type="line" smooth="yes"/>
      <point x="348" y="-62" type="line" smooth="yes"/>
      <point x="277" y="-37" type="line" smooth="yes"/>
      <point x="292" y="0" type="line" smooth="yes"/>
      <point x="212" y="0" type="line" smooth="yes"/>
      <point x="184" y="-70" type="line" smooth="yes"/>
      <point x="198" y="-99" type="line" smooth="yes"/>
      <point x="211" y="-97" type="line" smooth="yes"/>
      <point x="238" y="-94" type="line" smooth="yes"/>
      <point x="273" y="-100" type="line" smooth="yes"/>
      <point x="282" y="-116" type="line" smooth="yes"/>
      <point x="273" y="-132" type="line" smooth="yes"/>
      <point x="238" y="-138" type="line" smooth="yes"/>
      <point x="199" y="-133" type="line" smooth="yes"/>
      <point x="168" y="-121" type="line" smooth="yes"/>
    </contour>
  </outline>
</glyph>
<glyph name="onequarter" format="1">
  <advance width="800"/>
  <unicode hex="00BC"/>
  <outline>
    <contour>
      <point x="620" y="175" type="line" smooth="yes"/>
      <point x="644" y="215" type="line" smooth="yes"/>
      <point x="642" y="175" type="line" smooth="yes"/>
    </contour>
    <contour>
      <point x="774" y="0" type="line" smooth="yes"/>
      <point x="774" y="63" type="line" smooth="yes"/>
      <point x="790" y="63" type="line" smooth="yes"/>
      <point x="790" y="177" type="line" smooth="yes"/>
      <point x="774" y="177" type="line" smooth="yes"/>
      <point x="774" y="390" type="line" smooth="yes"/>
      <point x="649" y="390" type="line" smooth="yes"/>
      <point x="510" y="156" type="line" smooth="yes"/>
      <point x="510" y="63" type="line" smooth="yes"/>
      <point x="642" y="63" type="line" smooth="yes"/>
      <point x="642" y="0" type="line" smooth="yes"/>
    </contour>
    <contour>
      <point x="187" y="0" type="line" smooth="yes"/>
      <point x="763" y="780" type="line" smooth="yes"/>
      <point x="613" y="780" type="line" smooth="yes"/>
      <point x="37" y="0" type="line" smooth="yes"/>
    </contour>
    <contour>
      <point x="287" y="390" type="line" smooth="yes"/>
      <point x="287" y="503" type="line" smooth="yes"/>
      <point x="221" y="503" type="line" smooth="yes"/>
      <point x="221" y="778" type="line" smooth="yes"/>
      <point x="118" y="778" type="line" smooth="yes"/>
      <point x="-2" y="696" type="line" smooth="yes"/>
      <point x="62" y="603" type="line" smooth="yes"/>
      <point x="89" y="621" type="line" smooth="yes"/>
      <point x="89" y="503" type="line" smooth="yes"/>
      <point x="22" y="503" type="line" smooth="yes"/>
      <point x="22" y="390" type="line" smooth="yes"/>
    </contour>
  </outline>
</glyph>
<glyph name="questiondown" format="1">
  <advance width="510"/>
  <unicode hex="00BF"/>
  <outline>
    <contour>
      <point x="165" y="340" type="line" smooth="yes"/>
      <point x="355" y="340" type="line" smooth="yes"/>
      <point x="355" y="530" type="line" smooth="yes"/>
      <point x="165" y="530" type="line" smooth="yes"/>
    </contour>
    <contour>
      <point x="250" y="-52" type="line" smooth="yes"/>
      <point x="212" y="-41" type="line" smooth="yes"/>
      <point x="201" y="-10" type="line" smooth="yes"/>
      <point x="269" y="109" type="line" smooth="yes"/>
      <point x="325" y="290" type="line" smooth="yes"/>
      <point x="195" y="290" type="line" smooth="yes"/>
      <point x="99" y="150" type="line" smooth="yes"/>
      <point x="15" y="-25" type="line" smooth="yes"/>
      <point x="62" y="-152" type="line" smooth="yes"/>
      <point x="250" y="-214" type="line" smooth="yes"/>
      <point x="436" y="-151" type="line" smooth="yes"/>
      <point x="490" y="41" type="line" smooth="yes"/>
      <point x="490" y="60" type="line" smooth="yes"/>
      <point x="304" y="60" type="line" smooth="yes"/>
      <point x="292" y="-28" type="line" smooth="yes"/>
    </contour>
  </outline>
</glyph>
<glyph name="Acircumflex" format="1">
  <advance width="650"/>
  <unicode hex="00C2"/>
  <outline>
    <contour>
      <point x="325" y="560" type="line" smooth="yes"/>
      <point x="373" y="322" type="line" smooth="yes"/>
      <point x="277" y="322" type="line" smooth="yes"/>
    </contour>
    <contour>
      <point x="265" y="840" type="line" smooth="yes"/>
      <point x="325" y="879" type="line" smooth="yes"/>
      <point x="385" y="840" type="line" smooth="yes"/>
      <point x="550" y="840" type="line" smooth="yes"/>
      <point x="420" y="950" type="line" smooth="yes"/>
      <point x="230" y="950" type="line" smooth="yes"/>
      <point x="100" y="840" type="line" smooth="yes"/>
    </contour>
    <contour>
      <point x="195" y="780" type="line" smooth="yes"/>
      <point x="9" y="0" type="line" smooth="yes"/>
      <point x="213" y="0" type="line" smooth="yes"/>
      <point x="244" y="158" type="line" smooth="yes"/>
      <point x="406" y="158" type="line" smooth="yes"/>
      <point x="438" y="0" type="line" smooth="yes"/>
      <point x="641" y="0" type="line" smooth="yes"/>
      <point x="455" y="780" type="line" smooth="yes"/>
    </contour>
  </outline>
</glyph>
<glyph name="Atilde" format="1">
  <advance width="650"/>
  <unicode hex="00C3"/>
  <outline>
    <contour>
      <point x="325" y="560" type="line" smooth="yes"/>
      <point x="373" y="322" type="line" smooth="yes"/>
      <point x="277" y="322" type="line" smooth="yes"/>
    </contour>
    <contour>
      <point x="425" y="950" type="line" smooth="yes"/>
      <point x="415" y="926" type="line" smooth="yes"/>
      <point x="392" y="920" type="line" smooth="yes"/>
      <point x="327" y="943" type="line" smooth="yes"/>
      <point x="240" y="966" type="line" smooth="yes"/>
      <point x="164" y="939" type="line" smooth="yes"/>
      <point x="130" y="840" type="line" smooth="yes"/>
      <point x="225" y="840" type="line" smooth="yes"/>
      <point x="235" y="864" type="line" smooth="yes"/>
      <point x="258" y="870" type="line" smooth="yes"/>
      <point x="324" y="847" type="line" smooth="yes"/>
      <point x="410" y="824" type="line" smooth="yes"/>
      <point x="486" y="851" type="line" smooth="yes"/>
      <point x="520" y="950" type="line" smooth="yes"/>
    </contour>
    <contour>
      <point x="195" y="780" type="line" smooth="yes"/>
      <point x="9" y="0" type="line" smooth="yes"/>
      <point x="213" y="0" type="line" smooth="yes"/>
      <point x="244" y="158" type="line" smooth="yes"/>
      <point x="406" y="158" type="line" smooth="yes"/>
      <point x="438" y="0" type="line" smooth="yes"/>
      <point x="641" y="0" type="line" smooth="yes"/>
      <point x="455" y="780" type="line" smooth="yes"/>
    </contour>
  </outline>
</glyph>
<glyph name="Adieresis" format="1">
  <advance width="650"/>
  <unicode hex="00C4"/>
  <outline>
    <contour>
      <point x="325" y="560" type="line" smooth="yes"/>
      <point x="373" y="322" type="line" smooth="yes"/>
      <point x="277" y="322" type="line" smooth="yes"/>
    </contour>
    <contour>
      <point x="490" y="950" type="line" smooth="yes"/>
      <point x="340" y="950" type="line" smooth="yes"/>
      <point x="340" y="840" type="line" smooth="yes"/>
      <point x="490" y="840" type="line" smooth="yes"/>
    </contour>
    <contour>
      <point x="310" y="950" type="line" smooth="yes"/>
      <point x="160" y="950" type="line" smooth="yes"/>
      <point x="160" y="840" type="line" smooth="yes"/>
      <point x="310" y="840" type="line" smooth="yes"/>
    </contour>
    <contour>
      <point x="195" y="780" type="line" smooth="yes"/>
      <point x="9" y="0" type="line" smooth="yes"/>
      <point x="213" y="0" type="line" smooth="yes"/>
      <point x="244" y="158" type="line" smooth="yes"/>
      <point x="406" y="158" type="line" smooth="yes"/>
      <point x="438" y="0" type="line" smooth="yes"/>
      <point x="641" y="0" type="line" smooth="yes"/>
      <point x="455" y="780" type="line" smooth="yes"/>
    </contour>
  </outline>
</glyph>
<glyph name="Aring" format="1">
  <advance width="650"/>
  <unicode hex="00C5"/>
  <outline>
    <contour>
      <point x="276" y="855" type="line" smooth="yes"/>
      <point x="290" y="890" type="line" smooth="yes"/>
      <point x="325" y="904" type="line" smooth="yes"/>
      <point x="360" y="890" type="line" smooth="yes"/>
      <point x="374" y="855" type="line" smooth="yes"/>
      <point x="360" y="820" type="line" smooth="yes"/>
      <point x="325" y="806" type="line" smooth="yes"/>
      <point x="290" y="820" type="line" smooth="yes"/>
    </contour>
    <contour>
      <point x="325" y="560" type="line" smooth="yes"/>
      <point x="373" y="322" type="line" smooth="yes"/>
      <point x="277" y="322" type="line" smooth="yes"/>
    </contour>
    <contour>
      <point x="216" y="855" type="line" smooth="yes"/>
      <point x="224" y="814" type="line" smooth="yes"/>
      <point x="246" y="780" type="line" smooth="yes"/>
      <point x="195" y="780" type="line" smooth="yes"/>
      <point x="9" y="0" type="line" smooth="yes"/>
      <point x="213" y="0" type="line" smooth="yes"/>
      <point x="244" y="158" type="line" smooth="yes"/>
      <point x="406" y="158" type="line" smooth="yes"/>
      <point x="438" y="0" type="line" smooth="yes"/>
      <point x="641" y="0" type="line" smooth="yes"/>
      <point x="455" y="780" type="line" smooth="yes"/>
      <point x="404" y="780" type="line" smooth="yes"/>
      <point x="426" y="814" type="line" smooth="yes"/>
      <point x="434" y="855" type="line" smooth="yes"/>
      <point x="402" y="932" type="line" smooth="yes"/>
      <point x="325" y="964" type="line" smooth="yes"/>
      <point x="248" y="932" type="line" smooth="yes"/>
    </contour>
  </outline>
</glyph>
<glyph name="Ccedilla" format="1">
  <advance width="660"/>
  <unicode hex="00C7"/>
  <outline>
    <contour>
      <point x="236" y="-190" type="line" smooth="yes"/>
      <point x="279" y="-208" type="line" smooth="yes"/>
      <point x="347" y="-216" type="line" smooth="yes"/>
      <point x="441" y="-192" type="line" smooth="yes"/>
      <point x="472" y="-125" type="line" smooth="yes"/>
      <point x="443" y="-62" type="line" smooth="yes"/>
      <point x="372" y="-37" type="line" smooth="yes"/>
      <point x="382" y="-12" type="line" smooth="yes"/>
      <point x="564" y="60" type="line" smooth="yes"/>
      <point x="625" y="261" type="line" smooth="yes"/>
      <point x="625" y="270" type="line" smooth="yes"/>
      <point x="435" y="270" type="line" smooth="yes"/>
      <point x="415" y="184" type="line" smooth="yes"/>
      <point x="345" y="150" type="line" smooth="yes"/>
      <point x="335" y="150" type="line" smooth="yes"/>
      <point x="245" y="209" type="line" smooth="yes"/>
      <point x="226" y="370" type="line" smooth="yes"/>
      <point x="226" y="410" type="line" smooth="yes"/>
      <point x="245" y="571" type="line" smooth="yes"/>
      <point x="335" y="630" type="line" smooth="yes"/>
      <point x="345" y="630" type="line" smooth="yes"/>
      <point x="418" y="589" type="line" smooth="yes"/>
      <point x="435" y="480" type="line" smooth="yes"/>
      <point x="625" y="480" type="line" smooth="yes"/>
      <point x="625" y="519" type="line" smooth="yes"/>
      <point x="552" y="732" type="line" smooth="yes"/>
      <point x="335" y="794" type="line" smooth="yes"/>
      <point x="105" y="703" type="line" smooth="yes"/>
      <point x="33" y="410" type="line" smooth="yes"/>
      <point x="33" y="370" type="line" smooth="yes"/>
      <point x="97" y="87" type="line" smooth="yes"/>
      <point x="302" y="-13" type="line" smooth="yes"/>
      <point x="279" y="-70" type="line" smooth="yes"/>
      <point x="293" y="-99" type="line" smooth="yes"/>
      <point x="306" y="-97" type="line" smooth="yes"/>
      <point x="333" y="-94" type="line" smooth="yes"/>
      <point x="368" y="-100" type="line" smooth="yes"/>
      <point x="377" y="-116" type="line" smooth="yes"/>
      <point x="368" y="-132" type="line" smooth="yes"/>
      <point x="333" y="-138" type="line" smooth="yes"/>
      <point x="294" y="-133" type="line" smooth="yes"/>
      <point x="263" y="-121" type="line" smooth="yes"/>
    </contour>
  </outline>
</glyph>
<glyph name="Egrave" format="1">
  <advance width="580"/>
  <unicode hex="00C8"/>
  <outline>
    <contour>
      <point x="140" y="950" type="line" smooth="yes"/>
      <point x="204" y="840" type="line" smooth="yes"/>
      <point x="386" y="840" type="line" smooth="yes"/>
      <point x="333" y="950" type="line" smooth="yes"/>
    </contour>
    <contour>
      <point x="50" y="780" type="line" smooth="yes"/>
      <point x="50" y="0" type="line" smooth="yes"/>
      <point x="540" y="0" type="line" smooth="yes"/>
      <point x="540" y="164" type="line" smooth="yes"/>
      <point x="240" y="164" type="line" smooth="yes"/>
      <point x="240" y="316" type="line" smooth="yes"/>
      <point x="490" y="316" type="line" smooth="yes"/>
      <point x="490" y="480" type="line" smooth="yes"/>
      <point x="240" y="480" type="line" smooth="yes"/>
      <point x="240" y="616" type="line" smooth="yes"/>
      <point x="540" y="616" type="line" smooth="yes"/>
      <point x="540" y="780" type="line" smooth="yes"/>
    </contour>
  </outline>
</glyph>
<glyph name="Ecircumflex" format="1">
  <advance width="580"/>
  <unicode hex="00CA"/>
  <outline>
    <contour>
      <point x="235" y="840" type="line" smooth="yes"/>
      <point x="295" y="879" type="line" smooth="yes"/>
      <point x="355" y="840" type="line" smooth="yes"/>
      <point x="520" y="840" type="line" smooth="yes"/>
      <point x="390" y="950" type="line" smooth="yes"/>
      <point x="200" y="950" type="line" smooth="yes"/>
      <point x="70" y="840" type="line" smooth="yes"/>
    </contour>
    <contour>
      <point x="50" y="780" type="line" smooth="yes"/>
      <point x="50" y="0" type="line" smooth="yes"/>
      <point x="540" y="0" type="line" smooth="yes"/>
      <point x="540" y="164" type="line" smooth="yes"/>
      <point x="240" y="164" type="line" smooth="yes"/>
      <point x="240" y="316" type="line" smooth="yes"/>
      <point x="490" y="316" type="line" smooth="yes"/>
      <point x="490" y="480" type="line" smooth="yes"/>
      <point x="240" y="480" type="line" smooth="yes"/>
      <point x="240" y="616" type="line" smooth="yes"/>
      <point x="540" y="616" type="line" smooth="yes"/>
      <point x="540" y="780" type="line" smooth="yes"/>
    </contour>
  </outline>
</glyph>
<glyph name="Edieresis" format="1">
  <advance width="580"/>
  <unicode hex="00CB"/>
  <outline>
    <contour>
      <point x="280" y="950" type="line" smooth="yes"/>
      <point x="130" y="950" type="line" smooth="yes"/>
      <point x="130" y="840" type="line" smooth="yes"/>
      <point x="280" y="840" type="line" smooth="yes"/>
    </contour>
    <contour>
      <point x="460" y="950" type="line" smooth="yes"/>
      <point x="310" y="950" type="line" smooth="yes"/>
      <point x="310" y="840" type="line" smooth="yes"/>
      <point x="460" y="840" type="line" smooth="yes"/>
    </contour>
    <contour>
      <point x="50" y="780" type="line" smooth="yes"/>
      <point x="50" y="0" type="line" smooth="yes"/>
      <point x="540" y="0" type="line" smooth="yes"/>
      <point x="540" y="164" type="line" smooth="yes"/>
      <point x="240" y="164" type="line" smooth="yes"/>
      <point x="240" y="316" type="line" smooth="yes"/>
      <point x="490" y="316" type="line" smooth="yes"/>
      <point x="490" y="480" type="line" smooth="yes"/>
      <point x="240" y="480" type="line" smooth="yes"/>
      <point x="240" y="616" type="line" smooth="yes"/>
      <point x="540" y="616" type="line" smooth="yes"/>
      <point x="540" y="780" type="line" smooth="yes"/>
    </contour>
  </outline>
</glyph>
<glyph name="Oacute" format="1">
  <advance width="680"/>
  <unicode hex="00D3"/>
  <outline>
    <contour>
      <point x="302" y="950" type="line" smooth="yes"/>
      <point x="249" y="840" type="line" smooth="yes"/>
      <point x="431" y="840" type="line" smooth="yes"/>
      <point x="495" y="950" type="line" smooth="yes"/>
    </contour>
    <contour>
      <point x="335" y="150" type="line" smooth="yes"/>
      <point x="247" y="209" type="line" smooth="yes"/>
      <point x="226" y="370" type="line" smooth="yes"/>
      <point x="226" y="410" type="line" smooth="yes"/>
      <point x="247" y="571" type="line" smooth="yes"/>
      <point x="335" y="630" type="line" smooth="yes"/>
      <point x="345" y="630" type="line" smooth="yes"/>
      <point x="433" y="571" type="line" smooth="yes"/>
      <point x="454" y="410" type="line" smooth="yes"/>
      <point x="454" y="370" type="line" smooth="yes"/>
      <point x="433" y="209" type="line" smooth="yes"/>
      <point x="345" y="150" type="line" smooth="yes"/>
    </contour>
    <contour>
      <point x="340" y="-14" type="line" smooth="yes"/>
      <point x="572" y="77" type="line" smooth="yes"/>
      <point x="647" y="370" type="line" smooth="yes"/>
      <point x="647" y="410" type="line" smooth="yes"/>
      <point x="572" y="703" type="line" smooth="yes"/>
      <point x="340" y="794" type="line" smooth="yes"/>
      <point x="108" y="703" type="line" smooth="yes"/>
      <point x="33" y="410" type="line" smooth="yes"/>
      <point x="33" y="370" type="line" smooth="yes"/>
      <point x="108" y="77" type="line" smooth="yes"/>
    </contour>
  </outline>
</glyph>
<glyph name="Ocircumflex" format="1">
  <advance width="680"/>
  <unicode hex="00D4"/>
  <outline>
    <contour>
      <point x="280" y="840" type="line" smooth="yes"/>
      <point x="340" y="879" type="line" smooth="yes"/>
      <point x="400" y="840" type="line" smooth="yes"/>
      <point x="565" y="840" type="line" smooth="yes"/>
      <point x="435" y="950" type="line" smooth="yes"/>
      <point x="245" y="950" type="line" smooth="yes"/>
      <point x="115" y="840" type="line" smooth="yes"/>
    </contour>
    <contour>
      <point x="335" y="150" type="line" smooth="yes"/>
      <point x="247" y="209" type="line" smooth="yes"/>
      <point x="226" y="370" type="line" smooth="yes"/>
      <point x="226" y="410" type="line" smooth="yes"/>
      <point x="247" y="571" type="line" smooth="yes"/>
      <point x="335" y="630" type="line" smooth="yes"/>
      <point x="345" y="630" type="line" smooth="yes"/>
      <point x="433" y="571" type="line" smooth="yes"/>
      <point x="454" y="410" type="line" smooth="yes"/>
      <point x="454" y="370" type="line" smooth="yes"/>
      <point x="433" y="209" type="line" smooth="yes"/>
      <point x="345" y="150" type="line" smooth="yes"/>
    </contour>
    <contour>
      <point x="340" y="-14" type="line" smooth="yes"/>
      <point x="572" y="77" type="line" smooth="yes"/>
      <point x="647" y="370" type="line" smooth="yes"/>
      <point x="647" y="410" type="line" smooth="yes"/>
      <point x="572" y="703" type="line" smooth="yes"/>
      <point x="340" y="794" type="line" smooth="yes"/>
      <point x="108" y="703" type="line" smooth="yes"/>
      <point x="33" y="410" type="line" smooth="yes"/>
      <point x="33" y="370" type="line" smooth="yes"/>
      <point x="108" y="77" type="line" smooth="yes"/>
    </contour>
  </outline>
</glyph>
<glyph name="Otilde" format="1">
  <advance width="680"/>
  <unicode hex="00D5"/>
  <outline>
    <contour>
      <point x="440" y="950" type="line" smooth="yes"/>
      <point x="430" y="926" type="line" smooth="yes"/>
      <point x="407" y="920" type="line" smooth="yes"/>
      <point x="342" y="943" type="line" smooth="yes"/>
      <point x="255" y="966" type="line" smooth="yes"/>
      <point x="179" y="939" type="line" smooth="yes"/>
      <point x="145" y="840" type="line" smooth="yes"/>
      <point x="240" y="840" type="line" smooth="yes"/>
      <point x="250" y="864" type="line" smooth="yes"/>
      <point x="273" y="870" type="line" smooth="yes"/>
      <point x="339" y="847" type="line" smooth="yes"/>
      <point x="425" y="824" type="line" smooth="yes"/>
      <point x="501" y="851" type="line" smooth="yes"/>
      <point x="535" y="950" type="line" smooth="yes"/>
    </contour>
    <contour>
      <point x="335" y="150" type="line" smooth="yes"/>
      <point x="247" y="209" type="line" smooth="yes"/>
      <point x="226" y="370" type="line" smooth="yes"/>
      <point x="226" y="410" type="line" smooth="yes"/>
      <point x="247" y="571" type="line" smooth="yes"/>
      <point x="335" y="630" type="line" smooth="yes"/>
      <point x="345" y="630" type="line" smooth="yes"/>
      <point x="433" y="571" type="line" smooth="yes"/>
      <point x="454" y="410" type="line" smooth="yes"/>
      <point x="454" y="370" type="line" smooth="yes"/>
      <point x="433" y="209" type="line" smooth="yes"/>
      <point x="345" y="150" type="line" smooth="yes"/>
    </contour>
    <contour>
      <point x="340" y="-14" type="line" smooth="yes"/>
      <point x="572" y="77" type="line" smooth="yes"/>
      <point x="647" y="370" type="line" smooth="yes"/>
      <point x="647" y="410" type="line" smooth="yes"/>
      <point x="572" y="703" type="line" smooth="yes"/>
      <point x="340" y="794" type="line" smooth="yes"/>
      <point x="108" y="703" type="line" smooth="yes"/>
      <point x="33" y="410" type="line" smooth="yes"/>
      <point x="33" y="370" type="line" smooth="yes"/>
      <point x="108" y="77" type="line" smooth="yes"/>
    </contour>
  </outline>
</glyph>
<glyph name="multiply" format="1">
  <advance width="600"/>
  <unicode hex="00D7"/>
  <outline>
    <contour>
      <point x="143" y="117" type="line" smooth="yes"/>
      <point x="300" y="274" type="line" smooth="yes"/>
      <point x="457" y="117" type="line" smooth="yes"/>
      <point x="573" y="233" type="line" smooth="yes"/>
      <point x="416" y="390" type="line" smooth="yes"/>
      <point x="573" y="547" type="line" smooth="yes"/>
      <point x="457" y="663" type="line" smooth="yes"/>
      <point x="300" y="506" type="line" smooth="yes"/>
      <point x="143" y="663" type="line" smooth="yes"/>
      <point x="27" y="547" type="line" smooth="yes"/>
      <point x="184" y="390" type="line" smooth="yes"/>
      <point x="27" y="233" type="line" smooth="yes"/>
    </contour>
  </outline>
</glyph>
<glyph name="Oslash" format="1">
  <advance width="680"/>
  <unicode hex="00D8"/>
  <outline>
    <contour>
      <point x="226" y="370" type="line" smooth="yes"/>
      <point x="226" y="410" type="line" smooth="yes"/>
      <point x="247" y="571" type="line" smooth="yes"/>
      <point x="335" y="630" type="line" smooth="yes"/>
      <point x="345" y="630" type="line" smooth="yes"/>
      <point x="388" y="621" type="line" smooth="yes"/>
      <point x="418" y="596" type="line" smooth="yes"/>
      <point x="228" y="302" type="line" smooth="yes"/>
      <point x="226" y="335" type="line" smooth="yes"/>
    </contour>
    <contour>
      <point x="454" y="410" type="line" smooth="yes"/>
      <point x="454" y="370" type="line" smooth="yes"/>
      <point x="433" y="209" type="line" smooth="yes"/>
      <point x="345" y="150" type="line" smooth="yes"/>
      <point x="335" y="150" type="line" smooth="yes"/>
      <point x="292" y="159" type="line" smooth="yes"/>
      <point x="261" y="183" type="line" smooth="yes"/>
      <point x="452" y="478" type="line" smooth="yes"/>
      <point x="453" y="445" type="line" smooth="yes"/>
    </contour>
    <contour>
      <point x="33" y="410" type="line" smooth="yes"/>
      <point x="33" y="370" type="line" smooth="yes"/>
      <point x="48" y="210" type="line" smooth="yes"/>
      <point x="94" y="95" type="line" smooth="yes"/>
      <point x="33" y="0" type="line" smooth="yes"/>
      <point x="143" y="0" type="line" smooth="yes"/>
      <point x="161" y="29" type="line" smooth="yes"/>
      <point x="241" y="-3" type="line" smooth="yes"/>
      <point x="340" y="-14" type="line" smooth="yes"/>
      <point x="572" y="77" type="line" smooth="yes"/>
      <point x="647" y="370" type="line" smooth="yes"/>
      <point x="647" y="410" type="line" smooth="yes"/>
      <point x="632" y="570" type="line" smooth="yes"/>
      <point x="585" y="685" type="line" smooth="yes"/>
      <point x="647" y="780" type="line" smooth="yes"/>
      <point x="537" y="780" type="line" smooth="yes"/>
      <point x="518" y="751" type="line" smooth="yes"/>
      <point x="439" y="783" type="line" smooth="yes"/>
      <point x="340" y="794" type="line" smooth="yes"/>
      <point x="108" y="703" type="line" smooth="yes"/>
    </contour>
  </outline>
</glyph>
<glyph name="Ugrave" format="1">
  <advance width="670"/>
  <unicode hex="00D9"/>
  <outline>
    <contour>
      <point x="180" y="950" type="line" smooth="yes"/>
      <point x="244" y="840" type="line" smooth="yes"/>
      <point x="426" y="840" type="line" smooth="yes"/>
      <point x="373" y="950" type="line" smooth="yes"/>
    </contour>
    <contour>
      <point x="335" y="-14" type="line" smooth="yes"/>
      <point x="565" y="56" type="line" smooth="yes"/>
      <point x="625" y="248" type="line" smooth="yes"/>
      <point x="625" y="780" type="line" smooth="yes"/>
      <point x="435" y="780" type="line" smooth="yes"/>
      <point x="435" y="253" type="line" smooth="yes"/>
      <point x="416" y="178" type="line" smooth="yes"/>
      <point x="335" y="150" type="line" smooth="yes"/>
      <point x="254" y="178" type="line" smooth="yes"/>
      <point x="235" y="253" type="line" smooth="yes"/>
      <point x="235" y="780" type="line" smooth="yes"/>
      <point x="45" y="780" type="line" smooth="yes"/>
      <point x="45" y="248" type="line" smooth="yes"/>
      <point x="105" y="56" type="line" smooth="yes"/>
    </contour>
  </outline>
</glyph>
<glyph name="Ucircumflex" format="1">
  <advance width="670"/>
  <unicode hex="00DB"/>
  <outline>
    <contour>
      <point x="275" y="840" type="line" smooth="yes"/>
      <point x="335" y="879" type="line" smooth="yes"/>
      <point x="395" y="840" type="line" smooth="yes"/>
      <point x="560" y="840" type="line" smooth="yes"/>
      <point x="430" y="950" type="line" smooth="yes"/>
      <point x="240" y="950" type="line" smooth="yes"/>
      <point x="110" y="840" type="line" smooth="yes"/>
    </contour>
    <contour>
      <point x="335" y="-14" type="line" smooth="yes"/>
      <point x="565" y="56" type="line" smooth="yes"/>
      <point x="625" y="248" type="line" smooth="yes"/>
      <point x="625" y="780" type="line" smooth="yes"/>
      <point x="435" y="780" type="line" smooth="yes"/>
      <point x="435" y="253" type="line" smooth="yes"/>
      <point x="416" y="178" type="line" smooth="yes"/>
      <point x="335" y="150" type="line" smooth="yes"/>
      <point x="254" y="178" type="line" smooth="yes"/>
      <point x="235" y="253" type="line" smooth="yes"/>
      <point x="235" y="780" type="line" smooth="yes"/>
      <point x="45" y="780" type="line" smooth="yes"/>
      <point x="45" y="248" type="line" smooth="yes"/>
      <point x="105" y="56" type="line" smooth="yes"/>
    </contour>
  </outline>
</glyph>
<glyph name="Udieresis" format="1">
  <advance width="670"/>
  <unicode hex="00DC"/>
  <outline>
    <contour>
      <point x="320" y="950" type="line" smooth="yes"/>
      <point x="170" y="950" type="line" smooth="yes"/>
      <point x="170" y="840" type="line" smooth="yes"/>
      <point x="320" y="840" type="line" smooth="yes"/>
    </contour>
    <contour>
      <point x="500" y="950" type="line" smooth="yes"/>
      <point x="350" y="950" type="line" smooth="yes"/>
      <point x="350" y="840" type="line" smooth="yes"/>
      <point x="500" y="840" type="line" smooth="yes"/>
    </contour>
    <contour>
      <point x="335" y="-14" type="line" smooth="yes"/>
      <point x="565" y="56" type="line" smooth="yes"/>
      <point x="625" y="248" type="line" smooth="yes"/>
      <point x="625" y="780" type="line" smooth="yes"/>
      <point x="435" y="780" type="line" smooth="yes"/>
      <point x="435" y="253" type="line" smooth="yes"/>
      <point x="416" y="178" type="line" smooth="yes"/>
      <point x="335" y="150" type="line" smooth="yes"/>
      <point x="254" y="178" type="line" smooth="yes"/>
      <point x="235" y="253" type="line" smooth="yes"/>
      <point x="235" y="780" type="line" smooth="yes"/>
      <point x="45" y="780" type="line" smooth="yes"/>
      <point x="45" y="248" type="line" smooth="yes"/>
      <point x="105" y="56" type="line" smooth="yes"/>
    </contour>
  </outline>
</glyph>
<glyph name="Yacute" format="1">
  <advance width="640"/>
  <unicode hex="00DD"/>
  <outline>
    <contour>
      <point x="282" y="950" type="line" smooth="yes"/>
      <point x="229" y="840" type="line" smooth="yes"/>
      <point x="411" y="840" type="line" smooth="yes"/>
      <point x="475" y="950" type="line" smooth="yes"/>
    </contour>
    <contour>
      <point x="415" y="240" type="line" smooth="yes"/>
      <point x="636" y="780" type="line" smooth="yes"/>
      <point x="428" y="780" type="line" smooth="yes"/>
      <point x="320" y="474" type="line" smooth="yes"/>
      <point x="212" y="780" type="line" smooth="yes"/>
      <point x="4" y="780" type="line" smooth="yes"/>
      <point x="225" y="240" type="line" smooth="yes"/>
      <point x="225" y="0" type="line" smooth="yes"/>
      <point x="415" y="0" type="line" smooth="yes"/>
    </contour>
  </outline>
</glyph>
<glyph name="aacute" format="1">
  <advance width="560"/>
  <unicode hex="00E1"/>
  <outline>
    <contour>
      <point x="260" y="134" type="line" smooth="yes"/>
      <point x="220" y="148" type="line" smooth="yes"/>
      <point x="208" y="177" type="line" smooth="yes"/>
      <point x="208" y="183" type="line" smooth="yes"/>
      <point x="218" y="214" type="line" smooth="yes"/>
      <point x="260" y="233" type="line" smooth="yes"/>
      <point x="332" y="244" type="line" smooth="yes"/>
      <point x="332" y="163" type="line" smooth="yes"/>
      <point x="302" y="143" type="line" smooth="yes"/>
    </contour>
    <contour>
      <point x="280" y="780" type="line" smooth="yes"/>
      <point x="189" y="590" type="line" smooth="yes"/>
      <point x="371" y="590" type="line" smooth="yes"/>
      <point x="482" y="780" type="line" smooth="yes"/>
    </contour>
    <contour>
      <point x="360" y="0" type="line" smooth="yes"/>
      <point x="526" y="0" type="line" smooth="yes"/>
      <point x="516" y="150" type="line" smooth="yes"/>
      <point x="516" y="340" type="line" smooth="yes"/>
      <point x="466" y="491" type="line" smooth="yes"/>
      <point x="280" y="544" type="line" smooth="yes"/>
      <point x="95" y="490" type="line" smooth="yes"/>
      <point x="45" y="364" type="line" smooth="yes"/>
      <point x="45" y="355" type="line" smooth="yes"/>
      <point x="218" y="355" type="line" smooth="yes"/>
      <point x="230" y="390" type="line" smooth="yes"/>
      <point x="275" y="406" type="line" smooth="yes"/>
      <point x="318" y="392" type="line" smooth="yes"/>
      <point x="332" y="350" type="line" smooth="yes"/>
      <point x="220" y="332" type="line" smooth="yes"/>
      <point x="78" y="282" type="line" smooth="yes"/>
      <point x="25" y="160" type="line" smooth="yes"/>
      <point x="25" y="150" type="line" smooth="yes"/>
      <point x="61" y="36" type="line" smooth="yes"/>
      <point x="190" y="-14" type="line" smooth="yes"/>
      <point x="282" y="3" type="line" smooth="yes"/>
      <point x="350" y="50" type="line" smooth="yes"/>
    </contour>
  </outline>
</glyph>
<glyph name="ae" format="1">
  <advance width="856"/>
  <unicode hex="00E6"/>
  <outline>
    <contour>
      <point x="587" y="406" type="line" smooth="yes"/>
      <point x="637" y="389" type="line" smooth="yes"/>
      <point x="658" y="330" type="line" smooth="yes"/>
      <point x="516" y="330" type="line" smooth="yes"/>
      <point x="537" y="389" type="line" smooth="yes"/>
    </contour>
    <contour>
      <point x="341" y="168" type="line" smooth="yes"/>
      <point x="311" y="143" type="line" smooth="yes"/>
      <point x="260" y="129" type="line" smooth="yes"/>
      <point x="220" y="143" type="line" smooth="yes"/>
      <point x="208" y="172" type="line" smooth="yes"/>
      <point x="208" y="178" type="line" smooth="yes"/>
      <point x="218" y="209" type="line" smooth="yes"/>
      <point x="261" y="228" type="line" smooth="yes"/>
      <point x="332" y="239" type="line" smooth="yes"/>
      <point x="334" y="202" type="line" smooth="yes"/>
    </contour>
    <contour>
      <point x="842" y="200" type="line" smooth="yes"/>
      <point x="842" y="280" type="line" smooth="yes"/>
      <point x="781" y="470" type="line" smooth="yes"/>
      <point x="591" y="544" type="line" smooth="yes"/>
      <point x="504" y="531" type="line" smooth="yes"/>
      <point x="441" y="493" type="line" smooth="yes"/>
      <point x="379" y="531" type="line" smooth="yes"/>
      <point x="280" y="544" type="line" smooth="yes"/>
      <point x="95" y="490" type="line" smooth="yes"/>
      <point x="45" y="364" type="line" smooth="yes"/>
      <point x="45" y="355" type="line" smooth="yes"/>
      <point x="218" y="355" type="line" smooth="yes"/>
      <point x="230" y="390" type="line" smooth="yes"/>
      <point x="275" y="406" type="line" smooth="yes"/>
      <point x="318" y="392" type="line" smooth="yes"/>
      <point x="332" y="349" type="line" smooth="yes"/>
      <point x="222" y="332" type="line" smooth="yes"/>
      <point x="79" y="282" type="line" smooth="yes"/>
      <point x="25" y="160" type="line" smooth="yes"/>
      <point x="25" y="150" type="line" smooth="yes"/>
      <point x="64" y="36" type="line" smooth="yes"/>
      <point x="205" y="-14" type="line" smooth="yes"/>
      <point x="311" y="5" type="line" smooth="yes"/>
      <point x="401" y="55" type="line" smooth="yes"/>
      <point x="483" y="4" type="line" smooth="yes"/>
      <point x="597" y="-14" type="line" smooth="yes"/>
      <point x="777" y="36" type="line" smooth="yes"/>
      <point x="842" y="166" type="line" smooth="yes"/>
      <point x="842" y="170" type="line" smooth="yes"/>
      <point x="669" y="170" type="line" smooth="yes"/>
      <point x="649" y="138" type="line" smooth="yes"/>
      <point x="598" y="124" type="line" smooth="yes"/>
      <point x="542" y="140" type="line" smooth="yes"/>
      <point x="516" y="200" type="line" smooth="yes"/>
    </contour>
  </outline>
</glyph>
<glyph name="ccedilla" format="1">
  <advance width="528"/>
  <unicode hex="00E7"/>
  <outline>
    <contour>
      <point x="161" y="-190" type="line" smooth="yes"/>
      <point x="204" y="-208" type="line" smooth="yes"/>
      <point x="272" y="-216" type="line" smooth="yes"/>
      <point x="366" y="-192" type="line" smooth="yes"/>
      <point x="397" y="-125" type="line" smooth="yes"/>
      <point x="368" y="-62" type="line" smooth="yes"/>
      <point x="297" y="-37" type="line" smooth="yes"/>
      <point x="307" y="-12" type="line" smooth="yes"/>
      <point x="455" y="46" type="line" smooth="yes"/>
      <point x="505" y="176" type="line" smooth="yes"/>
      <point x="505" y="200" type="line" smooth="yes"/>
      <point x="332" y="200" type="line" smooth="yes"/>
      <point x="317" y="159" type="line" smooth="yes"/>
      <point x="274" y="144" type="line" smooth="yes"/>
      <point x="223" y="170" type="line" smooth="yes"/>
      <point x="208" y="245" type="line" smooth="yes"/>
      <point x="208" y="285" type="line" smooth="yes"/>
      <point x="223" y="360" type="line" smooth="yes"/>
      <point x="274" y="386" type="line" smooth="yes"/>
      <point x="317" y="370" type="line" smooth="yes"/>
      <point x="332" y="320" type="line" smooth="yes"/>
      <point x="505" y="320" type="line" smooth="yes"/>
      <point x="505" y="344" type="line" smooth="yes"/>
      <point x="445" y="491" type="line" smooth="yes"/>
      <point x="270" y="544" type="line" smooth="yes"/>
      <point x="83" y="473" type="line" smooth="yes"/>
      <point x="25" y="285" type="line" smooth="yes"/>
      <point x="25" y="245" type="line" smooth="yes"/>
      <point x="73" y="69" type="line" smooth="yes"/>
      <point x="227" y="-12" type="line" smooth="yes"/>
      <point x="204" y="-70" type="line" smooth="yes"/>
      <point x="218" y="-99" type="line" smooth="yes"/>
      <point x="231" y="-97" type="line" smooth="yes"/>
      <point x="258" y="-94" type="line" smooth="yes"/>
      <point x="293" y="-100" type="line" smooth="yes"/>
      <point x="302" y="-116" type="line" smooth="yes"/>
      <point x="293" y="-132" type="line" smooth="yes"/>
      <point x="258" y="-138" type="line" smooth="yes"/>
      <point x="219" y="-133" type="line" smooth="yes"/>
      <point x="188" y="-121" type="line" smooth="yes"/>
    </contour>
  </outline>
</glyph>
<glyph name="edieresis" format="1">
  <advance width="560"/>
  <unicode hex="00EB"/>
  <outline>
    <contour>
      <point x="280" y="406" type="line" smooth="yes"/>
      <point x="330" y="389" type="line" smooth="yes"/>
      <point x="351" y="330" type="line" smooth="yes"/>
      <point x="209" y="330" type="line" smooth="yes"/>
      <point x="230" y="389" type="line" smooth="yes"/>
    </contour>
    <contour>
      <point x="494" y="780" type="line" smooth="yes"/>
      <point x="304" y="780" type="line" smooth="yes"/>
      <point x="304" y="590" type="line" smooth="yes"/>
      <point x="494" y="590" type="line" smooth="yes"/>
    </contour>
    <contour>
      <point x="264" y="780" type="line" smooth="yes"/>
      <point x="74" y="780" type="line" smooth="yes"/>
      <point x="74" y="590" type="line" smooth="yes"/>
      <point x="264" y="590" type="line" smooth="yes"/>
    </contour>
    <contour>
      <point x="535" y="200" type="line" smooth="yes"/>
      <point x="535" y="280" type="line" smooth="yes"/>
      <point x="474" y="470" type="line" smooth="yes"/>
      <point x="284" y="544" type="line" smooth="yes"/>
      <point x="90" y="470" type="line" smooth="yes"/>
      <point x="25" y="280" type="line" smooth="yes"/>
      <point x="25" y="250" type="line" smooth="yes"/>
      <point x="90" y="60" type="line" smooth="yes"/>
      <point x="290" y="-14" type="line" smooth="yes"/>
      <point x="470" y="36" type="line" smooth="yes"/>
      <point x="535" y="166" type="line" smooth="yes"/>
      <point x="535" y="170" type="line" smooth="yes"/>
      <point x="362" y="170" type="line" smooth="yes"/>
      <point x="342" y="138" type="line" smooth="yes"/>
      <point x="291" y="124" type="line" smooth="yes"/>
      <point x="235" y="140" type="line" smooth="yes"/>
      <point x="209" y="200" type="line" smooth="yes"/>
    </contour>
  </outline>
</glyph>
<glyph name="idieresis" format="1">
  <advance width="280"/>
  <unicode hex="00EF"/>
  <outline>
    <contour>
      <point x="120" y="780" type="line" smooth="yes"/>
      <point x="-70" y="780" type="line" smooth="yes"/>
      <point x="-70" y="590" type="line" smooth="yes"/>
      <point x="120" y="590" type="line" smooth="yes"/>
    </contour>
    <contour>
      <point x="350" y="780" type="line" smooth="yes"/>
      <point x="160" y="780" type="line" smooth="yes"/>
      <point x="160" y="590" type="line" smooth="yes"/>
      <point x="350" y="590" type="line" smooth="yes"/>
    </contour>
    <contour>
      <point x="48" y="0" type="line" smooth="yes"/>
      <point x="232" y="0" type="line" smooth="yes"/>
      <point x="232" y="530" type="line" smooth="yes"/>
      <point x="48" y="530" type="line" smooth="yes"/>
    </contour>
  </outline>
</glyph>
<glyph name="eth" format="1">
  <advance width="560"/>
  <unicode hex="00F0"/>
  <outline>
    <contour>
      <point x="280" y="144" type="line" smooth="yes"/>
      <point x="225" y="170" type="line" smooth="yes"/>
      <point x="208" y="245" type="line" smooth="yes"/>
      <point x="208" y="285" type="line" smooth="yes"/>
      <point x="225" y="360" type="line" smooth="yes"/>
      <point x="280" y="386" type="line" smooth="yes"/>
      <point x="335" y="360" type="line" smooth="yes"/>
      <point x="352" y="285" type="line" smooth="yes"/>
      <point x="352" y="245" type="line" smooth="yes"/>
      <point x="335" y="170" type="line" smooth="yes"/>
    </contour>
    <contour>
      <point x="25" y="650" type="line" smooth="yes"/>
      <point x="72" y="644" type="line" smooth="yes"/>
      <point x="116" y="636" type="line" smooth="yes"/>
      <point x="50" y="600" type="line" smooth="yes"/>
      <point x="50" y="500" type="line" smooth="yes"/>
      <point x="228" y="598" type="line" smooth="yes"/>
      <point x="262" y="576" type="line" smooth="yes"/>
      <point x="289" y="550" type="line" smooth="yes"/>
      <point x="297" y="539" type="line" smooth="yes"/>
      <point x="274" y="543" type="line" smooth="yes"/>
      <point x="250" y="544" type="line" smooth="yes"/>
      <point x="83" y="473" type="line" smooth="yes"/>
      <point x="25" y="285" type="line" smooth="yes"/>
      <point x="25" y="245" type="line" smooth="yes"/>
      <point x="87" y="57" type="line" smooth="yes"/>
      <point x="280" y="-14" type="line" smooth="yes"/>
      <point x="473" y="57" type="line" smooth="yes"/>
      <point x="535" y="245" type="line" smooth="yes"/>
      <point x="535" y="285" type="line" smooth="yes"/>
      <point x="515" y="474" type="line" smooth="yes"/>
      <point x="432" y="653" type="line" smooth="yes"/>
      <point x="415" y="673" type="line" smooth="yes"/>
      <point x="398" y="691" type="line" smooth="yes"/>
      <point x="440" y="714" type="line" smooth="yes"/>
      <point x="440" y="814" type="line" smooth="yes"/>
      <point x="318" y="747" type="line" smooth="yes"/>
      <point x="181" y="794" type="line" smooth="yes"/>
      <point x="25" y="814" type="line" smooth="yes"/>
    </contour>
  </outline>
</glyph>
<glyph name="ntilde" format="1">
  <advance width="595"/>
  <unicode hex="00F1"/>
  <outline>
    <contour>
      <point x="396" y="780" type="line" smooth="yes"/>
      <point x="388" y="753" type="line" smooth="yes"/>
      <point x="366" y="745" type="line" smooth="yes"/>
      <point x="295" y="771" type="line" smooth="yes"/>
      <point x="206" y="796" type="line" smooth="yes"/>
      <point x="121" y="755" type="line" smooth="yes"/>
      <point x="86" y="620" type="line" smooth="yes"/>
      <point x="206" y="620" type="line" smooth="yes"/>
      <point x="214" y="647" type="line" smooth="yes"/>
      <point x="236" y="655" type="line" smooth="yes"/>
      <point x="307" y="630" type="line" smooth="yes"/>
      <point x="396" y="604" type="line" smooth="yes"/>
      <point x="481" y="645" type="line" smooth="yes"/>
      <point x="516" y="780" type="line" smooth="yes"/>
    </contour>
    <contour>
      <point x="551" y="0" type="line" smooth="yes"/>
      <point x="551" y="355" type="line" smooth="yes"/>
      <point x="515" y="485" type="line" smooth="yes"/>
      <point x="386" y="544" type="line" smooth="yes"/>
      <point x="286" y="522" type="line" smooth="yes"/>
      <point x="218" y="464" type="line" smooth="yes"/>
      <point x="206" y="530" type="line" smooth="yes"/>
      <point x="40" y="530" type="line" smooth="yes"/>
      <point x="50" y="380" type="line" smooth="yes"/>
      <point x="50" y="0" type="line" smooth="yes"/>
      <point x="234" y="0" type="line" smooth="yes"/>
      <point x="234" y="345" type="line" smooth="yes"/>
      <point x="261" y="371" type="line" smooth="yes"/>
      <point x="311" y="386" type="line" smooth="yes"/>
      <point x="358" y="365" type="line" smooth="yes"/>
      <point x="367" y="325" type="line" smooth="yes"/>
      <point x="367" y="0" type="line" smooth="yes"/>
    </contour>
  </outline>
</glyph>
<glyph name="ocircumflex" format="1">
  <advance width="560"/>
  <unicode hex="00F4"/>
  <outline>
    <contour>
      <point x="280" y="144" type="line" smooth="yes"/>
      <point x="225" y="170" type="line" smooth="yes"/>
      <point x="208" y="245" type="line" smooth="yes"/>
      <point x="208" y="285" type="line" smooth="yes"/>
      <point x="225" y="360" type="line" smooth="yes"/>
      <point x="280" y="386" type="line" smooth="yes"/>
      <point x="335" y="360" type="line" smooth="yes"/>
      <point x="352" y="285" type="line" smooth="yes"/>
      <point x="352" y="245" type="line" smooth="yes"/>
      <point x="335" y="170" type="line" smooth="yes"/>
    </contour>
    <contour>
      <point x="215" y="590" type="line" smooth="yes"/>
      <point x="280" y="663" type="line" smooth="yes"/>
      <point x="345" y="590" type="line" smooth="yes"/>
      <point x="505" y="590" type="line" smooth="yes"/>
      <point x="370" y="780" type="line" smooth="yes"/>
      <point x="190" y="780" type="line" smooth="yes"/>
      <point x="55" y="590" type="line" smooth="yes"/>
    </contour>
    <contour>
      <point x="280" y="-14" type="line" smooth="yes"/>
      <point x="473" y="57" type="line" smooth="yes"/>
      <point x="535" y="245" type="line" smooth="yes"/>
      <point x="535" y="285" type="line" smooth="yes"/>
      <point x="473" y="473" type="line" smooth="yes"/>
      <point x="280" y="544" type="line" smooth="yes"/>
      <point x="87" y="473" type="line" smooth="yes"/>
      <point x="25" y="285" type="line" smooth="yes"/>
      <point x="25" y="245" type="line" smooth="yes"/>
      <point x="87" y="57" type="line" smooth="yes"/>
    </contour>
  </outline>
</glyph>
<glyph name="otilde" format="1">
  <advance width="560"/>
  <unicode hex="00F5"/>
  <outline>
    <contour>
      <point x="280" y="144" type="line" smooth="yes"/>
      <point x="225" y="170" type="line" smooth="yes"/>
      <point x="208" y="245" type="line" smooth="yes"/>
      <point x="208" y="285" type="line" smooth="yes"/>
      <point x="225" y="360" type="line" smooth="yes"/>
      <point x="280" y="386" type="line" smooth="yes"/>
      <point x="335" y="360" type="line" smooth="yes"/>
      <point x="352" y="285" type="line" smooth="yes"/>
      <point x="352" y="245" type="line" smooth="yes"/>
      <point x="335" y="170" type="line" smooth="yes"/>
    </contour>
    <contour>
      <point x="375" y="780" type="line" smooth="yes"/>
      <point x="367" y="753" type="line" smooth="yes"/>
      <point x="345" y="745" type="line" smooth="yes"/>
      <point x="274" y="771" type="line" smooth="yes"/>
      <point x="185" y="796" type="line" smooth="yes"/>
      <point x="100" y="755" type="line" smooth="yes"/>
      <point x="65" y="620" type="line" smooth="yes"/>
      <point x="185" y="620" type="line" smooth="yes"/>
      <point x="193" y="647" type="line" smooth="yes"/>
      <point x="215" y="655" type="line" smooth="yes"/>
      <point x="286" y="630" type="line" smooth="yes"/>
      <point x="375" y="604" type="line" smooth="yes"/>
      <point x="460" y="645" type="line" smooth="yes"/>
      <point x="495" y="780" type="line" smooth="yes"/>
    </contour>
    <contour>
      <point x="280" y="-14" type="line" smooth="yes"/>
      <point x="473" y="57" type="line" smooth="yes"/>
      <point x="535" y="245" type="line" smooth="yes"/>
      <point x="535" y="285" type="line" smooth="yes"/>
      <point x="473" y="473" type="line" smooth="yes"/>
      <point x="280" y="544" type="line" smooth="yes"/>
      <point x="87" y="473" type="line" smooth="yes"/>
      <point x="25" y="285" type="line" smooth="yes"/>
      <point x="25" y="245" type="line" smooth="yes"/>
      <point x="87" y="57" type="line" smooth="yes"/>
    </contour>
  </outline>
</glyph>
<glyph name="oslash" format="1">
  <advance width="560"/>
  <unicode hex="00F8"/>
  <outline>
    <contour>
      <point x="208" y="232" type="line" smooth="yes"/>
      <point x="208" y="285" type="line" smooth="yes"/>
      <point x="225" y="360" type="line" smooth="yes"/>
      <point x="280" y="386" type="line" smooth="yes"/>
      <point x="303" y="383" type="line" smooth="yes"/>
      <point x="321" y="374" type="line" smooth="yes"/>
    </contour>
    <contour>
      <point x="352" y="285" type="line" smooth="yes"/>
      <point x="352" y="245" type="line" smooth="yes"/>
      <point x="335" y="170" type="line" smooth="yes"/>
      <point x="280" y="144" type="line" smooth="yes"/>
      <point x="257" y="147" type="line" smooth="yes"/>
      <point x="238" y="156" type="line" smooth="yes"/>
      <point x="351" y="299" type="line" smooth="yes"/>
      <point x="352" y="292" type="line" smooth="yes"/>
    </contour>
    <contour>
      <point x="535" y="530" type="line" smooth="yes"/>
      <point x="445" y="530" type="line" smooth="yes"/>
      <point x="428" y="509" type="line" smooth="yes"/>
      <point x="362" y="535" type="line" smooth="yes"/>
      <point x="280" y="544" type="line" smooth="yes"/>
      <point x="87" y="473" type="line" smooth="yes"/>
      <point x="25" y="285" type="line" smooth="yes"/>
      <point x="25" y="245" type="line" smooth="yes"/>
      <point x="38" y="146" type="line" smooth="yes"/>
      <point x="78" y="68" type="line" smooth="yes"/>
      <point x="24" y="0" type="line" smooth="yes"/>
      <point x="114" y="0" type="line" smooth="yes"/>
      <point x="131" y="21" type="line" smooth="yes"/>
      <point x="197" y="-5" type="line" smooth="yes"/>
      <point x="280" y="-14" type="line" smooth="yes"/>
      <point x="473" y="57" type="line" smooth="yes"/>
      <point x="535" y="245" type="line" smooth="yes"/>
      <point x="535" y="285" type="line" smooth="yes"/>
      <point x="522" y="384" type="line" smooth="yes"/>
      <point x="481" y="462" type="line" smooth="yes"/>
    </contour>
  </outline>
</glyph>
<glyph name="ugrave" format="1">
  <advance width="595"/>
  <unicode hex="00F9"/>
  <outline>
    <contour>
      <point x="92" y="780" type="line" smooth="yes"/>
      <point x="203" y="590" type="line" smooth="yes"/>
      <point x="385" y="590" type="line" smooth="yes"/>
      <point x="294" y="780" type="line" smooth="yes"/>
    </contour>
    <contour>
      <point x="44" y="530" type="line" smooth="yes"/>
      <point x="44" y="175" type="line" smooth="yes"/>
      <point x="80" y="45" type="line" smooth="yes"/>
      <point x="209" y="-14" type="line" smooth="yes"/>
      <point x="309" y="8" type="line" smooth="yes"/>
      <point x="376" y="65" type="line" smooth="yes"/>
      <point x="389" y="0" type="line" smooth="yes"/>
      <point x="555" y="0" type="line" smooth="yes"/>
      <point x="545" y="150" type="line" smooth="yes"/>
      <point x="545" y="530" type="line" smooth="yes"/>
      <point x="361" y="530" type="line" smooth="yes"/>
      <point x="361" y="185" type="line" smooth="yes"/>
      <point x="334" y="159" type="line" smooth="yes"/>
      <point x="284" y="144" type="line" smooth="yes"/>
      <point x="237" y="165" type="line" smooth="yes"/>
      <point x="228" y="205" type="line" smooth="yes"/>
      <point x="228" y="530" type="line" smooth="yes"/>
    </contour>
  </outline>
</glyph>
<glyph name="thorn" format="1">
  <advance width="585"/>
  <unicode hex="00FE"/>
  <outline>
    <contour>
      <point x="233" y="185" type="line" smooth="yes"/>
      <point x="233" y="345" type="line" smooth="yes"/>
      <point x="260" y="371" type="line" smooth="yes"/>
      <point x="310" y="386" type="line" smooth="yes"/>
      <point x="362" y="360" type="line" smooth="yes"/>
      <point x="377" y="285" type="line" smooth="yes"/>
      <point x="377" y="245" type="line" smooth="yes"/>
      <point x="362" y="170" type="line" smooth="yes"/>
      <point x="310" y="144" type="line" smooth="yes"/>
      <point x="260" y="159" type="line" smooth="yes"/>
    </contour>
    <contour>
      <point x="48" y="800" type="line" smooth="yes"/>
      <point x="48" y="-200" type="line" smooth="yes"/>
      <point x="232" y="-200" type="line" smooth="yes"/>
      <point x="232" y="41" type="line" smooth="yes"/>
      <point x="287" y="1" type="line" smooth="yes"/>
      <point x="365" y="-14" type="line" smooth="yes"/>
      <point x="517" y="57" type="line" smooth="yes"/>
      <point x="560" y="245" type="line" smooth="yes"/>
      <point x="560" y="285" type="line" smooth="yes"/>
      <point x="517" y="473" type="line" smooth="yes"/>
      <point x="365" y="544" type="line" smooth="yes"/>
      <point x="287" y="529" type="line" smooth="yes"/>
      <point x="232" y="489" type="line" smooth="yes"/>
      <point x="232" y="800" type="line" smooth="yes"/>
    </contour>
  </outline>
</glyph>
<glyph name="Abreve" format="1">
  <advance width="650"/>
  <unicode hex="0102"/>
  <outline>
    <contour>
      <point x="325" y="560" type="line" smooth="yes"/>
      <point x="373" y="322" type="line" smooth="yes"/>
      <point x="277" y="322" type="line" smooth="yes"/>
    </contour>
    <contour>
      <point x="325" y="824" type="line" smooth="yes"/>
      <point x="483" y="862" type="line" smooth="yes"/>
      <point x="520" y="950" type="line" smooth="yes"/>
      <point x="395" y="950" type="line" smooth="yes"/>
      <point x="379" y="928" type="line" smooth="yes"/>
      <point x="325" y="920" type="line" smooth="yes"/>
      <point x="271" y="928" type="line" smooth="yes"/>
      <point x="255" y="950" type="line" smooth="yes"/>
      <point x="130" y="950" type="line" smooth="yes"/>
      <point x="168" y="862" type="line" smooth="yes"/>
    </contour>
    <contour>
      <point x="195" y="780" type="line" smooth="yes"/>
      <point x="9" y="0" type="line" smooth="yes"/>
      <point x="213" y="0" type="line" smooth="yes"/>
      <point x="244" y="158" type="line" smooth="yes"/>
      <point x="406" y="158" type="line" smooth="yes"/>
      <point x="438" y="0" type="line" smooth="yes"/>
      <point x="641" y="0" type="line" smooth="yes"/>
      <point x="455" y="780" type="line" smooth="yes"/>
    </contour>
  </outline>
</glyph>
<glyph name="Aogonek" format="1">
  <advance width="650"/>
  <unicode hex="0104"/>
  <outline>
    <contour>
      <point x="325" y="560" type="line" smooth="yes"/>
      <point x="373" y="322" type="line" smooth="yes"/>
      <point x="277" y="322" type="line" smooth="yes"/>
    </contour>
    <contour>
      <point x="586" y="-58" type="line" smooth="yes"/>
      <point x="599" y="-27" type="line" smooth="yes"/>
      <point x="641" y="0" type="line" smooth="yes"/>
      <point x="455" y="780" type="line" smooth="yes"/>
      <point x="195" y="780" type="line" smooth="yes"/>
      <point x="9" y="0" type="line" smooth="yes"/>
      <point x="213" y="0" type="line" smooth="yes"/>
      <point x="244" y="158" type="line" smooth="yes"/>
      <point x="406" y="158" type="line" smooth="yes"/>
      <point x="438" y="0" type="line" smooth="yes"/>
      <point x="492" y="0" type="line" smooth="yes"/>
      <point x="462" y="-48" type="line" smooth="yes"/>
      <point x="451" y="-105" type="line" smooth="yes"/>
      <point x="490" y="-189" type="line" smooth="yes"/>
      <point x="593" y="-216" type="line" smooth="yes"/>
      <point x="656" y="-208" type="line" smooth="yes"/>
      <point x="701" y="-190" type="line" smooth="yes"/>
      <point x="660" y="-80" type="line" smooth="yes"/>
      <point x="647" y="-87" type="line" smooth="yes"/>
      <point x="624" y="-90" type="line" smooth="yes"/>
      <point x="596" y="-81" type="line" smooth="yes"/>
    </contour>
  </outline>
</glyph>
<glyph name="cdotaccent" format="1">
  <advance width="528"/>
  <unicode hex="010B"/>
  <outline>
    <contour>
      <point x="365" y="780" type="line" smooth="yes"/>
      <point x="175" y="780" type="line" smooth="yes"/>
      <point x="175" y="590" type="line" smooth="yes"/>
      <point x="365" y="590" type="line" smooth="yes"/>
    </contour>
    <contour>
      <point x="208" y="245" type="line" smooth="yes"/>
      <point x="208" y="285" type="line" smooth="yes"/>
      <point x="223" y="360" type="line" smooth="yes"/>
      <point x="274" y="386" type="line" smooth="yes"/>
      <point x="317" y="370" type="line" smooth="yes"/>
      <point x="332" y="320" type="line" smooth="yes"/>
      <point x="505" y="320" type="line" smooth="yes"/>
      <point x="505" y="344" type="line" smooth="yes"/>
      <point x="445" y="491" type="line" smooth="yes"/>
      <point x="270" y="544" type="line" smooth="yes"/>
      <point x="83" y="473" type="line" smooth="yes"/>
      <point x="25" y="285" type="line" smooth="yes"/>
      <point x="25" y="245" type="line" smooth="yes"/>
      <point x="83" y="57" type="line" smooth="yes"/>
      <point x="270" y="-14" type="line" smooth="yes"/>
      <point x="445" y="38" type="line" smooth="yes"/>
      <point x="505" y="176" type="line" smooth="yes"/>
      <point x="505" y="200" type="line" smooth="yes"/>
      <point x="332" y="200" type="line" smooth="yes"/>
      <point x="317" y="159" type="line" smooth="yes"/>
      <point x="274" y="144" type="line" smooth="yes"/>
      <point x="223" y="170" type="line" smooth="yes"/>
    </contour>
  </outline>
</glyph>
<glyph name="Emacron" format="1">
  <advance width="580"/>
  <unicode hex="0112"/>
  <outline>
    <contour>
      <point x="135" y="840" type="line" smooth="yes"/>
      <point x="455" y="840" type="line" smooth="yes"/>
      <point x="455" y="950" type="line" smooth="yes"/>
      <point x="135" y="950" type="line" smooth="yes"/>
    </contour>
    <contour>
      <point x="50" y="780" type="line" smooth="yes"/>
      <point x="50" y="0" type="line" smooth="yes"/>
      <point x="540" y="0" type="line" smooth="yes"/>
      <point x="540" y="164" type="line" smooth="yes"/>
      <point x="240" y="164" type="line" smooth="yes"/>
      <point x="240" y="316" type="line" smooth="yes"/>
      <point x="490" y="316" type="line" smooth="yes"/>
      <point x="490" y="480" type="line" smooth="yes"/>
      <point x="240" y="480" type="line" smooth="yes"/>
      <point x="240" y="616" type="line" smooth="yes"/>
      <point x="540" y="616" type="line" smooth="yes"/>
      <point x="540" y="780" type="line" smooth="yes"/>
    </contour>
  </outline>
</glyph>
<glyph name="eogonek" format="1">
  <advance width="560"/>
  <unicode hex="0119"/>
  <outline>
    <contour>
      <point x="280" y="406" type="line" smooth="yes"/>
      <point x="330" y="389" type="line" smooth="yes"/>
      <point x="351" y="330" type="line" smooth="yes"/>
      <point x="209" y="330" type="line" smooth="yes"/>
      <point x="230" y="389" type="line" smooth="yes"/>
    </contour>
    <contour>
      <point x="341" y="-58" type="line" smooth="yes"/>
      <point x="354" y="-25" type="line" smooth="yes"/>
      <point x="396" y="0" type="line" smooth="yes"/>
      <point x="499" y="64" type="line" smooth="yes"/>
      <point x="535" y="166" type="line" smooth="yes"/>
      <point x="535" y="170" type="line" smooth="yes"/>
      <point x="362" y="170" type="line" smooth="yes"/>
      <point x="342" y="138" type="line" smooth="yes"/>
      <point x="291" y="124" type="line" smooth="yes"/>
      <point x="235" y="140" type="line" smooth="yes"/>
      <point x="209" y="200" type="line" smooth="yes"/>
      <point x="535" y="200" type="line" smooth="yes"/>
      <point x="535" y="280" type="line" smooth="yes"/>
      <point x="474" y="470" type="line" smooth="yes"/>
      <point x="284" y="544" type="line" smooth="yes"/>
      <point x="90" y="470" type="line" smooth="yes"/>
      <point x="25" y="280" type="line" smooth="yes"/>
      <point x="25" y="250" type="line" smooth="yes"/>
      <point x="77" y="74" type="line" smooth="yes"/>
      <point x="238" y="-11" type="line" smooth="yes"/>
      <point x="215" y="-54" type="line" smooth="yes"/>
      <point x="206" y="-105" type="line" smooth="yes"/>
      <point x="245" y="-189" type="line" smooth="yes"/>
      <point x="348" y="-216" type="line" smooth="yes"/>
      <point x="411" y="-208" type="line" smooth="yes"/>
      <point x="456" y="-190" type="line" smooth="yes"/>
      <point x="415" y="-80" type="line" smooth="yes"/>
      <point x="402" y="-87" type="line" smooth="yes"/>
      <point x="379" y="-90" type="line" smooth="yes"/>
      <point x="351" y="-81" type="line" smooth="yes"/>
    </contour>
  </outline>
</glyph>
<glyph name="gcircumflex" format="1">
  <advance width="585"/>
  <unicode hex="011D"/>
  <outline>
    <contour>
      <point x="352" y="215" type="line" smooth="yes"/>
      <point x="325" y="189" type="line" smooth="yes"/>
      <point x="275" y="174" type="line" smooth="yes"/>
      <point x="225" y="195" type="line" smooth="yes"/>
      <point x="208" y="265" type="line" smooth="yes"/>
      <point x="208" y="295" type="line" smooth="yes"/>
      <point x="225" y="361" type="line" smooth="yes"/>
      <point x="275" y="386" type="line" smooth="yes"/>
      <point x="325" y="371" type="line" smooth="yes"/>
      <point x="352" y="345" type="line" smooth="yes"/>
    </contour>
    <contour>
      <point x="220" y="590" type="line" smooth="yes"/>
      <point x="285" y="663" type="line" smooth="yes"/>
      <point x="350" y="590" type="line" smooth="yes"/>
      <point x="510" y="590" type="line" smooth="yes"/>
      <point x="375" y="780" type="line" smooth="yes"/>
      <point x="195" y="780" type="line" smooth="yes"/>
      <point x="60" y="590" type="line" smooth="yes"/>
    </contour>
    <contour>
      <point x="352" y="15" type="line" smooth="yes"/>
      <point x="332" y="-50" type="line" smooth="yes"/>
      <point x="276" y="-66" type="line" smooth="yes"/>
      <point x="221" y="-46" type="line" smooth="yes"/>
      <point x="208" y="0" type="line" smooth="yes"/>
      <point x="35" y="0" type="line" smooth="yes"/>
      <point x="35" y="-24" type="line" smooth="yes"/>
      <point x="89" y="-159" type="line" smooth="yes"/>
      <point x="280" y="-214" type="line" smooth="yes"/>
      <point x="472" y="-158" type="line" smooth="yes"/>
      <point x="536" y="15" type="line" smooth="yes"/>
      <point x="536" y="380" type="line" smooth="yes"/>
      <point x="546" y="530" type="line" smooth="yes"/>
      <point x="380" y="530" type="line" smooth="yes"/>
      <point x="369" y="472" type="line" smooth="yes"/>
      <point x="310" y="524" type="line" smooth="yes"/>
      <point x="220" y="544" type="line" smooth="yes"/>
      <point x="70" y="474" type="line" smooth="yes"/>
      <point x="25" y="295" type="line" smooth="yes"/>
      <point x="25" y="265" type="line" smooth="yes"/>
      <point x="70" y="82" type="line" smooth="yes"/>
      <point x="220" y="16" type="line" smooth="yes"/>
      <point x="297" y="29" type="line" smooth="yes"/>
      <point x="352" y="66" type="line" smooth="yes"/>
    </contour>
  </outline>
</glyph>
<glyph name="Hcircumflex" format="1">
  <advance width="670"/>
  <unicode hex="0124"/>
  <outline>
    <contour>
      <point x="275" y="840" type="line" smooth="yes"/>
      <point x="335" y="879" type="line" smooth="yes"/>
      <point x="395" y="840" type="line" smooth="yes"/>
      <point x="560" y="840" type="line" smooth="yes"/>
      <point x="430" y="950" type="line" smooth="yes"/>
      <point x="240" y="950" type="line" smooth="yes"/>
      <point x="110" y="840" type="line" smooth="yes"/>
    </contour>
    <contour>
      <point x="430" y="780" type="line" smooth="yes"/>
      <point x="430" y="480" type="line" smooth="yes"/>
      <point x="240" y="480" type="line" smooth="yes"/>
      <point x="240" y="780" type="line" smooth="yes"/>
      <point x="50" y="780" type="line" smooth="yes"/>
      <point x="50" y="0" type="line" smooth="yes"/>
      <point x="240" y="0" type="line" smooth="yes"/>
      <point x="240" y="316" type="line" smooth="yes"/>
      <point x="430" y="316" type="line" smooth="yes"/>
      <point x="430" y="0" type="line" smooth="yes"/>
      <point x="620" y="0" type="line" smooth="yes"/>
      <point x="620" y="780" type="line" smooth="yes"/>
    </contour>
  </outline>
</glyph>
<glyph name="Itilde" format="1">
  <advance width="300"/>
  <unicode hex="0128"/>
  <outline>
    <contour>
      <point x="250" y="950" type="line" smooth="yes"/>
      <point x="240" y="926" type="line" smooth="yes"/>
      <point x="217" y="920" type="line" smooth="yes"/>
      <point x="152" y="943" type="line" smooth="yes"/>
      <point x="65" y="966" type="line" smooth="yes"/>
      <point x="-11" y="939" type="line" smooth="yes"/>
      <point x="-45" y="840" type="line" smooth="yes"/>
      <point x="50" y="840" type="line" smooth="yes"/>
      <point x="60" y="864" type="line" smooth="yes"/>
      <point x="83" y="870" type="line" smooth="yes"/>
      <point x="149" y="847" type="line" smooth="yes"/>
      <point x="235" y="824" type="line" smooth="yes"/>
      <point x="311" y="851" type="line" smooth="yes"/>
      <point x="345" y="950" type="line" smooth="yes"/>
    </contour>
    <contour>
      <point x="245" y="780" type="line" smooth="yes"/>
      <point x="55" y="780" type="line" smooth="yes"/>
      <point x="55" y="0" type="line" smooth="yes"/>
      <point x="245" y="0" type="line" smooth="yes"/>
    </contour>
  </outline>
</glyph>
<glyph name="itilde" format="1">
  <advance width="280"/>
  <unicode hex="0129"/>
  <outline>
    <contour>
      <point x="235" y="780" type="line" smooth="yes"/>
      <point x="227" y="753" type="line" smooth="yes"/>
      <point x="205" y="745" type="line" smooth="yes"/>
      <point x="134" y="771" type="line" smooth="yes"/>
      <point x="45" y="796" type="line" smooth="yes"/>
      <point x="-40" y="755" type="line" smooth="yes"/>
      <point x="-75" y="620" type="line" smooth="yes"/>
      <point x="45" y="620" type="line" smooth="yes"/>
      <point x="53" y="647" type="line" smooth="yes"/>
      <point x="75" y="655" type="line" smooth="yes"/>
      <point x="146" y="630" type="line" smooth="yes"/>
      <point x="235" y="604" type="line" smooth="yes"/>
      <point x="320" y="645" type="line" smooth="yes"/>
      <point x="355" y="780" type="line" smooth="yes"/>
    </contour>
    <contour>
      <point x="48" y="0" type="line" smooth="yes"/>
      <point x="232" y="0" type="line" smooth="yes"/>
      <point x="232" y="530" type="line" smooth="yes"/>
      <point x="48" y="530" type="line" smooth="yes"/>
    </contour>
  </outline>
</glyph>
<glyph name="Imacron" format="1">
  <advance width="300"/>
  <unicode hex="012A"/>
  <outline>
    <contour>
      <point x="-10" y="840" type="line" smooth="yes"/>
      <point x="310" y="840" type="line" smooth="yes"/>
      <point x="310" y="950" type="line" smooth="yes"/>
      <point x="-10" y="950" type="line" smooth="yes"/>
    </contour>
    <contour>
      <point x="245" y="780" type="line" smooth="yes"/>
      <point x="55" y="780" type="line" smooth="yes"/>
      <point x="55" y="0" type="line" smooth="yes"/>
      <point x="245" y="0" type="line" smooth="yes"/>
    </contour>
  </outline>
</glyph>
<glyph name="Ibreve" format="1">
  <advance width="300"/>
  <unicode hex="012C"/>
  <outline>
    <contour>
      <point x="150" y="824" type="line" smooth="yes"/>
      <point x="308" y="862" type="line" smooth="yes"/>
      <point x="345" y="950" type="line" smooth="yes"/>
      <point x="220" y="950" type="line" smooth="yes"/>
      <point x="204" y="928" type="line" smooth="yes"/>
      <point x="150" y="920" type="line" smooth="yes"/>
      <point x="96" y="928" type="line" smooth="yes"/>
      <point x="80" y="950" type="line" smooth="yes"/>
      <point x="-45" y="950" type="line" smooth="yes"/>
      <point x="-8" y="862" type="line" smooth="yes"/>
    </contour>
    <contour>
      <point x="245" y="780" type="line" smooth="yes"/>
      <point x="55" y="780" type="line" smooth="yes"/>
      <point x="55" y="0" type="line" smooth="yes"/>
      <point x="245" y="0" type="line" smooth="yes"/>
    </contour>
  </outline>
</glyph>
<glyph name="ibreve" format="1">
  <advance width="280"/>
  <unicode hex="012D"/>
  <outline>
    <contour>
      <point x="140" y="576" type="line" smooth="yes"/>
      <point x="294" y="634" type="line" smooth="yes"/>
      <point x="335" y="780" type="line" smooth="yes"/>
      <point x="205" y="780" type="line" smooth="yes"/>
      <point x="185" y="726" type="line" smooth="yes"/>
      <point x="140" y="714" type="line" smooth="yes"/>
      <point x="95" y="726" type="line" smooth="yes"/>
      <point x="75" y="780" type="line" smooth="yes"/>
      <point x="-55" y="780" type="line" smooth="yes"/>
      <point x="-14" y="634" type="line" smooth="yes"/>
    </contour>
    <contour>
      <point x="48" y="0" type="line" smooth="yes"/>
      <point x="232" y="0" type="line" smooth="yes"/>
      <point x="232" y="530" type="line" smooth="yes"/>
      <point x="48" y="530" type="line" smooth="yes"/>
    </contour>
  </outline>
</glyph>
<glyph name="Iogonek" format="1">
  <advance width="300"/>
  <unicode hex="012E"/>
  <outline>
    <contour>
      <point x="190" y="-58" type="line" smooth="yes"/>
      <point x="203" y="-27" type="line" smooth="yes"/>
      <point x="245" y="0" type="line" smooth="yes"/>
      <point x="245" y="780" type="line" smooth="yes"/>
      <point x="55" y="780" type="line" smooth="yes"/>
      <point x="55" y="0" type="line" smooth="yes"/>
      <point x="96" y="0" type="line" smooth="yes"/>
      <point x="66" y="-48" type="line" smooth="yes"/>
      <point x="55" y="-105" type="line" smooth="yes"/>
      <point x="94" y="-189" type="line" smooth="yes"/>
      <point x="197" y="-216" type="line" smooth="yes"/>
      <point x="260" y="-208" type="line" smooth="yes"/>
      <point x="305" y="-190" type="line" smooth="yes"/>
      <point x="264" y="-80" type="line" smooth="yes"/>
      <point x="251" y="-87" type="line" smooth="yes"/>
      <point x="228" y="-90" type="line" smooth="yes"/>
      <point x="200" y="-81" type="line" smooth="yes"/>
    </contour>
  </outline>
</glyph>
<glyph name="iogonek" format="1">
  <advance width="280"/>
  <unicode hex="012F"/>
  <outline>
    <contour>
      <point x="235" y="780" type="line" smooth="yes"/>
      <point x="45" y="780" type="line" smooth="yes"/>
      <point x="45" y="590" type="line" smooth="yes"/>
      <point x="235" y="590" type="line" smooth="yes"/>
    </contour>
    <contour>
      <point x="48" y="0" type="line" smooth="yes"/>
      <point x="83" y="0" type="line" smooth="yes"/>
      <point x="53" y="-48" type="line" smooth="yes"/>
      <point x="42" y="-105" type="line" smooth="yes"/>
      <point x="81" y="-189" type="line" smooth="yes"/>
      <point x="184" y="-216" type="line" smooth="yes"/>
      <point x="247" y="-208" type="line" smooth="yes"/>
      <point x="292" y="-190" type="line" smooth="yes"/>
      <point x="251" y="-80" type="line" smooth="yes"/>
      <point x="238" y="-87" type="line" smooth="yes"/>
      <point x="215" y="-90" type="line" smooth="yes"/>
      <point x="187" y="-81" type="line" smooth="yes"/>
      <point x="177" y="-58" type="line" smooth="yes"/>
      <point x="190" y="-27" type="line" smooth="yes"/>
      <point x="232" y="0" type="line" smooth="yes"/>
      <point x="232" y="530" type="line" smooth="yes"/>
      <point x="48" y="530" type="line" smooth="yes"/>
    </contour>
  </outline>
</glyph>
<glyph name="Idotaccent" format="1">
  <advance width="300"/>
  <unicode hex="0130"/>
  <outline>
    <contour>
      <point x="225" y="950" type="line" smooth="yes"/>
      <point x="75" y="950" type="line" smooth="yes"/>
      <point x="75" y="840" type="line" smooth="yes"/>
      <point x="225" y="840" type="line" smooth="yes"/>
    </contour>
    <contour>
      <point x="245" y="780" type="line" smooth="yes"/>
      <point x="55" y="780" type="line" smooth="yes"/>
      <point x="55" y="0" type="line" smooth="yes"/>
      <point x="245" y="0" type="line" smooth="yes"/>
    </contour>
  </outline>
</glyph>
<glyph name="IJ" format="1">
  <advance width="641"/>
  <unicode hex="0132"/>
  <outline>
    <contour>
      <point x="245" y="780" type="line" smooth="yes"/>
      <point x="55" y="780" type="line" smooth="yes"/>
      <point x="55" y="0" type="line" smooth="yes"/>
      <point x="245" y="0" type="line" smooth="yes"/>
    </contour>
    <contour>
      <point x="406" y="223" type="line" smooth="yes"/>
      <point x="387" y="163" type="line" smooth="yes"/>
      <point x="335" y="150" type="line" smooth="yes"/>
      <point x="306" y="153" type="line" smooth="yes"/>
      <point x="285" y="158" type="line" smooth="yes"/>
      <point x="285" y="3" type="line" smooth="yes"/>
      <point x="319" y="-8" type="line" smooth="yes"/>
      <point x="385" y="-14" type="line" smooth="yes"/>
      <point x="537" y="34" type="line" smooth="yes"/>
      <point x="596" y="202" type="line" smooth="yes"/>
      <point x="596" y="780" type="line" smooth="yes"/>
      <point x="406" y="780" type="line" smooth="yes"/>
    </contour>
  </outline>
</glyph>
<glyph name="Jcircumflex" format="1">
  <advance width="550"/>
  <unicode hex="0134"/>
  <outline>
    <contour>
      <point x="350" y="840" type="line" smooth="yes"/>
      <point x="410" y="879" type="line" smooth="yes"/>
      <point x="470" y="840" type="line" smooth="yes"/>
      <point x="635" y="840" type="line" smooth="yes"/>
      <point x="505" y="950" type="line" smooth="yes"/>
      <point x="315" y="950" type="line" smooth="yes"/>
      <point x="185" y="840" type="line" smooth="yes"/>
    </contour>
    <contour>
      <point x="315" y="780" type="line" smooth="yes"/>
      <point x="315" y="260" type="line" smooth="yes"/>
      <point x="304" y="180" type="line" smooth="yes"/>
      <point x="258" y="150" type="line" smooth="yes"/>
      <point x="212" y="181" type="line" smooth="yes"/>
      <point x="201" y="270" type="line" smooth="yes"/>
      <point x="21" y="270" type="line" smooth="yes"/>
      <point x="21" y="240" type="line" smooth="yes"/>
      <point x="75" y="52" type="line" smooth="yes"/>
      <point x="263" y="-14" type="line" smooth="yes"/>
      <point x="448" y="52" type="line" smooth="yes"/>
      <point x="505" y="238" type="line" smooth="yes"/>
      <point x="505" y="780" type="line" smooth="yes"/>
    </contour>
  </outline>
</glyph>
<glyph name="lcommaaccent" format="1">
  <advance width="280"/>
  <unicode hex="013C"/>
  <outline>
    <contour>
      <point x="220" y="-40" type="line" smooth="yes"/>
      <point x="60" y="-40" type="line" smooth="yes"/>
      <point x="60" y="-140" type="line" smooth="yes"/>
      <point x="148" y="-140" type="line" smooth="yes"/>
      <point x="115" y="-164" type="line" smooth="yes"/>
      <point x="60" y="-170" type="line" smooth="yes"/>
      <point x="60" y="-230" type="line" smooth="yes"/>
      <point x="181" y="-201" type="line" smooth="yes"/>
      <point x="220" y="-100" type="line" smooth="yes"/>
    </contour>
    <contour>
      <point x="48" y="0" type="line" smooth="yes"/>
      <point x="232" y="0" type="line" smooth="yes"/>
      <point x="232" y="800" type="line" smooth="yes"/>
      <point x="48" y="800" type="line" smooth="yes"/>
    </contour>
  </outline>
</glyph>
<glyph name="Lcaron" format="1">
  <advance width="530"/>
  <unicode hex="013D"/>
  <outline>
    <contour>
      <point x="343" y="800" type="line" smooth="yes"/>
      <point x="343" y="590" type="line" smooth="yes"/>
      <point x="423" y="590" type="line" smooth="yes"/>
      <point x="448" y="800" type="line" smooth="yes"/>
    </contour>
    <contour>
      <point x="515" y="0" type="line" smooth="yes"/>
      <point x="515" y="164" type="line" smooth="yes"/>
      <point x="240" y="164" type="line" smooth="yes"/>
      <point x="240" y="780" type="line" smooth="yes"/>
      <point x="50" y="780" type="line" smooth="yes"/>
      <point x="50" y="0" type="line" smooth="yes"/>
    </contour>
  </outline>
</glyph>
<glyph name="lslash" format="1">
  <advance width="400"/>
  <unicode hex="0142"/>
  <outline>
    <contour>
      <point x="20" y="169" type="line" smooth="yes"/>
      <point x="108" y="222" type="line" smooth="yes"/>
      <point x="108" y="0" type="line" smooth="yes"/>
      <point x="292" y="0" type="line" smooth="yes"/>
      <point x="292" y="333" type="line" smooth="yes"/>
      <point x="390" y="393" type="line" smooth="yes"/>
      <point x="390" y="544" type="line" smooth="yes"/>
      <point x="292" y="484" type="line" smooth="yes"/>
      <point x="292" y="800" type="line" smooth="yes"/>
      <point x="108" y="800" type="line" smooth="yes"/>
      <point x="108" y="373" type="line" smooth="yes"/>
      <point x="20" y="320" type="line" smooth="yes"/>
    </contour>
  </outline>
</glyph>
<glyph name="Nacute" format="1">
  <advance width="690"/>
  <unicode hex="0143"/>
  <outline>
    <contour>
      <point x="307" y="950" type="line" smooth="yes"/>
      <point x="254" y="840" type="line" smooth="yes"/>
      <point x="436" y="840" type="line" smooth="yes"/>
      <point x="500" y="950" type="line" smooth="yes"/>
    </contour>
    <contour>
      <point x="640" y="780" type="line" smooth="yes"/>
      <point x="460" y="780" type="line" smooth="yes"/>
      <point x="460" y="500" type="line" smooth="yes"/>
      <point x="465" y="350" type="line" smooth="yes"/>
      <point x="250" y="780" type="line" smooth="yes"/>
      <point x="50" y="780" type="line" smooth="yes"/>
      <point x="50" y="0" type="line" smooth="yes"/>
      <point x="230" y="0" type="line" smooth="yes"/>
      <point x="230" y="280" type="line" smooth="yes"/>
      <point x="225" y="430" type="line" smooth="yes"/>
      <point x="440" y="0" type="line" smooth="yes"/>
      <point x="640" y="0" type="line" smooth="yes"/>
    </contour>
  </outline>
</glyph>
<glyph name="Ncommaaccent" format="1">
  <advance width="690"/>
  <unicode hex="0145"/>
  <outline>
    <contour>
      <point x="425" y="-40" type="line" smooth="yes"/>
      <point x="265" y="-40" type="line" smooth="yes"/>
      <point x="265" y="-140" type="line" smooth="yes"/>
      <point x="353" y="-140" type="line" smooth="yes"/>
      <point x="320" y="-164" type="line" smooth="yes"/>
      <point x="265" y="-170" type="line" smooth="yes"/>
      <point x="265" y="-230" type="line" smooth="yes"/>
      <point x="386" y="-201" type="line" smooth="yes"/>
      <point x="425" y="-100" type="line" smooth="yes"/>
    </contour>
    <contour>
      <point x="640" y="780" type="line" smooth="yes"/>
      <point x="460" y="780" type="line" smooth="yes"/>
      <point x="460" y="500" type="line" smooth="yes"/>
      <point x="465" y="350" type="line" smooth="yes"/>
      <point x="250" y="780" type="line" smooth="yes"/>
      <point x="50" y="780" type="line" smooth="yes"/>
      <point x="50" y="0" type="line" smooth="yes"/>
      <point x="230" y="0" type="line" smooth="yes"/>
      <point x="230" y="280" type="line" smooth="yes"/>
      <point x="225" y="430" type="line" smooth="yes"/>
      <point x="440" y="0" type="line" smooth="yes"/>
      <point x="640" y="0" type="line" smooth="yes"/>
    </contour>
  </outline>
</glyph>
<glyph name="ncommaaccent" format="1">
  <advance width="595"/>
  <unicode hex="0146"/>
  <outline>
    <contour>
      <point x="381" y="-40" type="line" smooth="yes"/>
      <point x="221" y="-40" type="line" smooth="yes"/>
      <point x="221" y="-140" type="line" smooth="yes"/>
      <point x="309" y="-140" type="line" smooth="yes"/>
      <point x="276" y="-164" type="line" smooth="yes"/>
      <point x="221" y="-170" type="line" smooth="yes"/>
      <point x="221" y="-230" type="line" smooth="yes"/>
      <point x="342" y="-201" type="line" smooth="yes"/>
      <point x="381" y="-100" type="line" smooth="yes"/>
    </contour>
    <contour>
      <point x="551" y="0" type="line" smooth="yes"/>
      <point x="551" y="355" type="line" smooth="yes"/>
      <point x="515" y="485" type="line" smooth="yes"/>
      <point x="386" y="544" type="line" smooth="yes"/>
      <point x="286" y="522" type="line" smooth="yes"/>
      <point x="218" y="464" type="line" smooth="yes"/>
      <point x="206" y="530" type="line" smooth="yes"/>
      <point x="40" y="530" type="line" smooth="yes"/>
      <point x="50" y="380" type="line" smooth="yes"/>
      <point x="50" y="0" type="line" smooth="yes"/>
      <point x="234" y="0" type="line" smooth="yes"/>
      <point x="234" y="345" type="line" smooth="yes"/>
      <point x="261" y="371" type="line" smooth="yes"/>
      <point x="311" y="386" type="line" smooth="yes"/>
      <point x="358" y="365" type="line" smooth="yes"/>
      <point x="367" y="325" type="line" smooth="yes"/>
      <point x="367" y="0" type="line" smooth="yes"/>
    </contour>
  </outline>
</glyph>
<glyph name="Ncaron" format="1">
  <advance width="690"/>
  <unicode hex="0147"/>
  <outline>
    <contour>
      <point x="120" y="950" type="line" smooth="yes"/>
      <point x="250" y="840" type="line" smooth="yes"/>
      <point x="440" y="840" type="line" smooth="yes"/>
      <point x="570" y="950" type="line" smooth="yes"/>
      <point x="405" y="950" type="line" smooth="yes"/>
      <point x="345" y="910" type="line" smooth="yes"/>
      <point x="285" y="950" type="line" smooth="yes"/>
    </contour>
    <contour>
      <point x="640" y="780" type="line" smooth="yes"/>
      <point x="460" y="780" type="line" smooth="yes"/>
      <point x="460" y="500" type="line" smooth="yes"/>
      <point x="465" y="350" type="line" smooth="yes"/>
      <point x="250" y="780" type="line" smooth="yes"/>
      <point x="50" y="780" type="line" smooth="yes"/>
      <point x="50" y="0" type="line" smooth="yes"/>
      <point x="230" y="0" type="line" smooth="yes"/>
      <point x="230" y="280" type="line" smooth="yes"/>
      <point x="225" y="430" type="line" smooth="yes"/>
      <point x="440" y="0" type="line" smooth="yes"/>
      <point x="640" y="0" type="line" smooth="yes"/>
    </contour>
  </outline>
</glyph>
<glyph name="ncaron" format="1">
  <advance width="595"/>
  <unicode hex="0148"/>
  <outline>
    <contour>
      <point x="76" y="780" type="line" smooth="yes"/>
      <point x="211" y="590" type="line" smooth="yes"/>
      <point x="391" y="590" type="line" smooth="yes"/>
      <point x="526" y="780" type="line" smooth="yes"/>
      <point x="366" y="780" type="line" smooth="yes"/>
      <point x="301" y="706" type="line" smooth="yes"/>
      <point x="236" y="780" type="line" smooth="yes"/>
    </contour>
    <contour>
      <point x="551" y="0" type="line" smooth="yes"/>
      <point x="551" y="355" type="line" smooth="yes"/>
      <point x="515" y="485" type="line" smooth="yes"/>
      <point x="386" y="544" type="line" smooth="yes"/>
      <point x="286" y="522" type="line" smooth="yes"/>
      <point x="218" y="464" type="line" smooth="yes"/>
      <point x="206" y="530" type="line" smooth="yes"/>
      <point x="40" y="530" type="line" smooth="yes"/>
      <point x="50" y="380" type="line" smooth="yes"/>
      <point x="50" y="0" type="line" smooth="yes"/>
      <point x="234" y="0" type="line" smooth="yes"/>
      <point x="234" y="345" type="line" smooth="yes"/>
      <point x="261" y="371" type="line" smooth="yes"/>
      <point x="311" y="386" type="line" smooth="yes"/>
      <point x="358" y="365" type="line" smooth="yes"/>
      <point x="367" y="325" type="line" smooth="yes"/>
      <point x="367" y="0" type="line" smooth="yes"/>
    </contour>
  </outline>
</glyph>
<glyph name="Eng" format="1">
  <advance width="690"/>
  <unicode hex="014A"/>
  <outline>
    <contour>
      <point x="640" y="780" type="line" smooth="yes"/>
      <point x="460" y="780" type="line" smooth="yes"/>
      <point x="460" y="500" type="line" smooth="yes"/>
      <point x="465" y="350" type="line" smooth="yes"/>
      <point x="250" y="780" type="line" smooth="yes"/>
      <point x="50" y="780" type="line" smooth="yes"/>
      <point x="50" y="0" type="line" smooth="yes"/>
      <point x="230" y="0" type="line" smooth="yes"/>
      <point x="230" y="280" type="line" smooth="yes"/>
      <point x="225" y="430" type="line" smooth="yes"/>
      <point x="451" y="-22" type="line" smooth="yes"/>
      <point x="426" y="-50" type="line" smooth="yes"/>
      <point x="385" y="-56" type="line" smooth="yes"/>
      <point x="358" y="-54" type="line" smooth="yes"/>
      <point x="339" y="-50" type="line" smooth="yes"/>
      <point x="339" y="-200" type="line" smooth="yes"/>
      <point x="368" y="-209" type="line" smooth="yes"/>
      <point x="428" y="-214" type="line" smooth="yes"/>
      <point x="582" y="-168" type="line" smooth="yes"/>
      <point x="640" y="-5" type="line" smooth="yes"/>
    </contour>
  </outline>
</glyph>
<glyph name="eng" format="1">
  <advance width="595"/>
  <unicode hex="014B"/>
  <outline>
    <contour>
      <point x="367" y="15" type="line" smooth="yes"/>
      <point x="347" y="-43" type="line" smooth="yes"/>
      <point x="296" y="-56" type="line" smooth="yes"/>
      <point x="269" y="-54" type="line" smooth="yes"/>
      <point x="250" y="-50" type="line" smooth="yes"/>
      <point x="250" y="-200" type="line" smooth="yes"/>
      <point x="279" y="-209" type="line" smooth="yes"/>
      <point x="339" y="-214" type="line" smooth="yes"/>
      <point x="493" y="-168" type="line" smooth="yes"/>
      <point x="551" y="-5" type="line" smooth="yes"/>
      <point x="551" y="355" type="line" smooth="yes"/>
      <point x="515" y="485" type="line" smooth="yes"/>
      <point x="386" y="544" type="line" smooth="yes"/>
      <point x="286" y="522" type="line" smooth="yes"/>
      <point x="218" y="464" type="line" smooth="yes"/>
      <point x="206" y="530" type="line" smooth="yes"/>
      <point x="40" y="530" type="line" smooth="yes"/>
      <point x="50" y="380" type="line" smooth="yes"/>
      <point x="50" y="0" type="line" smooth="yes"/>
      <point x="234" y="0" type="line" smooth="yes"/>
      <point x="234" y="345" type="line" smooth="yes"/>
      <point x="261" y="371" type="line" smooth="yes"/>
      <point x="311" y="386" type="line" smooth="yes"/>
      <point x="358" y="365" type="line" smooth="yes"/>
      <point x="367" y="325" type="line" smooth="yes"/>
    </contour>
  </outline>
</glyph>
<glyph name="obreve" format="1">
  <advance width="560"/>
  <unicode hex="014F"/>
  <outline>
    <contour>
      <point x="280" y="144" type="line" smooth="yes"/>
      <point x="225" y="170" type="line" smooth="yes"/>
      <point x="208" y="245" type="line" smooth="yes"/>
      <point x="208" y="285" type="line" smooth="yes"/>
      <point x="225" y="360" type="line" smooth="yes"/>
      <point x="280" y="386" type="line" smooth="yes"/>
      <point x="335" y="360" type="line" smooth="yes"/>
      <point x="352" y="285" type="line" smooth="yes"/>
      <point x="352" y="245" type="line" smooth="yes"/>
      <point x="335" y="170" type="line" smooth="yes"/>
    </contour>
    <contour>
      <point x="280" y="576" type="line" smooth="yes"/>
      <point x="434" y="634" type="line" smooth="yes"/>
      <point x="475" y="780" type="line" smooth="yes"/>
      <point x="345" y="780" type="line" smooth="yes"/>
      <point x="325" y="726" type="line" smooth="yes"/>
      <point x="280" y="714" type="line" smooth="yes"/>
      <point x="235" y="726" type="line" smooth="yes"/>
      <point x="215" y="780" type="line" smooth="yes"/>
      <point x="85" y="780" type="line" smooth="yes"/>
      <point x="126" y="634" type="line" smooth="yes"/>
    </contour>
    <contour>
      <point x="280" y="-14" type="line" smooth="yes"/>
      <point x="473" y="57" type="line" smooth="yes"/>
      <point x="535" y="245" type="line" smooth="yes"/>
      <point x="535" y="285" type="line" smooth="yes"/>
      <point x="473" y="473" type="line" smooth="yes"/>
      <point x="280" y="544" type="line" smooth="yes"/>
      <point x="87" y="473" type="line" smooth="yes"/>
      <point x="25" y="285" type="line" smooth="yes"/>
      <point x="25" y="245" type="line" smooth="yes"/>
      <point x="87" y="57" type="line" smooth="yes"/>
    </contour>
  </outline>
</glyph>
<glyph name="ohungarumlaut" format="1">
  <advance width="560"/>
  <unicode hex="0151"/>
  <outline>
    <contour>
      <point x="185" y="780" type="line" smooth="yes"/>
      <point x="123" y="590" type="line" smooth="yes"/>
      <point x="265" y="590" type="line" smooth="yes"/>
      <point x="347" y="780" type="line" smooth="yes"/>
    </contour>
    <contour>
      <point x="385" y="780" type="line" smooth="yes"/>
      <point x="294" y="590" type="line" smooth="yes"/>
      <point x="436" y="590" type="line" smooth="yes"/>
      <point x="547" y="780" type="line" smooth="yes"/>
    </contour>
    <contour>
      <point x="280" y="144" type="line" smooth="yes"/>
      <point x="225" y="170" type="line" smooth="yes"/>
      <point x="208" y="245" type="line" smooth="yes"/>
      <point x="208" y="285" type="line" smooth="yes"/>
      <point x="225" y="360" type="line" smooth="yes"/>
      <point x="280" y="386" type="line" smooth="yes"/>
      <point x="335" y="360" type="line" smooth="yes"/>
      <point x="352" y="285" type="line" smooth="yes"/>
      <point x="352" y="245" type="line" smooth="yes"/>
      <point x="335" y="170" type="line" smooth="yes"/>
    </contour>
    <contour>
      <point x="280" y="-14" type="line" smooth="yes"/>
      <point x="473" y="57" type="line" smooth="yes"/>
      <point x="535" y="245" type="line" smooth="yes"/>
      <point x="535" y="285" type="line" smooth="yes"/>
      <point x="473" y="473" type="line" smooth="yes"/>
      <point x="280" y="544" type="line" smooth="yes"/>
      <point x="87" y="473" type="line" smooth="yes"/>
      <point x="25" y="285" type="line" smooth="yes"/>
      <point x="25" y="245" type="line" smooth="yes"/>
      <point x="87" y="57" type="line" smooth="yes"/>
    </contour>
  </outline>
</glyph>
<glyph name="oe" format="1">
  <advance width="887"/>
  <unicode hex="0153"/>
  <outline>
    <contour>
      <point x="607" y="406" type="line" smooth="yes"/>
      <point x="657" y="389" type="line" smooth="yes"/>
      <point x="678" y="330" type="line" smooth="yes"/>
      <point x="536" y="330" type="line" smooth="yes"/>
      <point x="557" y="389" type="line" smooth="yes"/>
    </contour>
    <contour>
      <point x="208" y="245" type="line" smooth="yes"/>
      <point x="208" y="285" type="line" smooth="yes"/>
      <point x="225" y="360" type="line" smooth="yes"/>
      <point x="280" y="386" type="line" smooth="yes"/>
      <point x="335" y="360" type="line" smooth="yes"/>
      <point x="352" y="285" type="line" smooth="yes"/>
      <point x="352" y="245" type="line" smooth="yes"/>
      <point x="335" y="170" type="line" smooth="yes"/>
      <point x="280" y="144" type="line" smooth="yes"/>
      <point x="225" y="170" type="line" smooth="yes"/>
    </contour>
    <contour>
      <point x="862" y="200" type="line" smooth="yes"/>
      <point x="862" y="280" type="line" smooth="yes"/>
      <point x="801" y="470" type="line" smooth="yes"/>
      <point x="611" y="544" type="line" smooth="yes"/>
      <point x="515" y="527" type="line" smooth="yes"/>
      <point x="446" y="481" type="line" smooth="yes"/>
      <point x="377" y="527" type="line" smooth="yes"/>
      <point x="280" y="544" type="line" smooth="yes"/>
      <point x="87" y="473" type="line" smooth="yes"/>
      <point x="25" y="285" type="line" smooth="yes"/>
      <point x="25" y="245" type="line" smooth="yes"/>
      <point x="87" y="57" type="line" smooth="yes"/>
      <point x="280" y="-14" type="line" smooth="yes"/>
      <point x="377" y="3" type="line" smooth="yes"/>
      <point x="446" y="49" type="line" smooth="yes"/>
      <point x="517" y="3" type="line" smooth="yes"/>
      <point x="617" y="-14" type="line" smooth="yes"/>
      <point x="797" y="36" type="line" smooth="yes"/>
      <point x="862" y="166" type="line" smooth="yes"/>
      <point x="862" y="170" type="line" smooth="yes"/>
      <point x="689" y="170" type="line" smooth="yes"/>
      <point x="669" y="138" type="line" smooth="yes"/>
      <point x="618" y="124" type="line" smooth="yes"/>
      <point x="562" y="140" type="line" smooth="yes"/>
      <point x="536" y="200" type="line" smooth="yes"/>
    </contour>
  </outline>
</glyph>
<glyph name="racute" format="1">
  <advance width="400"/>
  <unicode hex="0155"/>
  <outline>
    <contour>
      <point x="210" y="780" type="line" smooth="yes"/>
      <point x="119" y="590" type="line" smooth="yes"/>
      <point x="301" y="590" type="line" smooth="yes"/>
      <point x="412" y="780" type="line" smooth="yes"/>
    </contour>
    <contour>
      <point x="356" y="544" type="line" smooth="yes"/>
      <point x="276" y="524" type="line" smooth="yes"/>
      <point x="217" y="471" type="line" smooth="yes"/>
      <point x="206" y="530" type="line" smooth="yes"/>
      <point x="40" y="530" type="line" smooth="yes"/>
      <point x="50" y="380" type="line" smooth="yes"/>
      <point x="50" y="0" type="line" smooth="yes"/>
      <point x="234" y="0" type="line" smooth="yes"/>
      <point x="234" y="320" type="line" smooth="yes"/>
      <point x="270" y="343" type="line" smooth="yes"/>
      <point x="341" y="355" type="line" smooth="yes"/>
      <point x="371" y="355" type="line" smooth="yes"/>
      <point x="371" y="543" type="line" smooth="yes"/>
      <point x="364" y="544" type="line" smooth="yes"/>
    </contour>
  </outline>
</glyph>
<glyph name="Rcommaaccent" format="1">
  <advance width="635"/>
  <unicode hex="0156"/>
  <outline>
    <contour>
      <point x="395" y="-40" type="line" smooth="yes"/>
      <point x="235" y="-40" type="line" smooth="yes"/>
      <point x="235" y="-140" type="line" smooth="yes"/>
      <point x="323" y="-140" type="line" smooth="yes"/>
      <point x="290" y="-164" type="line" smooth="yes"/>
      <point x="235" y="-170" type="line" smooth="yes"/>
      <point x="235" y="-230" type="line" smooth="yes"/>
      <point x="356" y="-201" type="line" smooth="yes"/>
      <point x="395" y="-100" type="line" smooth="yes"/>
    </contour>
    <contour>
      <point x="240" y="432" type="line" smooth="yes"/>
      <point x="240" y="616" type="line" smooth="yes"/>
      <point x="327" y="616" type="line" smooth="yes"/>
      <point x="381" y="600" type="line" smooth="yes"/>
      <point x="408" y="528" type="line" smooth="yes"/>
      <point x="408" y="520" type="line" smooth="yes"/>
      <point x="381" y="448" type="line" smooth="yes"/>
      <point x="327" y="432" type="line" smooth="yes"/>
    </contour>
    <contour>
      <point x="240" y="268" type="line" smooth="yes"/>
      <point x="293" y="268" type="line" smooth="yes"/>
      <point x="395" y="0" type="line" smooth="yes"/>
      <point x="600" y="0" type="line" smooth="yes"/>
      <point x="480" y="294" type="line" smooth="yes"/>
      <point x="566" y="368" type="line" smooth="yes"/>
      <point x="600" y="514" type="line" smooth="yes"/>
      <point x="600" y="534" type="line" smooth="yes"/>
      <point x="509" y="738" type="line" smooth="yes"/>
      <point x="319" y="780" type="line" smooth="yes"/>
      <point x="50" y="780" type="line" smooth="yes"/>
      <point x="50" y="0" type="line" smooth="yes"/>
      <point x="240" y="0" type="line" smooth="yes"/>
    </contour>
  </outline>
</glyph>
<glyph name="Scedilla" format="1">
  <advance width="640"/>
  <unicode hex="015E"/>
  <outline>
    <contour>
      <point x="211" y="-190" type="line" smooth="yes"/>
      <point x="254" y="-208" type="line" smooth="yes"/>
      <point x="322" y="-216" type="line" smooth="yes"/>
      <point x="416" y="-192" type="line" smooth="yes"/>
      <point x="447" y="-125" type="line" smooth="yes"/>
      <point x="418" y="-62" type="line" smooth="yes"/>
      <point x="347" y="-37" type="line" smooth="yes"/>
      <point x="357" y="-13" type="line" smooth="yes"/>
      <point x="546" y="58" type="line" smooth="yes"/>
      <point x="610" y="228" type="line" smooth="yes"/>
      <point x="610" y="239" type="line" smooth="yes"/>
      <point x="543" y="403" type="line" smooth="yes"/>
      <point x="349" y="469" type="line" smooth="yes"/>
      <point x="249" y="499" type="line" smooth="yes"/>
      <point x="228" y="555" type="line" smooth="yes"/>
      <point x="228" y="559" type="line" smooth="yes"/>
      <point x="248" y="610" type="line" smooth="yes"/>
      <point x="310" y="630" type="line" smooth="yes"/>
      <point x="320" y="630" type="line" smooth="yes"/>
      <point x="394" y="598" type="line" smooth="yes"/>
      <point x="415" y="500" type="line" smooth="yes"/>
      <point x="605" y="500" type="line" smooth="yes"/>
      <point x="605" y="521" type="line" smooth="yes"/>
      <point x="536" y="728" type="line" smooth="yes"/>
      <point x="320" y="794" type="line" smooth="yes"/>
      <point x="107" y="728" type="line" smooth="yes"/>
      <point x="35" y="554" type="line" smooth="yes"/>
      <point x="35" y="543" type="line" smooth="yes"/>
      <point x="99" y="379" type="line" smooth="yes"/>
      <point x="291" y="313" type="line" smooth="yes"/>
      <point x="393" y="282" type="line" smooth="yes"/>
      <point x="417" y="227" type="line" smooth="yes"/>
      <point x="417" y="223" type="line" smooth="yes"/>
      <point x="395" y="172" type="line" smooth="yes"/>
      <point x="325" y="150" type="line" smooth="yes"/>
      <point x="315" y="150" type="line" smooth="yes"/>
      <point x="243" y="178" type="line" smooth="yes"/>
      <point x="220" y="270" type="line" smooth="yes"/>
      <point x="30" y="270" type="line" smooth="yes"/>
      <point x="30" y="261" type="line" smooth="yes"/>
      <point x="93" y="61" type="line" smooth="yes"/>
      <point x="277" y="-12" type="line" smooth="yes"/>
      <point x="254" y="-70" type="line" smooth="yes"/>
      <point x="268" y="-99" type="line" smooth="yes"/>
      <point x="281" y="-97" type="line" smooth="yes"/>
      <point x="308" y="-94" type="line" smooth="yes"/>
      <point x="343" y="-100" type="line" smooth="yes"/>
      <point x="352" y="-116" type="line" smooth="yes"/>
      <point x="343" y="-132" type="line" smooth="yes"/>
      <point x="308" y="-138" type="line" smooth="yes"/>
      <point x="269" y="-133" type="line" smooth="yes"/>
      <point x="238" y="-121" type="line" smooth="yes"/>
    </contour>
  </outline>
</glyph>
<glyph name="scedilla" format="1">
  <advance width="530"/>
  <unicode hex="015F"/>
  <outline>
    <contour>
      <point x="156" y="-190" type="line" smooth="yes"/>
      <point x="199" y="-208" type="line" smooth="yes"/>
      <point x="267" y="-216" type="line" smooth="yes"/>
      <point x="361" y="-192" type="line" smooth="yes"/>
      <point x="392" y="-125" type="line" smooth="yes"/>
      <point x="363" y="-62" type="line" smooth="yes"/>
      <point x="292" y="-37" type="line" smooth="yes"/>
      <point x="302" y="-13" type="line" smooth="yes"/>
      <point x="452" y="43" type="line" smooth="yes"/>
      <point x="502" y="171" type="line" smooth="yes"/>
      <point x="502" y="181" type="line" smooth="yes"/>
      <point x="437" y="296" type="line" smooth="yes"/>
      <point x="273" y="332" type="line" smooth="yes"/>
      <point x="227" y="343" type="line" smooth="yes"/>
      <point x="215" y="370" type="line" smooth="yes"/>
      <point x="228" y="396" type="line" smooth="yes"/>
      <point x="265" y="406" type="line" smooth="yes"/>
      <point x="302" y="393" type="line" smooth="yes"/>
      <point x="315" y="355" type="line" smooth="yes"/>
      <point x="495" y="355" type="line" smooth="yes"/>
      <point x="495" y="360" type="line" smooth="yes"/>
      <point x="440" y="496" type="line" smooth="yes"/>
      <point x="265" y="544" type="line" smooth="yes"/>
      <point x="103" y="503" type="line" smooth="yes"/>
      <point x="35" y="364" type="line" smooth="yes"/>
      <point x="35" y="354" type="line" smooth="yes"/>
      <point x="90" y="243" type="line" smooth="yes"/>
      <point x="258" y="203" type="line" smooth="yes"/>
      <point x="307" y="190" type="line" smooth="yes"/>
      <point x="318" y="163" type="line" smooth="yes"/>
      <point x="307" y="136" type="line" smooth="yes"/>
      <point x="265" y="124" type="line" smooth="yes"/>
      <point x="224" y="136" type="line" smooth="yes"/>
      <point x="211" y="170" type="line" smooth="yes"/>
      <point x="28" y="170" type="line" smooth="yes"/>
      <point x="28" y="165" type="line" smooth="yes"/>
      <point x="77" y="44" type="line" smooth="yes"/>
      <point x="222" y="-12" type="line" smooth="yes"/>
      <point x="199" y="-70" type="line" smooth="yes"/>
      <point x="213" y="-99" type="line" smooth="yes"/>
      <point x="226" y="-97" type="line" smooth="yes"/>
      <point x="253" y="-94" type="line" smooth="yes"/>
      <point x="288" y="-100" type="line" smooth="yes"/>
      <point x="297" y="-116" type="line" smooth="yes"/>
      <point x="288" y="-132" type="line" smooth="yes"/>
      <point x="253" y="-138" type="line" smooth="yes"/>
      <point x="214" y="-133" type="line" smooth="yes"/>
      <point x="183" y="-121" type="line" smooth="yes"/>
    </contour>
  </outline>
</glyph>
<glyph name="scaron" format="1">
  <advance width="530"/>
  <unicode hex="0161"/>
  <outline>
    <contour>
      <point x="40" y="780" type="line" smooth="yes"/>
      <point x="175" y="590" type="line" smooth="yes"/>
      <point x="355" y="590" type="line" smooth="yes"/>
      <point x="490" y="780" type="line" smooth="yes"/>
      <point x="330" y="780" type="line" smooth="yes"/>
      <point x="265" y="706" type="line" smooth="yes"/>
      <point x="200" y="780" type="line" smooth="yes"/>
    </contour>
    <contour>
      <point x="265" y="124" type="line" smooth="yes"/>
      <point x="224" y="136" type="line" smooth="yes"/>
      <point x="211" y="170" type="line" smooth="yes"/>
      <point x="28" y="170" type="line" smooth="yes"/>
      <point x="28" y="165" type="line" smooth="yes"/>
      <point x="88" y="34" type="line" smooth="yes"/>
      <point x="265" y="-14" type="line" smooth="yes"/>
      <point x="443" y="35" type="line" smooth="yes"/>
      <point x="502" y="171" type="line" smooth="yes"/>
      <point x="502" y="181" type="line" smooth="yes"/>
      <point x="437" y="296" type="line" smooth="yes"/>
      <point x="273" y="332" type="line" smooth="yes"/>
      <point x="227" y="343" type="line" smooth="yes"/>
      <point x="215" y="370" type="line" smooth="yes"/>
      <point x="228" y="396" type="line" smooth="yes"/>
      <point x="265" y="406" type="line" smooth="yes"/>
      <point x="302" y="393" type="line" smooth="yes"/>
      <point x="315" y="355" type="line" smooth="yes"/>
      <point x="495" y="355" type="line" smooth="yes"/>
      <point x="495" y="360" type="line" smooth="yes"/>
      <point x="440" y="496" type="line" smooth="yes"/>
      <point x="265" y="544" type="line" smooth="yes"/>
      <point x="103" y="503" type="line" smooth="yes"/>
      <point x="35" y="364" type="line" smooth="yes"/>
      <point x="35" y="354" type="line" smooth="yes"/>
      <point x="90" y="243" type="line" smooth="yes"/>
      <point x="258" y="203" type="line" smooth="yes"/>
      <point x="307" y="190" type="line" smooth="yes"/>
      <point x="318" y="163" type="line" smooth="yes"/>
      <point x="307" y="136" type="line" smooth="yes"/>
    </contour>
  </outline>
</glyph>
<glyph name="Tcommaaccent" format="1">
  <advance width="570"/>
  <unicode hex="0162"/>
  <outline>
    <contour>
      <point x="365" y="-40" type="line" smooth="yes"/>
      <point x="205" y="-40" type="line" smooth="yes"/>
      <point x="205" y="-140" type="line" smooth="yes"/>
      <point x="293" y="-140" type="line" smooth="yes"/>
      <point x="260" y="-164" type="line" smooth="yes"/>
      <point x="205" y="-170" type="line" smooth="yes"/>
      <point x="205" y="-230" type="line" smooth="yes"/>
      <point x="326" y="-201" type="line" smooth="yes"/>
      <point x="365" y="-100" type="line" smooth="yes"/>
    </contour>
    <contour>
      <point x="380" y="616" type="line" smooth="yes"/>
      <point x="555" y="616" type="line" smooth="yes"/>
      <point x="555" y="780" type="line" smooth="yes"/>
      <point x="15" y="780" type="line" smooth="yes"/>
      <point x="15" y="616" type="line" smooth="yes"/>
      <point x="190" y="616" type="line" smooth="yes"/>
      <point x="190" y="0" type="line" smooth="yes"/>
      <point x="380" y="0" type="line" smooth="yes"/>
    </contour>
  </outline>
</glyph>
<glyph name="tcommaaccent" format="1">
  <advance width="440"/>
  <unicode hex="0163"/>
  <outline>
    <contour>
      <point x="320" y="-40" type="line" smooth="yes"/>
      <point x="160" y="-40" type="line" smooth="yes"/>
      <point x="160" y="-140" type="line" smooth="yes"/>
      <point x="248" y="-140" type="line" smooth="yes"/>
      <point x="215" y="-164" type="line" smooth="yes"/>
      <point x="160" y="-170" type="line" smooth="yes"/>
      <point x="160" y="-230" type="line" smooth="yes"/>
      <point x="281" y="-201" type="line" smooth="yes"/>
      <point x="320" y="-100" type="line" smooth="yes"/>
    </contour>
    <contour>
      <point x="279" y="530" type="line" smooth="yes"/>
      <point x="279" y="680" type="line" smooth="yes"/>
      <point x="95" y="680" type="line" smooth="yes"/>
      <point x="95" y="530" type="line" smooth="yes"/>
      <point x="15" y="530" type="line" smooth="yes"/>
      <point x="15" y="370" type="line" smooth="yes"/>
      <point x="95" y="370" type="line" smooth="yes"/>
      <point x="95" y="195" type="line" smooth="yes"/>
      <point x="153" y="32" type="line" smooth="yes"/>
      <point x="307" y="-14" type="line" smooth="yes"/>
      <point x="367" y="-9" type="line" smooth="yes"/>
      <point x="396" y="0" type="line" smooth="yes"/>
      <point x="396" y="150" type="line" smooth="yes"/>
      <point x="377" y="146" type="line" smooth="yes"/>
      <point x="350" y="144" type="line" smooth="yes"/>
      <point x="299" y="157" type="line" smooth="yes"/>
      <point x="279" y="215" type="line" smooth="yes"/>
      <point x="279" y="370" type="line" smooth="yes"/>
      <point x="406" y="370" type="line" smooth="yes"/>
      <point x="406" y="530" type="line" smooth="yes"/>
    </contour>
  </outline>
</glyph>
<glyph name="tbar" format="1">
  <advance width="440"/>
  <unicode hex="0167"/>
  <outline>
    <contour>
      <point x="279" y="530" type="line" smooth="yes"/>
      <point x="279" y="680" type="line" smooth="yes"/>
      <point x="95" y="680" type="line" smooth="yes"/>
      <point x="95" y="530" type="line" smooth="yes"/>
      <point x="15" y="530" type="line" smooth="yes"/>
      <point x="15" y="370" type="line" smooth="yes"/>
      <point x="95" y="370" type="line" smooth="yes"/>
      <point x="95" y="330" type="line" smooth="yes"/>
      <point x="35" y="330" type="line" smooth="yes"/>
      <point x="35" y="200" type="line" smooth="yes"/>
      <point x="95" y="200" type="line" smooth="yes"/>
      <point x="95" y="195" type="line" smooth="yes"/>
      <point x="153" y="32" type="line" smooth="yes"/>
      <point x="307" y="-14" type="line" smooth="yes"/>
      <point x="367" y="-9" type="line" smooth="yes"/>
      <point x="396" y="0" type="line" smooth="yes"/>
      <point x="396" y="150" type="line" smooth="yes"/>
      <point x="377" y="146" type="line" smooth="yes"/>
      <point x="350" y="144" type="line" smooth="yes"/>
      <point x="302" y="154" type="line" smooth="yes"/>
      <point x="280" y="200" type="line" smooth="yes"/>
      <point x="366" y="200" type="line" smooth="yes"/>
      <point x="366" y="330" type="line" smooth="yes"/>
      <point x="279" y="330" type="line" smooth="yes"/>
      <point x="279" y="370" type="line" smooth="yes"/>
      <point x="406" y="370" type="line" smooth="yes"/>
      <point x="406" y="530" type="line" smooth="yes"/>
    </contour>
  </outline>
</glyph>
<glyph name="utilde" format="1">
  <advance width="595"/>
  <unicode hex="0169"/>
  <outline>
    <contour>
      <point x="389" y="780" type="line" smooth="yes"/>
      <point x="381" y="753" type="line" smooth="yes"/>
      <point x="359" y="745" type="line" smooth="yes"/>
      <point x="288" y="771" type="line" smooth="yes"/>
      <point x="199" y="796" type="line" smooth="yes"/>
      <point x="114" y="755" type="line" smooth="yes"/>
      <point x="79" y="620" type="line" smooth="yes"/>
      <point x="199" y="620" type="line" smooth="yes"/>
      <point x="207" y="647" type="line" smooth="yes"/>
      <point x="229" y="655" type="line" smooth="yes"/>
      <point x="300" y="630" type="line" smooth="yes"/>
      <point x="389" y="604" type="line" smooth="yes"/>
      <point x="474" y="645" type="line" smooth="yes"/>
      <point x="509" y="780" type="line" smooth="yes"/>
    </contour>
    <contour>
      <point x="44" y="530" type="line" smooth="yes"/>
      <point x="44" y="175" type="line" smooth="yes"/>
      <point x="80" y="45" type="line" smooth="yes"/>
      <point x="209" y="-14" type="line" smooth="yes"/>
      <point x="309" y="8" type="line" smooth="yes"/>
      <point x="376" y="65" type="line" smooth="yes"/>
      <point x="389" y="0" type="line" smooth="yes"/>
      <point x="555" y="0" type="line" smooth="yes"/>
      <point x="545" y="150" type="line" smooth="yes"/>
      <point x="545" y="530" type="line" smooth="yes"/>
      <point x="361" y="530" type="line" smooth="yes"/>
      <point x="361" y="185" type="line" smooth="yes"/>
      <point x="334" y="159" type="line" smooth="yes"/>
      <point x="284" y="144" type="line" smooth="yes"/>
      <point x="237" y="165" type="line" smooth="yes"/>
      <point x="228" y="205" type="line" smooth="yes"/>
      <point x="228" y="530" type="line" smooth="yes"/>
    </contour>
  </outline>
</glyph>
<glyph name="Ubreve" format="1">
  <advance width="670"/>
  <unicode hex="016C"/>
  <outline>
    <contour>
      <point x="335" y="824" type="line" smooth="yes"/>
      <point x="493" y="862" type="line" smooth="yes"/>
      <point x="530" y="950" type="line" smooth="yes"/>
      <point x="405" y="950" type="line" smooth="yes"/>
      <point x="389" y="928" type="line" smooth="yes"/>
      <point x="335" y="920" type="line" smooth="yes"/>
      <point x="281" y="928" type="line" smooth="yes"/>
      <point x="265" y="950" type="line" smooth="yes"/>
      <point x="140" y="950" type="line" smooth="yes"/>
      <point x="178" y="862" type="line" smooth="yes"/>
    </contour>
    <contour>
      <point x="335" y="-14" type="line" smooth="yes"/>
      <point x="565" y="56" type="line" smooth="yes"/>
      <point x="625" y="248" type="line" smooth="yes"/>
      <point x="625" y="780" type="line" smooth="yes"/>
      <point x="435" y="780" type="line" smooth="yes"/>
      <point x="435" y="253" type="line" smooth="yes"/>
      <point x="416" y="178" type="line" smooth="yes"/>
      <point x="335" y="150" type="line" smooth="yes"/>
      <point x="254" y="178" type="line" smooth="yes"/>
      <point x="235" y="253" type="line" smooth="yes"/>
      <point x="235" y="780" type="line" smooth="yes"/>
      <point x="45" y="780" type="line" smooth="yes"/>
      <point x="45" y="248" type="line" smooth="yes"/>
      <point x="105" y="56" type="line" smooth="yes"/>
    </contour>
  </outline>
</glyph>
<glyph name="ubreve" format="1">
  <advance width="595"/>
  <unicode hex="016D"/>
  <outline>
    <contour>
      <point x="294" y="576" type="line" smooth="yes"/>
      <point x="448" y="634" type="line" smooth="yes"/>
      <point x="489" y="780" type="line" smooth="yes"/>
      <point x="359" y="780" type="line" smooth="yes"/>
      <point x="339" y="726" type="line" smooth="yes"/>
      <point x="294" y="714" type="line" smooth="yes"/>
      <point x="249" y="726" type="line" smooth="yes"/>
      <point x="229" y="780" type="line" smooth="yes"/>
      <point x="99" y="780" type="line" smooth="yes"/>
      <point x="140" y="634" type="line" smooth="yes"/>
    </contour>
    <contour>
      <point x="44" y="530" type="line" smooth="yes"/>
      <point x="44" y="175" type="line" smooth="yes"/>
      <point x="80" y="45" type="line" smooth="yes"/>
      <point x="209" y="-14" type="line" smooth="yes"/>
      <point x="309" y="8" type="line" smooth="yes"/>
      <point x="376" y="65" type="line" smooth="yes"/>
      <point x="389" y="0" type="line" smooth="yes"/>
      <point x="555" y="0" type="line" smooth="yes"/>
      <point x="545" y="150" type="line" smooth="yes"/>
      <point x="545" y="530" type="line" smooth="yes"/>
      <point x="361" y="530" type="line" smooth="yes"/>
      <point x="361" y="185" type="line" smooth="yes"/>
      <point x="334" y="159" type="line" smooth="yes"/>
      <point x="284" y="144" type="line" smooth="yes"/>
      <point x="237" y="165" type="line" smooth="yes"/>
      <point x="228" y="205" type="line" smooth="yes"/>
      <point x="228" y="530" type="line" smooth="yes"/>
    </contour>
  </outline>
</glyph>
<glyph name="Uring" format="1">
  <advance width="670"/>
  <unicode hex="016E"/>
  <outline>
    <contour>
      <point x="286" y="855" type="line" smooth="yes"/>
      <point x="300" y="890" type="line" smooth="yes"/>
      <point x="335" y="904" type="line" smooth="yes"/>
      <point x="370" y="890" type="line" smooth="yes"/>
      <point x="384" y="855" type="line" smooth="yes"/>
      <point x="370" y="820" type="line" smooth="yes"/>
      <point x="335" y="806" type="line" smooth="yes"/>
      <point x="300" y="820" type="line" smooth="yes"/>
    </contour>
    <contour>
      <point x="226" y="855" type="line" smooth="yes"/>
      <point x="258" y="778" type="line" smooth="yes"/>
      <point x="335" y="746" type="line" smooth="yes"/>
      <point x="412" y="778" type="line" smooth="yes"/>
      <point x="444" y="855" type="line" smooth="yes"/>
      <point x="412" y="932" type="line" smooth="yes"/>
      <point x="335" y="964" type="line" smooth="yes"/>
      <point x="258" y="932" type="line" smooth="yes"/>
    </contour>
    <contour>
      <point x="335" y="-14" type="line" smooth="yes"/>
      <point x="565" y="56" type="line" smooth="yes"/>
      <point x="625" y="248" type="line" smooth="yes"/>
      <point x="625" y="780" type="line" smooth="yes"/>
      <point x="435" y="780" type="line" smooth="yes"/>
      <point x="435" y="253" type="line" smooth="yes"/>
      <point x="416" y="178" type="line" smooth="yes"/>
      <point x="335" y="150" type="line" smooth="yes"/>
      <point x="254" y="178" type="line" smooth="yes"/>
      <point x="235" y="253" type="line" smooth="yes"/>
      <point x="235" y="780" type="line" smooth="yes"/>
      <point x="45" y="780" type="line" smooth="yes"/>
      <point x="45" y="248" type="line" smooth="yes"/>
      <point x="105" y="56" type="line" smooth="yes"/>
    </contour>
  </outline>
</glyph>
<glyph name="uring" format="1">
  <advance width="595"/>
  <unicode hex="016F"/>
  <outline>
    <contour>
      <point x="245" y="685" type="line" smooth="yes"/>
      <point x="259" y="720" type="line" smooth="yes"/>
      <point x="294" y="734" type="line" smooth="yes"/>
      <point x="329" y="720" type="line" smooth="yes"/>
      <point x="343" y="685" type="line" smooth="yes"/>
      <point x="329" y="650" type="line" smooth="yes"/>
      <point x="294" y="636" type="line" smooth="yes"/>
      <point x="259" y="650" type="line" smooth="yes"/>
    </contour>
    <contour>
      <point x="185" y="685" type="line" smooth="yes"/>
      <point x="217" y="608" type="line" smooth="yes"/>
      <point x="294" y="576" type="line" smooth="yes"/>
      <point x="371" y="608" type="line" smooth="yes"/>
      <point x="403" y="685" type="line" smooth="yes"/>
      <point x="371" y="762" type="line" smooth="yes"/>
      <point x="294" y="794" type="line" smooth="yes"/>
      <point x="217" y="762" type="line" smooth="yes"/>
    </contour>
    <contour>
      <point x="44" y="530" type="line" smooth="yes"/>
      <point x="44" y="175" type="line" smooth="yes"/>
      <point x="80" y="45" type="line" smooth="yes"/>
      <point x="209" y="-14" type="line" smooth="yes"/>
      <point x="309" y="8" type="line" smooth="yes"/>
      <point x="376" y="65" type="line" smooth="yes"/>
      <point x="389" y="0" type="line" smooth="yes"/>
      <point x="555" y="0" type="line" smooth="yes"/>
      <point x="545" y="150" type="line" smooth="yes"/>
      <point x="545" y="530" type="line" smooth="yes"/>
      <point x="361" y="530" type="line" smooth="yes"/>
      <point x="361" y="185" type="line" smooth="yes"/>
      <point x="334" y="159" type="line" smooth="yes"/>
      <point x="284" y="144" type="line" smooth="yes"/>
      <point x="237" y="165" type="line" smooth="yes"/>
      <point x="228" y="205" type="line" smooth="yes"/>
      <point x="228" y="530" type="line" smooth="yes"/>
    </contour>
  </outline>
</glyph>
<glyph name="Uogonek" format="1">
  <advance width="670"/>
  <unicode hex="0172"/>
  <outline>
    <contour>
      <point x="407" y="-58" type="line" smooth="yes"/>
      <point x="420" y="-24" type="line" smooth="yes"/>
      <point x="462" y="0" type="line" smooth="yes"/>
      <point x="589" y="87" type="line" smooth="yes"/>
      <point x="625" y="248" type="line" smooth="yes"/>
      <point x="625" y="780" type="line" smooth="yes"/>
      <point x="435" y="780" type="line" smooth="yes"/>
      <point x="435" y="253" type="line" smooth="yes"/>
      <point x="416" y="178" type="line" smooth="yes"/>
      <point x="335" y="150" type="line" smooth="yes"/>
      <point x="254" y="178" type="line" smooth="yes"/>
      <point x="235" y="253" type="line" smooth="yes"/>
      <point x="235" y="780" type="line" smooth="yes"/>
      <point x="45" y="780" type="line" smooth="yes"/>
      <point x="45" y="248" type="line" smooth="yes"/>
      <point x="99" y="62" type="line" smooth="yes"/>
      <point x="302" y="-13" type="line" smooth="yes"/>
      <point x="280" y="-56" type="line" smooth="yes"/>
      <point x="272" y="-105" type="line" smooth="yes"/>
      <point x="311" y="-189" type="line" smooth="yes"/>
      <point x="414" y="-216" type="line" smooth="yes"/>
      <point x="477" y="-208" type="line" smooth="yes"/>
      <point x="522" y="-190" type="line" smooth="yes"/>
      <point x="481" y="-80" type="line" smooth="yes"/>
      <point x="468" y="-87" type="line" smooth="yes"/>
      <point x="445" y="-90" type="line" smooth="yes"/>
      <point x="417" y="-81" type="line" smooth="yes"/>
    </contour>
  </outline>
</glyph>
<glyph name="uogonek" format="1">
  <advance width="595"/>
  <unicode hex="0173"/>
  <outline>
    <contour>
      <point x="500" y="-58" type="line" smooth="yes"/>
      <point x="513" y="-27" type="line" smooth="yes"/>
      <point x="555" y="0" type="line" smooth="yes"/>
      <point x="545" y="150" type="line" smooth="yes"/>
      <point x="545" y="530" type="line" smooth="yes"/>
      <point x="361" y="530" type="line" smooth="yes"/>
      <point x="361" y="185" type="line" smooth="yes"/>
      <point x="334" y="159" type="line" smooth="yes"/>
      <point x="284" y="144" type="line" smooth="yes"/>
      <point x="237" y="165" type="line" smooth="yes"/>
      <point x="228" y="205" type="line" smooth="yes"/>
      <point x="228" y="530" type="line" smooth="yes"/>
      <point x="44" y="530" type="line" smooth="yes"/>
      <point x="44" y="175" type="line" smooth="yes"/>
      <point x="80" y="45" type="line" smooth="yes"/>
      <point x="209" y="-14" type="line" smooth="yes"/>
      <point x="309" y="8" type="line" smooth="yes"/>
      <point x="376" y="65" type="line" smooth="yes"/>
      <point x="392" y="-17" type="line" smooth="yes"/>
      <point x="372" y="-58" type="line" smooth="yes"/>
      <point x="365" y="-105" type="line" smooth="yes"/>
      <point x="404" y="-189" type="line" smooth="yes"/>
      <point x="507" y="-216" type="line" smooth="yes"/>
      <point x="570" y="-208" type="line" smooth="yes"/>
      <point x="615" y="-190" type="line" smooth="yes"/>
      <point x="574" y="-80" type="line" smooth="yes"/>
      <point x="561" y="-87" type="line" smooth="yes"/>
      <point x="538" y="-90" type="line" smooth="yes"/>
      <point x="510" y="-81" type="line" smooth="yes"/>
    </contour>
  </outline>
</glyph>
<glyph name="Wcircumflex" format="1">
  <advance width="950"/>
  <unicode hex="0174"/>
  <outline>
    <contour>
      <point x="415" y="840" type="line" smooth="yes"/>
      <point x="475" y="879" type="line" smooth="yes"/>
      <point x="535" y="840" type="line" smooth="yes"/>
      <point x="700" y="840" type="line" smooth="yes"/>
      <point x="570" y="950" type="line" smooth="yes"/>
      <point x="380" y="950" type="line" smooth="yes"/>
      <point x="250" y="840" type="line" smooth="yes"/>
    </contour>
    <contour>
      <point x="572" y="0" type="line" smooth="yes"/>
      <point x="814" y="0" type="line" smooth="yes"/>
      <point x="938" y="780" type="line" smooth="yes"/>
      <point x="740" y="780" type="line" smooth="yes"/>
      <point x="680" y="262" type="line" smooth="yes"/>
      <point x="592" y="780" type="line" smooth="yes"/>
      <point x="358" y="780" type="line" smooth="yes"/>
      <point x="270" y="262" type="line" smooth="yes"/>
      <point x="210" y="780" type="line" smooth="yes"/>
      <point x="12" y="780" type="line" smooth="yes"/>
      <point x="136" y="0" type="line" smooth="yes"/>
      <point x="377" y="0" type="line" smooth="yes"/>
      <point x="475" y="562" type="line" smooth="yes"/>
    </contour>
  </outline>
</glyph>
<glyph name="wcircumflex" format="1">
  <advance width="780"/>
  <unicode hex="0175"/>
  <outline>
    <contour>
      <point x="325" y="590" type="line" smooth="yes"/>
      <point x="390" y="663" type="line" smooth="yes"/>
      <point x="455" y="590" type="line" smooth="yes"/>
      <point x="615" y="590" type="line" smooth="yes"/>
      <point x="480" y="780" type="line" smooth="yes"/>
      <point x="300" y="780" type="line" smooth="yes"/>
      <point x="165" y="590" type="line" smooth="yes"/>
    </contour>
    <contour>
      <point x="390" y="340" type="line" smooth="yes"/>
      <point x="450" y="0" type="line" smooth="yes"/>
      <point x="680" y="0" type="line" smooth="yes"/>
      <point x="765" y="530" type="line" smooth="yes"/>
      <point x="585" y="530" type="line" smooth="yes"/>
      <point x="560" y="200" type="line" smooth="yes"/>
      <point x="500" y="530" type="line" smooth="yes"/>
      <point x="280" y="530" type="line" smooth="yes"/>
      <point x="220" y="200" type="line" smooth="yes"/>
      <point x="195" y="530" type="line" smooth="yes"/>
      <point x="15" y="530" type="line" smooth="yes"/>
      <point x="100" y="0" type="line" smooth="yes"/>
      <point x="330" y="0" type="line" smooth="yes"/>
    </contour>
  </outline>
</glyph>
<glyph name="zdotaccent" format="1">
  <advance width="510"/>
  <unicode hex="017C"/>
  <outline>
    <contour>
      <point x="20" y="126" type="line" smooth="yes"/>
      <point x="20" y="0" type="line" smooth="yes"/>
      <point x="490" y="0" type="line" smooth="yes"/>
      <point x="490" y="160" type="line" smooth="yes"/>
      <point x="370" y="160" type="line" smooth="yes"/>
      <point x="262" y="156" type="line" smooth="yes"/>
      <point x="480" y="404" type="line" smooth="yes"/>
      <point x="480" y="530" type="line" smooth="yes"/>
      <point x="30" y="530" type="line" smooth="yes"/>
      <point x="30" y="370" type="line" smooth="yes"/>
      <point x="130" y="370" type="line" smooth="yes"/>
      <point x="238" y="374" type="line" smooth="yes"/>
    </contour>
    <contour>
      <point x="350" y="780" type="line" smooth="yes"/>
      <point x="160" y="780" type="line" smooth="yes"/>
      <point x="160" y="590" type="line" smooth="yes"/>
      <point x="350" y="590" type="line" smooth="yes"/>
    </contour>
  </outline>
</glyph>
<glyph name="Scommaaccent" format="1">
  <advance width="640"/>
  <unicode hex="0218"/>
  <outline>
    <contour>
      <point x="400" y="-40" type="line" smooth="yes"/>
      <point x="240" y="-40" type="line" smooth="yes"/>
      <point x="240" y="-140" type="line" smooth="yes"/>
      <point x="328" y="-140" type="line" smooth="yes"/>
      <point x="295" y="-164" type="line" smooth="yes"/>
      <point x="240" y="-170" type="line" smooth="yes"/>
      <point x="240" y="-230" type="line" smooth="yes"/>
      <point x="361" y="-201" type="line" smooth="yes"/>
      <point x="400" y="-100" type="line" smooth="yes"/>
    </contour>
    <contour>
      <point x="291" y="313" type="line" smooth="yes"/>
      <point x="393" y="282" type="line" smooth="yes"/>
      <point x="417" y="227" type="line" smooth="yes"/>
      <point x="417" y="223" type="line" smooth="yes"/>
      <point x="395" y="172" type="line" smooth="yes"/>
      <point x="325" y="150" type="line" smooth="yes"/>
      <point x="315" y="150" type="line" smooth="yes"/>
      <point x="243" y="178" type="line" smooth="yes"/>
      <point x="220" y="270" type="line" smooth="yes"/>
      <point x="30" y="270" type="line" smooth="yes"/>
      <point x="30" y="261" type="line" smooth="yes"/>
      <point x="104" y="50" type="line" smooth="yes"/>
      <point x="320" y="-14" type="line" smooth="yes"/>
      <point x="537" y="50" type="line" smooth="yes"/>
      <point x="610" y="228" type="line" smooth="yes"/>
      <point x="610" y="239" type="line" smooth="yes"/>
      <point x="543" y="403" type="line" smooth="yes"/>
      <point x="349" y="469" type="line" smooth="yes"/>
      <point x="249" y="499" type="line" smooth="yes"/>
      <point x="228" y="555" type="line" smooth="yes"/>
      <point x="228" y="559" type="line" smooth="yes"/>
      <point x="248" y="610" type="line" smooth="yes"/>
      <point x="310" y="630" type="line" smooth="yes"/>
      <point x="320" y="630" type="line" smooth="yes"/>
      <point x="394" y="598" type="line" smooth="yes"/>
      <point x="415" y="500" type="line" smooth="yes"/>
      <point x="605" y="500" type="line" smooth="yes"/>
      <point x="605" y="521" type="line" smooth="yes"/>
      <point x="536" y="728" type="line" smooth="yes"/>
      <point x="320" y="794" type="line" smooth="yes"/>
      <point x="107" y="728" type="line" smooth="yes"/>
      <point x="35" y="554" type="line" smooth="yes"/>
      <point x="35" y="543" type="line" smooth="yes"/>
      <point x="99" y="379" type="line" smooth="yes"/>
    </contour>
  </outline>
</glyph>
<glyph name="dotlessj" format="1">
  <advance width="280"/>
  <unicode hex="0237"/>
  <outline>
    <contour>
      <point x="48" y="15" type="line" smooth="yes"/>
      <point x="28" y="-43" type="line" smooth="yes"/>
      <point x="-23" y="-56" type="line" smooth="yes"/>
      <point x="-50" y="-54" type="line" smooth="yes"/>
      <point x="-69" y="-50" type="line" smooth="yes"/>
      <point x="-69" y="-200" type="line" smooth="yes"/>
      <point x="-40" y="-209" type="line" smooth="yes"/>
      <point x="20" y="-214" type="line" smooth="yes"/>
      <point x="174" y="-168" type="line" smooth="yes"/>
      <point x="232" y="-5" type="line" smooth="yes"/>
      <point x="232" y="530" type="line" smooth="yes"/>
      <point x="48" y="530" type="line" smooth="yes"/>
    </contour>
  </outline>
</glyph>
<glyph name="circumflex" format="1">
  <advance width="500"/>
  <unicode hex="02C6"/>
  <outline>
    <contour>
      <point x="185" y="590" type="line" smooth="yes"/>
      <point x="250" y="663" type="line" smooth="yes"/>
      <point x="315" y="590" type="line" smooth="yes"/>
      <point x="475" y="590" type="line" smooth="yes"/>
      <point x="340" y="780" type="line" smooth="yes"/>
      <point x="160" y="780" type="line" smooth="yes"/>
      <point x="25" y="590" type="line" smooth="yes"/>
    </contour>
  </outline>
</glyph>
<glyph name="ring" format="1">
  <advance width="500"/>
  <unicode hex="02DA"/>
  <outline>
    <contour>
      <point x="201" y="685" type="line" smooth="yes"/>
      <point x="215" y="720" type="line" smooth="yes"/>
      <point x="250" y="734" type="line" smooth="yes"/>
      <point x="285" y="720" type="line" smooth="yes"/>
      <point x="299" y="685" type="line" smooth="yes"/>
      <point x="285" y="650" type="line" smooth="yes"/>
      <point x="250" y="636" type="line" smooth="yes"/>
      <point x="215" y="650" type="line" smooth="yes"/>
    </contour>
    <contour>
      <point x="141" y="685" type="line" smooth="yes"/>
      <point x="173" y="608" type="line" smooth="yes"/>
      <point x="250" y="576" type="line" smooth="yes"/>
      <point x="327" y="608" type="line" smooth="yes"/>
      <point x="359" y="685" type="line" smooth="yes"/>
      <point x="327" y="762" type="line" smooth="yes"/>
      <point x="250" y="794" type="line" smooth="yes"/>
      <point x="173" y="762" type="line" smooth="yes"/>
    </contour>
  </outline>
</glyph>
<glyph name="ogonek" format="1">
  <advance width="602"/>
  <unicode hex="02DB"/>
  <outline>
    <contour>
      <point x="240" y="-58" type="line" smooth="yes"/>
      <point x="253" y="-27" type="line" smooth="yes"/>
      <point x="295" y="0" type="line" smooth="yes"/>
      <point x="265" y="74" type="line" smooth="yes"/>
      <point x="156" y="11" type="line" smooth="yes"/>
      <point x="105" y="-105" type="line" smooth="yes"/>
      <point x="144" y="-189" type="line" smooth="yes"/>
      <point x="247" y="-216" type="line" smooth="yes"/>
      <point x="310" y="-208" type="line" smooth="yes"/>
      <point x="355" y="-190" type="line" smooth="yes"/>
      <point x="314" y="-80" type="line" smooth="yes"/>
      <point x="301" y="-87" type="line" smooth="yes"/>
      <point x="278" y="-90" type="line" smooth="yes"/>
      <point x="250" y="-81" type="line" smooth="yes"/>
    </contour>
  </outline>
</glyph>
<glyph name="tilde" format="1">
  <advance width="500"/>
  <unicode hex="02DC"/>
  <outline>
    <contour>
      <point x="345" y="780" type="line" smooth="yes"/>
      <point x="337" y="753" type="line" smooth="yes"/>
      <point x="315" y="745" type="line" smooth="yes"/>
      <point x="244" y="771" type="line" smooth="yes"/>
      <point x="155" y="796" type="line" smooth="yes"/>
      <point x="70" y="755" type="line" smooth="yes"/>
      <point x="35" y="620" type="line" smooth="yes"/>
      <point x="155" y="620" type="line" smooth="yes"/>
      <point x="163" y="647" type="line" smooth="yes"/>
      <point x="185" y="655" type="line" smooth="yes"/>
      <point x="256" y="630" type="line" smooth="yes"/>
      <point x="345" y="604" type="line" smooth="yes"/>
      <point x="430" y="645" type="line" smooth="yes"/>
      <point x="465" y="780" type="line" smooth="yes"/>
    </contour>
  </outline>
</glyph>
<glyph name="Ddotaccent" format="1">
  <advance width="670"/>
  <unicode hex="1E0A"/>
  <outline>
    <contour>
      <point x="395" y="950" type="line" smooth="yes"/>
      <point x="245" y="950" type="line" smooth="yes"/>
      <point x="245" y="840" type="line" smooth="yes"/>
      <point x="395" y="840" type="line" smooth="yes"/>
    </contour>
    <contour>
      <point x="240" y="164" type="line" smooth="yes"/>
      <point x="240" y="616" type="line" smooth="yes"/>
      <point x="290" y="616" type="line" smooth="yes"/>
      <point x="416" y="564" type="line" smooth="yes"/>
      <point x="444" y="410" type="line" smooth="yes"/>
      <point x="444" y="370" type="line" smooth="yes"/>
      <point x="416" y="216" type="line" smooth="yes"/>
      <point x="290" y="164" type="line" smooth="yes"/>
    </contour>
    <contour>
      <point x="637" y="370" type="line" smooth="yes"/>
      <point x="637" y="410" type="line" smooth="yes"/>
      <point x="560" y="696" type="line" smooth="yes"/>
      <point x="300" y="780" type="line" smooth="yes"/>
      <point x="50" y="780" type="line" smooth="yes"/>
      <point x="50" y="0" type="line" smooth="yes"/>
      <point x="300" y="0" type="line" smooth="yes"/>
      <point x="560" y="84" type="line" smooth="yes"/>
    </contour>
  </outline>
</glyph>
